<mxfile host="app.diagrams.net" modified="2020-11-06T20:52:27.409Z" agent="5.0 (Windows NT 10.0; Win64; x64) AppleWebKit/537.36 (KHTML, like Gecko) Chrome/84.0.4147.89 Safari/537.36" etag="cBGr3XQ-QzibxjopcoXr" version="13.9.1" type="github">
  <diagram id="-9oTds0RaOmp1nNx-H_x" name="Page-1">
    <mxGraphModel dx="1002" dy="683" grid="1" gridSize="10" guides="1" tooltips="1" connect="1" arrows="1" fold="1" page="1" pageScale="1" pageWidth="8500" pageHeight="11000" math="0" shadow="0">
      <root>
        <mxCell id="0" />
        <mxCell id="1" parent="0" />
        <mxCell id="7mjdrCKgkBbXvNlTKw9o-115" value="" style="curved=1;endArrow=classic;html=1;strokeColor=#000000;strokeWidth=1;fontSize=16;exitX=0.5;exitY=1;exitDx=0;exitDy=0;" edge="1" parent="1" source="7mjdrCKgkBbXvNlTKw9o-108">
          <mxGeometry x="820" y="480" width="50" height="50" as="geometry">
            <mxPoint x="800" y="530" as="sourcePoint" />
            <mxPoint x="1000" y="560" as="targetPoint" />
            <Array as="points">
              <mxPoint x="880" y="750" />
            </Array>
          </mxGeometry>
        </mxCell>
        <mxCell id="7mjdrCKgkBbXvNlTKw9o-76" value="" style="curved=1;endArrow=classic;html=1;strokeColor=#000000;strokeWidth=1;fontSize=16;" edge="1" parent="1">
          <mxGeometry x="440" y="780" width="50" height="50" as="geometry">
            <mxPoint x="480" y="800" as="sourcePoint" />
            <mxPoint x="480" y="960" as="targetPoint" />
            <Array as="points">
              <mxPoint x="630" y="880" />
            </Array>
          </mxGeometry>
        </mxCell>
        <mxCell id="7mjdrCKgkBbXvNlTKw9o-93" value="" style="curved=1;endArrow=classic;html=1;strokeWidth=1;fontSize=18;exitX=0.94;exitY=0.681;exitDx=0;exitDy=0;exitPerimeter=0;entryX=0;entryY=0.5;entryDx=0;entryDy=0;" edge="1" parent="1" source="7mjdrCKgkBbXvNlTKw9o-70" target="7mjdrCKgkBbXvNlTKw9o-94">
          <mxGeometry width="50" height="50" relative="1" as="geometry">
            <mxPoint x="850" y="910" as="sourcePoint" />
            <mxPoint x="840" y="840" as="targetPoint" />
            <Array as="points">
              <mxPoint x="780" y="830" />
            </Array>
          </mxGeometry>
        </mxCell>
        <mxCell id="7mjdrCKgkBbXvNlTKw9o-6" value="Glucose" style="rounded=1;whiteSpace=wrap;html=1;verticalAlign=top;fontSize=16;" vertex="1" parent="1">
          <mxGeometry x="560" y="120" width="200" height="160" as="geometry" />
        </mxCell>
        <mxCell id="7mjdrCKgkBbXvNlTKw9o-1" value="&lt;font style=&quot;font-size: 16px&quot;&gt;Glucose 6-phosphate&lt;/font&gt;" style="rounded=1;whiteSpace=wrap;html=1;verticalAlign=top;" vertex="1" parent="1">
          <mxGeometry x="560" y="400" width="200" height="160" as="geometry" />
        </mxCell>
        <mxCell id="7mjdrCKgkBbXvNlTKw9o-5" value="" style="curved=1;endArrow=classic;html=1;fontSize=16;exitX=0.25;exitY=1;exitDx=0;exitDy=0;strokeWidth=2;" edge="1" parent="1" source="7mjdrCKgkBbXvNlTKw9o-6">
          <mxGeometry width="50" height="50" relative="1" as="geometry">
            <mxPoint x="720" y="320" as="sourcePoint" />
            <mxPoint x="600" y="400" as="targetPoint" />
            <Array as="points">
              <mxPoint x="570" y="300" />
              <mxPoint x="550" y="360" />
            </Array>
          </mxGeometry>
        </mxCell>
        <mxCell id="7mjdrCKgkBbXvNlTKw9o-7" value="" style="curved=1;endArrow=classic;html=1;fontSize=16;entryX=0.813;entryY=0.997;entryDx=0;entryDy=0;entryPerimeter=0;strokeWidth=2;" edge="1" parent="1" target="7mjdrCKgkBbXvNlTKw9o-6">
          <mxGeometry width="50" height="50" relative="1" as="geometry">
            <mxPoint x="722" y="397" as="sourcePoint" />
            <mxPoint x="710" y="400" as="targetPoint" />
            <Array as="points">
              <mxPoint x="800" y="340" />
            </Array>
          </mxGeometry>
        </mxCell>
        <mxCell id="7mjdrCKgkBbXvNlTKw9o-8" value="" style="curved=1;endArrow=classic;html=1;fontSize=16;" edge="1" parent="1">
          <mxGeometry width="50" height="50" relative="1" as="geometry">
            <mxPoint x="480" y="280" as="sourcePoint" />
            <mxPoint x="480" y="400" as="targetPoint" />
            <Array as="points">
              <mxPoint x="530" y="290" />
              <mxPoint x="570" y="340" />
              <mxPoint x="520" y="390" />
            </Array>
          </mxGeometry>
        </mxCell>
        <mxCell id="7mjdrCKgkBbXvNlTKw9o-9" value="&lt;font style=&quot;font-size: 18px;&quot;&gt;ATP&lt;/font&gt;" style="text;html=1;strokeColor=none;fillColor=none;align=center;verticalAlign=middle;whiteSpace=wrap;rounded=0;fontSize=18;fontStyle=4" vertex="1" parent="1">
          <mxGeometry x="440" y="260" width="40" height="20" as="geometry" />
        </mxCell>
        <mxCell id="7mjdrCKgkBbXvNlTKw9o-10" value="&lt;font style=&quot;font-size: 18px&quot;&gt;ADP&lt;/font&gt;" style="text;html=1;strokeColor=none;fillColor=none;align=center;verticalAlign=middle;whiteSpace=wrap;rounded=0;fontSize=16;fontStyle=4" vertex="1" parent="1">
          <mxGeometry x="440" y="380" width="40" height="20" as="geometry" />
        </mxCell>
        <mxCell id="7mjdrCKgkBbXvNlTKw9o-16" style="edgeStyle=none;rounded=0;orthogonalLoop=1;jettySize=auto;html=1;exitX=1;exitY=0.5;exitDx=0;exitDy=0;entryX=0;entryY=0.5;entryDx=0;entryDy=0;fontSize=16;" edge="1" parent="1" source="7mjdrCKgkBbXvNlTKw9o-14" target="7mjdrCKgkBbXvNlTKw9o-6">
          <mxGeometry relative="1" as="geometry" />
        </mxCell>
        <mxCell id="7mjdrCKgkBbXvNlTKw9o-14" value="Glucose" style="rounded=1;whiteSpace=wrap;html=1;fontSize=16;fillColor=#f8cecc;strokeColor=#b85450;" vertex="1" parent="1">
          <mxGeometry x="200" y="170" width="120" height="60" as="geometry" />
        </mxCell>
        <mxCell id="7mjdrCKgkBbXvNlTKw9o-18" value="GLUT" style="text;html=1;strokeColor=none;fillColor=none;align=center;verticalAlign=middle;whiteSpace=wrap;rounded=0;fontSize=16;" vertex="1" parent="1">
          <mxGeometry x="420" y="180" width="40" height="20" as="geometry" />
        </mxCell>
        <mxCell id="7mjdrCKgkBbXvNlTKw9o-19" value="" style="shape=image;imageAspect=0;aspect=fixed;verticalLabelPosition=bottom;verticalAlign=top;fontSize=16;image=data:image/png,iVBORw0KGgoAAAANSUhEUgAAAsAAAALzCAMAAAAoH0HeAAADAFBMVEX///+AAAAAgACAgAAAAICAAIAAgIDAwMDA3MCmyvD/8NT/4rH/1I7/xmv/uEj/qiX/qgDckgC5egCWYgBzSgBQMgD/49T/x7H/q47/j2v/c0j/VyX/VQDcSQC5PQCWMQBzJQBQGQD/1NT/sbH/jo7/a2v/SEj/JSX+AADcAAC5AACWAABzAABQAAD/1OP/scf/jqv/a4//SHP/JVf/AFXcAEm5AD2WADFzACVQABn/1PD/seL/jtT/a8b/SLj/Jar/AKrcAJK5AHqWAGJzAEpQADL/1P//sf//jv//a///SP//Jf/+AP7cANy5ALmWAJZzAHNQAFDw1P/isf/Ujv/Ga/+4SP+qJf+qAP+SANx6ALliAJZKAHMyAFDj1P/Hsf+rjv+Pa/9zSP9XJf9VAP9JANw9ALkxAJYlAHMZAFDU1P+xsf+Ojv9ra/9ISP8lJf8AAP4AANwAALkAAJYAAHMAAFDU4/+xx/+Oq/9rj/9Ic/8lV/8AVf8ASdwAPbkAMZYAJXMAGVDU8P+x4v+O1P9rxv9IuP8lqv8Aqv8AktwAerkAYpYASnMAMlDU//+x//+O//9r//9I//8l//8A/v4A3NwAubkAlpYAc3MAUFDU//Cx/+KO/9Rr/8ZI/7gl/6oA/6oA3JIAuXoAlmIAc0oAUDLU/+Ox/8eO/6tr/49I/3Ml/1cA/1UA3EkAuT0AljEAcyUAUBnU/9Sx/7GO/45r/2tI/0gl/yUA/gAA3AAAuQAAlgAAcwAAUADj/9TH/7Gr/46P/2tz/0hX/yVV/wBJ3AA9uQAxlgAlcwAZUADw/9Ti/7HU/47G/2u4/0iq/yWq/wCS3AB6uQBilgBKcwAyUAD//9T//7H//47//2v//0j//yX+/gDc3AC5uQCWlgBzcwBQUADy8vLm5uba2trOzs7CwsK2traqqqqenp6SkpKGhoZ6enpubm5iYmJWVlZKSko+Pj4yMjImJiYaGhoODg7/+/CgoKSAgID/AAAA/wD//wAAAP//AP8A//8AAABYWvgoAAAAAXRSTlMAQObYZgAAAAFiS0dEAIgFHUgAAAAJcEhZcwAADsQAAA7EAZUrDhsAACAASURBVHic7d3bmpo6GIBhz7z/W3SzbNVqGcfHnrEGwp4kgJLND9971o6rZTlfmRhC2GwAAAAAAAAAAAAAAAAALMjh+CP0QWDt9kdjh+Yv7U63R1q4vfZODxCwOecVTvrS/pq23TkRI5TJAe+6+eYJH5wfKKAzNeCjJt/My/2hAn0TAz41T7v3e1L/6urhYIGuaQFX/d5OO/U7xwsFI6BJAW/LfJsTD7szBSOYKQHvi1K3nRceipHEydlRAgZTAr6rTvszDrui4J2jgwRMJgR8MvVbFcwgAr5NCFhdfNNftDiouLkoB8/GB6w+wd0Mf46ajLg4OELAYnzAN+MAIrNLzX8Q4Mz4gPNfJcY/6KqdoADcGh2wuoZsvmK8ZQyBAEYHfLaOIDaDZ2jAhdEB34fGuIMvAOanKj3qXFtFPoZOsGfLLBvgSLmQwah8Yf6Lu+VPOhEw/JsWsO0zmvqUd/ZwzEBlbMDDeRIwAiBgiKYCvus8CBjRGzuNRsCI0uh54JEBc3MnvJoWsG0a7ZW/gmk0eDU64HzJuu1ChlpQyYpgeDU6YHVdznLTEJeSEcDogNUIwbxccjc4xgDmNzpgdUuy+a63E5/hEMD4Be2JfQxxZwiMAMYH/LJOpKlJNJYDw7PxARd3vRnOser8zNYm8GzCbfVny0lWfe3h4ggBiwkBF6dg3ee4Ys+T1gn4/GvO4wS0pmwtVeztd+19kCv6bc2h7Z9pwmU5uDZpd8pic/akfWtntWd7a3icz0r8YVYCbk0KuNzEL73WYVa7q7bvWP5P/d7zwoZ/cGnaBtdVwWlyeR2Px+35Xv5GZwbiq/ztB0NhODTxEQPaR7z0z78/4+XqOVzpX54AA2cmP6Xopc331h8pnJ/VV/8wjoAj058TpzkJ6x8Ut/tTveDJjRpw45Tf/jbtS/vzo5nv1ThEOPytXvTgIh0isj+db1ne55d9gHuqU+dhiBBod6mGws/+FRAgevt6KPzNUBgCHesHen79F/pggOl+fddDYa4uQ57dv3oo/I+hMOTZ1xedv7m6DIH+q4fCCUNhCHSuh8IstIRAu2s9FGahJQQ61ENhFlpCosZCy4SryxCIhZaQjYWWEI6FlhDuxD1HEI2FlhCOhZYQrrnQ0rx3NhAtFlpCNhZaQjgWWkI4FlpCuMZCyxtDYcjDQksIx0JLCNdcaMnm7hCIhZaQjYWWEI6FlhCOhZaQjYWWEI6FlhCOhZYQrrnQkqEw5GGhJYRjoSWEY6ElhDtzzxFEY6ElhGOhJYRjoSWEY6ElZGOhJYRjoSWEY6ElZGsstGQoDIlYaAnhWGgJ4VhoCdmaCy255wgCsdASwrHQEsKx0BKysdASwrHQEsKx0BLCNRdaMhSGPI2FlgkFQ6BioeV3knJhDiKdHukz+RlLEDBk2l3zWWEChlC/UwKGYAQM0QgYohEwRCNgiEbAEI2AIRoBQzQChmgEDNEIGKIRMEQjYIhGwBCNgCEaAUM0AoZoBAzRCBiiETBEI2CIRsAQjYAhGgFDNAKGaAQM0QgYohEwRCNgiEbAEI2AIRoBQzQChmgEDNEIGKIRMEQjYIhGwBCNgCEaAUM0AoZoBAzRCBiiETBEI2CIRsAQjYAhGgFDNAKGaAQM0QgYohEwRCNgiEbAEI2AIRoBQzQChmgEDNEIGKIRMEQjYIhGwBCNgCEaAUM0AoZoBAzRCBiiETBEI2CIRsAQjYAhGgFDNAKGaAQM0QgYohEwRCNgiEbAEI2AIRoBQzQChmgEDNEIGKIRMEQjYIhGwBCNgCEaAUM0AoZoBAzRCBiiETBEI2CIRsAQjYAhGgFDNAKGaAQM0QgYohEwRCNgiEbAEI2AIRoBQzQChmgEDNEIGKIRMEQjYIhGwBCNgCEaAUM0AoZoBAzRCBiiETBEI2CIRsAQjYAhGgFDNAKGaAQM0QgYohEwRCNgiEbAEI2AIRoBQzQChmgEDNEIGKIRMEQjYIhGwBCNgCEaAUM0AoZoBAzRCBiiETBEI2CIRsAQjYB7DscfoQ8CIxFw0+50e6SF22sf+nAwjIBr+2vadudEHD0CLu26+eYJ885EjoALR02+mVfoA4MVASun5mn3fk/qX11DHxpsCDhX9Xs77dTvHC8ULAEBZ7Zlvs2Jh92ZguNHwD/2Ranbzu8fipHEKchRYQwC/nFPDe/Crih4F+CgMAoBVwNg3ZtQFMwgIloEvNmoi2/6ixYHFTcX5WJFwMUnuJvhq2oy4uL1iDAeAW9u1rdgp07BXo8I4xHwJn8HEuOXr9oJCkSCgI8DV4y3jCFiRsDnoXdg4AyNoAj4PjTGHXwBAsoDfl7/rUtzRPsYOsGeLbNsCC0L+FndhbAW/xrvQP4bd8tbpK5zEHCcbsn3+vrtB2z7jKY+5Z1dfyfwjmwO9G/AkgJpBDycJwHHK5/D/36GKykQAl4GdQ0qTUzf58Ui4EUo+n2u+vMJAYtFv7mRAXNzZ2zoV8nfBds02it/xdrfpuhc6VfJPwHYLmSoBZWsCI7LP/otqH/JlpuGuJQcIfqtqBGCebnkbnCMAe/ot6ZuSTbf9XbiM1x0yn65XTyT2McQd4bAsaHflpd1Ik1NorEcOCL021bc9WY4x6rzM+9VPM7023G2nGTV1x6ejwhmv+m3qzgF6z7HFXue8GZFg341ir39rr0PckW/zKFFo+g3/RX6QOJSXJZM2vcGVnu2MwURi7Lf36EPJDLlJn7ptW612l111be8xoV+TaqC0+TyOh6P2/O9/A0GwNGgXzPtI144/0blRL82L22+N7YGjsXpSb9WmpNw70FxJ3oOhX6H7c+tHQauvdHD7/QvBYdR9ssmdXb70/l2/3F+aca+2YcICg6i7Pff8Ethoj4EU3AA9DuDXfEmUrB39DuLIwWHcaTfeVBwEPQ7m2MxS/FFwf7Q74wOFOxb2a/pMVKYhII9o9+ZUbBX9Ds7CvaIfh2gYG8O3/TrQFUwKy3dKt9o+p3Z7ku9sQ8Kdqnsl1sSZ0fBHpT9ctnIAQp2jn6domDH6NcxCnaKfp2jYId29OteeSv+N7ssz608OdCvU7viGafsEz6zsl8uFTlGwU7QrzcU7AD9ekTBs6Nfryh4ZvTr2a7YBfD5X+gjWYRyaod+/Smf2csulp8rf6DRr08UPJeyXy4O+UXB86DfUCh4DvQbDgV/jn5DouBP0W9Yxe7YT/ZfftOdfsMqnuDLDuLvKX6EfdNvMBT8gXIIxgXNgCj4bfQbBQp+E/1GgoLfQr/RuFDwdPQbkfJpqOzGPNof+o0JBU9UDLtYjhoLCp6k7JdLmNGg4AnoN0IUPBr9RomCR6LfSJVPlvwT+kDiRr/ROvFsh2Fn+o0XBQ8qB1q/Qh8IdCh4QNkvFy0jRcFW9Bs9CragXwG2FGxCvyKUz5lkn+YO+hWCgrV+0a8UFKxRfjjgQqUAFNxDv6JQcAf9CkPBLfQrDs/sa6BfgcqC2bWZfmWi4MJ/Rb/X0AeCaSg4d+TSpFQUvKFf0SiYfmXbr/35Z/QrXPkEv5Xu4Ey/4q26YHf97k6Xez4+S+5ndqdyasUFH8rLkXP/wcdiZ8DSdd9/jbp5VPufW76EvtUW7Opi5PGe9vQTJuDZrLRgV/1e+vlmurfpE/B8ymdZr6pgR/2W76XmJNx+IQHPaIVPQ3Pe7+2Uf3g7vm76ggl4TmXBq9nP2XW/58afu7/qCibgWa2sYFfj3yLVe+cjW/nXvRq/R8DzWlXBe0eX0Lfa0e6mPjM3wibgma2o4J2jC+g7U79Vwff6dwh4bqsp2FW/RXj6y3p79XceOy+2/DkzH9wK7NbxZCln/W56w4Smbt0E7EBZ8Db0gTjkrt9T/udeTF9+tPMmYBfKgpe7u7O7fos3z3AC3mxe7YkIAnZi6QVXl80dLIDO/+DE+OV9+2McAbux7IJdLvs45H/y2fyCpNUlATuy5IKdXjJ/daYZes6tFxCwK38WW7DbJR8X+xC4vMxRDoIJ2JmlPmfK8ZKl+1B27TFG8TQkMycHuQ5FwQvbKdf1krs84IftFflfX84EE7BDSyzY+ZLR/E+/j34FAbu0vIKrC+XOljwTcEwWV7D7hR4EHJWFFexhmcdbAWtfxyzEHBb1zB4fy5QSAo5LWbDl2pIUXpbZDU6j7VtvJwE7VxYsft9nP8tEr0PZHfMXcCHDn4UU7GmZM5eS47OIgn0tcj4ODbjUgZTL4AjYhwUU7G9pR/73mJdT7tpfJ2Avfkl//onHhR1qEGxczXNqDYEJ2BPhT/DxuTBJrTYzPiqGW4rCOEneA9rvwjqVqOFatfqMV88TE7Avggv2vDBUDRIS7d1K3FYfjtiCvS9sfhgHEWxsEpLQgv0v51AzaZatpRrDCwL2SGTBF+/9Vn9nYtjcrzlJTMA+CXyaT5jFSGyvGqmqYCkPlAu0mK7e4Pra2+C6/emOgP0qC557R11Hgi0G3XUeUFTjEQNhiSo45GJmw60WL+3LLH+C+yNdGUEFh13KvOcxW3ESU3DwJUjHazvfCw86jIKrJ0vM7Ffofn/stjxqNkIiCha+/AgulQXrr/dHgX5hcXD0fJ/Z0C+sIi94nzzpFzZlwdYdEII5pM+/SZJEPUhHWIevH8nDug9jMIc0fWbn4BU99RnT5Ff7vwc2Eg0m24M3X46w6Cct4X2H/CkTScwBq+dgPBexJxZmdlQj4EfMAafFKN14eyVWa/ss+4054HJJ452Pcmj5XUyyJnEH/F2uQQh7vWWfZJb2pBHJypt08kIiDrg6BaePkOsQ1LEwFI/GnzKL/FNSzAGfH+WhhnzUEgFHZVetcn3+jT3g34dnebABtzcm4JiUD2nNviW36APe/FcX/Cf0sSACh+qHcnrdCAi4WhQccDKCgONxrE9o942IgJu3pn1Znv/q5VgQ2K+632xmSkTAm8ZtPWEmIwg4Fo2T2SM7mckIeNO4t/L5K/CxIKDGqUw9Z0JIwOXDOXMBJiMIOAqtnTrUrKqQgJszJyEmIwg4BvVeSfVpTErAzbmTAHeiEnAEDrqTmJiAm7MnafrleZE7AYd3bJ3Cyt+VE3C5fE759jsZQcDBtb799W2cggJuXtDwPRlBwKH9bp2+6h/AkgLu7LV3CXos8OrS/M4//6u/ICrgehFdzuMGxwQcVvsb3/zhKyvgTXuzSH+L3Ak4pF3729760Sss4NZMoMc77gk4oNY1gO6zMYQFvNk9Wv8zzdGQ92OBF4f2t7zzY1dawJvDd7tgP5MRBBxMa/7/p9XOsFFcwN3/IT9bpxFwKL/a3+5nd9AoL+Bq08qSj0XuBBxI5ykl/U2aBAZcPXbAMCryeixwqvN8h7Q/YJQYcPXg2Wpc5HwygoBD6D3nTLNBk8iAO/PaHrb/I+AAWovA88Gi5kUyA950/9dcb/9HwP4dvjrfZO1QUWjAu+7/nOPt/wjYu+Oj8x1+aO/nFRpw94JG6ngygoB923bmmvoTaIrUgDeH7v+g0zvuCdizX71vr2FjMbEB9y5oOL3jnoD9unS/t8Y7eeUGvDn1/ifdbf9HwF51Z5ks9/EKDlj3LHlXd9wTsEe7/hPW/xpfLDng3gUN279U18eCuXSWzGYsTzIUHfCme6UmdTUZQcDeHHrzS81b4HpkB9y7VpM6uuOegH3pfzYv9pAykB2w5oKGmzvuCdiT7lLDjHXJt/CAN/v+DxwXi9wJ2A/N5/KBu8+lB6y5oJE6mIwgYC+6qyczAx/LxQfcv+Y44v/a1bHgE73Vk5mhxd7yA25v2FOaefs/AnZP94m8dwtczwIC1g6cZp6MIGDneqsnM4YVPA1LCFg7dJr3jnsCdq23ejL/Hg7fqLCIgDf9a4/pvJMRBOyY9pOMfQJNWUbAmquPmfm2/yNgt/qrJzNjblJYRsDaCxrpjNv/EbBT/dWTGd0tcD0LCVh3BT0z1x33BOxSf/Xk+O/dUgLWXUPP/9fmmYwgYHc0qyfz79y4G2wWE7D2Kno61x33BOyM4fPL8ASaspyA9Rc0ZrrjnoBdMYz9TLfA9SwoYMNHgVnuuCdgRwwjv/GrWZYUsOHDwByL3AnYDcO4b8JalkUFrL+gkc4wGUHATnS3aSyZb4HrWVbAhg8En09GELAL2iUAqfUWuJ5lBazZsKfw4WQEAc9Pu3oyY7sFrmdhAXefQNAo+KNF7gQ8O+3qyfw7NemWsKUFbPxY+9kidwKe215/8T8dtYKnYXEBGz/YfjQZQcAz066ezE1cgbW8gI0fbT/Z/o+A56VfPZmZ+nNygQHrNuwpvL39HwHPSr96MjP5VrAlBqzbsKfw7vZ/BDwn7T1g6gwzeZS3yIB7TyBoeG8ygoBnZLpgOn4FT8MyAzasb8+9NRlBwLMxrJ7M+33jNsZlBqzdsKf0zh33BDwX48XSdOoEmrLQgPUb9hTeuOOegGdiWj2ZeeuhwUsNePOfpeDp2/8R8DzMl5lG3gLXs9iATevbc5PvuCfgWZgvMr29YnC5AVsma9LJkxEEPAfzJaZ3JtCUBQdsXK2XmzYZQcAzsH0/3phAU5YcsOWCRjrxRxYBf8y4ejLv9+3nSy06YOOKvdyURe4E/Cn79+L9ta6LDth6QWPSvDkBf8i8ejLzwUrXZQdsnXacMhlBwJ8xr57MvDeBpiw8YOsFjXT84lMC/oh59WRmyi1wPUsPeOC9G7v9HwF/wrx6Mq/voxtuFx+w9YJGOnYygoA/YJ2Qn3gLXM/yAx54/8adAAj4febVk7kPtyFfQcBD7+CYO+4J+F2W1ZO5T5+ItoaAjRv2lAUP/x0E/Cbb6snMx89DW0XAQ+/i8PZ/BPwe+zTmHE9DW0XA5g17SkN33BPwW46mbWYK767gaVhHwINngqHJCAJ+h231ZObtFTwNKwnYupJanQysszkE/Abb6sm83zme5LeWgAfPBvYFUQQ8nXl7jsIsz/FbTcCD5wPrjA4BT2VdPZl76xa4nvUEbHwCQc08p0PAE9lXT2Y+WcHTsKKAhy5opJbJCAKexr56MjPXE/zWFLBtw56Cafs/Ap5kcNJnjgk0ZVUBD17QME5GEPAUAysA03km0JRVBTx8QcO0yJ2AJ7Cvnszf5LdvgetZV8BD69tzuskIAh5vYPWf6S1+08oCHr6gkWonIwh4tOGPyp+v4GlYW8Cb0/D7q1liQsAjDa2ezMw0gaasLuARFzQ02/8R8DgjPiZ/dgtcz/oCHr7Emfa3/yPgUYanzz5/5mTHCgO2b9hT6ExGEPAYQ6sn8zf2s1vgetYY8PBlzkzrjnsCHmFwvVRmlhU8DWsMeGDDnlLzjnsCHjbmw8WcE2jKKgO2PoGg1rhcT8CDxny0mHUCTVlnwKMuaDQ/bxDwgOHVk5m/8//FKw3Y+gSCWnXPAAHbjftYMdsKnoa1Bjy0YU9Z8C8fxyLe8OrJzPe8E2jKagMec8k+88/HsQg3Zvp3plvgetYbsP0JBLV8kTsBWwyvnszNPYGmrDjgoQ17StlkBAGbDa+ezI3dyXaiNQc85sJ9/vYcCNhs5FBs1hU8DWsOeOQFjWz7PwI2GbF6MjPXLXA9qw545KePn4IvBKw1ZvVkXpirflce8Kj17XnBBKwzdhA23y1wPSsPeOwnaFUwAbeN/gE2Ygfmd6094JEXNNIHAfeMWT2Zm30FT8PqAx6xYU/mi4C7Rq2ezAzuvvwJAh73OToh4I5RqyczribQFAIed0GDgDtGrZ7MzHsLXA8Bj/ssTcBto1ZP5m0ZNuua9UBWHvCYDXsYAzeNWz2ZmfsWuB4Czv+qwc/T3wRcG7d6MjffHlIGBJwbvKDBPHBt7PRv6nYCTSFgZXBO6JuAC+NuZsnNfwtcDwEXhmaFHgSsjFw9mXFwC1wPAZcG5oW+CDg3cvVknpXbCTSFgCv2CxpJEfHajVy+kzq6Ba6HgGvWuaGfb9xz/A/PBUvGLn9ycgtcDwHXrOvbE07Aha+Qt8D1EHCD7YLG15Sfnsv2GLMKzdEtcD0E3PorzSeXb87Ale/hiWC3K3gaCLjFNsfJELjyHPq37OwWuB4CbjM/geCbE3DtaR9OeZlAUyIOePcv43oxSJdxnvOLIXCT7d1weAtczyX54W3AIoFpw56EM3CLuWCXt8BhmGGp69j5z9UwTqe5X8EDG8Ni19FLYFfjoS/Y6S1wGEF7QeN77C24K6L9N814NDzNEwgMZ5t10w2DHd8Ch1F6FzRGXj5dl4fmJ5XrW+AwTmfDHj7A6ST9UZXzW+AwUmvDHmaAtTQnYOe3wGGsxgUN+tV7pt1TMBNoESnXtw9cNV2vR+8c7OEWODH22/P1/uNyDjaqUhv2DK5bWa2k+7PJxy1wbYfT+ZZVcn55vHg9wu7VemduupHVKTtw/Zyj5UuTjiI7iBErB9equ0La9wTa/tL63lx1Z7q8BP3A3PKlD+3662ke/b9IvUj7B1i+NO1AHuPWbq/Usx2wn1vgKvv+mpV7P+H89/Ujc8uXPrPVvltJ9+3xEPDmwPSZWXb6awyvPN0CV9IvGrx1fwjkv+s3YON2vZ2TsI+AYfG7iLjg6RY4xfhojkfnPOc/4PoHw/V8/HGu14a1CybgwLKA6x9Qvm6By9XbiT4ur59Ituc66HbB3gMu+703lpSeyn/nrYIJOLB8K6PyI8LN599c9Xuta60/OLUK9h3wqziIrf63m4N0Ag4sD7gYBPu7BS5T/FDufCzalSe/5rF4DvhgejsO/WMj4MDygNW50OMtcJvqdNZfdlzcz9icQPUccGL851wU3BhpEXBgdcA+b4HbbPamfquCGz+//QZ8svw4OqpjqxfrEXBgVcCeb4G7Gvstv/ONe5T9BvzoDXQbusdNwIFVY2C/Gx/s+wPdBpVQ/Wnfa8BHyz+tnzF658AJOLA84If3W+DOnUTbjp1RsNeAr7YTcHmFozpyAg4sD/jp/Ra4h+0EXH6MqkaaXgN+dMYvHepzXDXhSMCBqS3t//pewWP9MV1OUbzKX/oMWB2a5YrOo9UlAQemAva9jFF90Dd/bNy3T3M+Ax46tGIMUb5jBBxYmICv9hFEOYYof+Uz4PPQG3JqDYIJOLAwAd+HvrfX1iDYZ8CDh3Zs/ZWq0rvOg4A9CBOw+q5bXqC6ODZf/tBW4j/gTWv8Pvi0nBkPDRoBA7YtHTq2fk4PRTJnwI+hf1vtf30EHFiQgPeD2bV/TvsMuJXn8CsIOLAgAbfzHH4FAcOEgDveCviocyVgD+QEfNVWMnvAb42Bta9jGs0HOWNgn9Notqd1qOU85aU6Ag4s4CyEbf2Quql923y5p4BvQ9np5oG1LyRgH+TMA8dyJe7VOjQCDizSK3Ht86DPgNUJ9mV+QfsiIQEHFibgwdNce02jz4DVENdykSVtHRoBBxYm4O3Aae7QHiT7DLg4+RsXGqlDr5ZbEnBgYQJW3SXGL6sli9vWq30FfLL/kff2G0bAgQUK2H7fTnHjWfVrrwF373prO7ZHEAQcWqCAu3e9tZ3bIwjPdyWfLaPgXfd+UwIOLFDAxU9i/Si42D6k3nzBb8DFKVh7bNfOCZiAQwsVcLFDiO4vLjZNa1zn8BtwuWmQ5p7pYt+rxg1HBBxYqIDLrdH6f3O56V/jUXWeAy5+PPTu7NwVx9wcXRBwYMECLn5Q985zh6T/E9x3wOWxJa1PmeX+qq1Npwg4sGABl4OI9NZ8Kmi1v2proYTvgKttKNP7qTi6w6vaBrz1FFMCDixcwOUmfj+xbotz2rHa2L89Rew94M2hsWt9deudOrL2U3gJOLCAAdcFq0oaz5q5tmdh/QdsfPxB9/kdBBxYyIBb57mmbpABAm7/8yo9ehueEHBgQQPWPYvt52TcO5ogAf8cXOffV6KZWCPgwMIGrHlQ3E1zfTlMwD+2l2pccz9r36R9fmOT9j+2fAmzCR3wz4nudK3OdLfXXveSvATtV2xfmkneoefNDzFa+IBzB05WeEskAQPvIWCIRsAQjYAhGgFDNAKGaAQM0QgYohEwRCNgiEbAEI2AIRoBQzQChmgEDNEIGKIRMEQjYIhGwBCNgCEaAUM0AoZoBAzRCBiiETBEI2CIRsAQjYAhGgFDNAKGaAQM0QgYohEwRCNgiEbAEI2AIRoBQzQChmgEDNEIGKIRMEQjYIhGwBCNgCEaAUM0AoZoBAzRCBiiETBEI2CIRsAQjYAhGgFDNAKGaAQM0QgYohEwRCNgiEbAEI2AIRoBQzQChmgEDNEIGKIRMEQjYIhGwBCNgCEaAUM0AoZoBAzRCBiiETBEI2CIRsAQjYAhGgFDNAKGaAQM0QgYohEwRCNgAAAAAAAAAAAAAEDH/vhjF/oogDdsr0lauJ+1yyEOWd76hRKWLwHu7c5p2+PUf9E9j1v731u+BDjXzTdPeNt9FQEjSvtE0++Pa2c0TMCI0aHR7P1H/aukXTABI0JVv8lrX/zO66EtmIARn33Z6rH5u6eHpmACRnyK8e+589u7WzEObvweASM6xfyDZtLsqr7SODETMGKzN/ZbFvyof4OAEZurdvyg7B6duAkYkdmpk6xh9cNWfY6rfk3AiMwrT/Rl+rKaEj60fknAiIcq1Lj87JR/+dJ6NQEjHnmgN+OXd+0xBAEjLkf7CGKzubXO0ASMuJy7M732FxAw4nK1D4HLU3Q5y3ZXl5x1EgKGf+oznOUF+37AFgQMv+7teV6NVpgEjLgMZ0fAiBgBQ7S3Ar7rEDACeCdgptEQjeHs8oBvwy8nYAQwOI2m7pdrTaMRMKJxyfu0XMhQCyrLFcEEjLio1Wa9DUxqXEpGzNQI4WJ+QdIaYxAwIpPfNPQwfnnf+gxHwIjNpTVE6Dm3hsAEjNgcrDPBaj17/SGPgBGbu+1jnDo/X9svJmBERC34TfejvkbAiI46BSeaueBi079r57UEjJgUW/MkvXNwuWllI20CRnxORaidcfBL89sEjAgVm/il98ZsWrm7avuOZQJGjMqC08f1s7l7YwAAAFpJREFUnN2geb6Vv9G5SEfAiNIrNehsWknAiNPxocs36T73jYARq/5ztjQPiiNgRGt3aj1r66a7OHfJ7n7Tr12zfAnwY7c9X/MOz5bNpgAAAAAAAAAAADCb/wEspJG0fDTThgAAAABJRU5ErkJggg==;" vertex="1" parent="1">
          <mxGeometry x="611.25" y="155.47" width="97.5" height="104.53" as="geometry" />
        </mxCell>
        <mxCell id="7mjdrCKgkBbXvNlTKw9o-21" value="" style="curved=1;endArrow=classic;html=1;fontSize=16;entryX=0;entryY=0.5;entryDx=0;entryDy=0;exitX=0;exitY=0.5;exitDx=0;exitDy=0;" edge="1" parent="1" source="7mjdrCKgkBbXvNlTKw9o-23" target="7mjdrCKgkBbXvNlTKw9o-24">
          <mxGeometry width="50" height="50" relative="1" as="geometry">
            <mxPoint x="780" y="410" as="sourcePoint" />
            <mxPoint x="800" y="420" as="targetPoint" />
            <Array as="points">
              <mxPoint x="700" y="320" />
            </Array>
          </mxGeometry>
        </mxCell>
        <mxCell id="7mjdrCKgkBbXvNlTKw9o-23" value="H&lt;sub style=&quot;font-size: 18px;&quot;&gt;2&lt;/sub&gt;O" style="text;html=1;strokeColor=none;fillColor=none;align=center;verticalAlign=middle;whiteSpace=wrap;rounded=0;fontSize=18;fontStyle=4" vertex="1" parent="1">
          <mxGeometry x="820" y="400" width="40" height="20" as="geometry" />
        </mxCell>
        <mxCell id="7mjdrCKgkBbXvNlTKw9o-24" value="P&lt;sub style=&quot;font-size: 18px;&quot;&gt;i&lt;/sub&gt;" style="text;html=1;strokeColor=none;fillColor=none;align=center;verticalAlign=middle;whiteSpace=wrap;rounded=0;fontSize=18;fontStyle=4" vertex="1" parent="1">
          <mxGeometry x="840" y="270" width="40" height="20" as="geometry" />
        </mxCell>
        <mxCell id="7mjdrCKgkBbXvNlTKw9o-26" value="" style="shape=image;imageAspect=0;aspect=fixed;verticalLabelPosition=bottom;verticalAlign=top;fontSize=16;image=data:image/png,iVBORw0KGgoAAAANSUhEUgAAAr8AAAJUCAMAAAArRL6dAAADAFBMVEX///+AAAAAgACAgAAAAICAAIAAgIDAwMDA3MCmyvD/8NT/4rH/1I7/xmv/uEj/qiX/qgDckgC5egCWYgBzSgBQMgD/49T/x7H/q47/j2v/c0j/VyX/VQDcSQC5PQCWMQBzJQBQGQD/1NT/sbH/jo7/a2v/SEj/JSX+AADcAAC5AACWAABzAABQAAD/1OP/scf/jqv/a4//SHP/JVf/AFXcAEm5AD2WADFzACVQABn/1PD/seL/jtT/a8b/SLj/Jar/AKrcAJK5AHqWAGJzAEpQADL/1P//sf//jv//a///SP//Jf/+AP7cANy5ALmWAJZzAHNQAFDw1P/isf/Ujv/Ga/+4SP+qJf+qAP+SANx6ALliAJZKAHMyAFDj1P/Hsf+rjv+Pa/9zSP9XJf9VAP9JANw9ALkxAJYlAHMZAFDU1P+xsf+Ojv9ra/9ISP8lJf8AAP4AANwAALkAAJYAAHMAAFDU4/+xx/+Oq/9rj/9Ic/8lV/8AVf8ASdwAPbkAMZYAJXMAGVDU8P+x4v+O1P9rxv9IuP8lqv8Aqv8AktwAerkAYpYASnMAMlDU//+x//+O//9r//9I//8l//8A/v4A3NwAubkAlpYAc3MAUFDU//Cx/+KO/9Rr/8ZI/7gl/6oA/6oA3JIAuXoAlmIAc0oAUDLU/+Ox/8eO/6tr/49I/3Ml/1cA/1UA3EkAuT0AljEAcyUAUBnU/9Sx/7GO/45r/2tI/0gl/yUA/gAA3AAAuQAAlgAAcwAAUADj/9TH/7Gr/46P/2tz/0hX/yVV/wBJ3AA9uQAxlgAlcwAZUADw/9Ti/7HU/47G/2u4/0iq/yWq/wCS3AB6uQBilgBKcwAyUAD//9T//7H//47//2v//0j//yX+/gDc3AC5uQCWlgBzcwBQUADy8vLm5uba2trOzs7CwsK2traqqqqenp6SkpKGhoZ6enpubm5iYmJWVlZKSko+Pj4yMjImJiYaGhoODg7/+/CgoKSAgID/AAAA/wD//wAAAP//AP8A//8AAABYWvgoAAAAAXRSTlMAQObYZgAAAAFiS0dEAIgFHUgAAAAJcEhZcwAADsQAAA7EAZUrDhsAAB+oSURBVHic7Z1be6q6FkB98///RZSyilY2pf3sm1sJIJckgHLJJGM8nVU9WwzDMJPMzOx2AAAAAAAAAAAAAAAAAAAAAAAAANvgcD0ntwfJ5Xpc+2IARhGltzpZHKx9RQBDibJbBwwGGQRJ195HH0wUAQI4au19EK19aQB9PPU97x89bhDGKQKDEEp9s7qrYYLAIIGg6GtPrdFaVAhMDAwuczL1s0W/nK1wTQADCc1hQiFwvPg1AQxFxblX7Wt7JTDTwOAqqo9NDa/a5AZYn3Nu6N7w6oEIGJymR9BLZwriM23zOf9VAmhR4cPJ+HrUGcH9ddbo/ua/TAAt19zA0Ph6kL+e1P6Cv+AOKj6wvCFpv+G4b8MCB6xF2jc+O7EGB+7SCQ/a9AUYACuiss4sbwiZAQZnOfYuEIcsIYOz9NuJv+Au+AuSwV+QTIC/IJnczovlDRHzZ+AuWd/8b8z6BbjL+PVjAHeI+8KD/HVTejvAuvTlT+57XgdYlcyewHMm/AWXUfllpiIl7B8CtykMNWwxvjD7C25ztqSgsX8eXEd1wNQvAaHEJoHL+lF0v+AyRf2+s6F+H2vH4DRFBEH9VJBJVb86O3XqV9v2FgE4wbF59FANel8QQHDR2psR+4IMQs7PAtFEzTO0siv2gigOEefHAgAAAAAAAAAAAGyW8O/vjxOFQCqfN+o9gFzwFySDvyAZ/AXJ4C9I5t/d3++1LwLgRR41SygYBVLBX5AM/oJk8Bckg78gGfwFyeAvSAZ/QTL4C5LBX5AM/oJkPu7+/qx9EQAvkhcDXvsiAF4Ef0Ey+AuSwV+QDP6CZPAXJIO/IBn8BcngL0gGf0Ey+AuSwV8QzcNfTs8CqeAvSAZ/QTL4C5LBX5AM/oJk8Bckg78gGfwFyeAvSAZ/QTL4C5L5ufv7sfZFALxIdvd3v/ZFALwI/oJk8Bckg78gGfwFyeAvSAZ/QTL4C5LBX5AM/oJk8Bck833399/aFwHwIund38+1LwLgRfAXJIO/IBn8BcngL0gGf0Ey+AuSwV+QDP6CZPAXJIO/IJnPv7+/cO2LAAAAAAAAAAAAANgeh318Tu6c4uUmYW8aksuCFwDbILimdYcu0TIfq/M3Jw6WuQDFIbzGd0Kqv8skiDsCZYsYbPR3wZ30+3Pjh7voDwemYK8VKF2gN7L4e1vmERBl63b98Dan9Qyy+XtbIAoOO/Y+uM7/wTAZz8fnOQ7vxJflBFYdXuNPQXgtpMpm7wi7YZPiQhcshlLfpBZwVg/VuQXW+Fu7pu4L0/L85aaX+/DtlDz/jcBCuBZ3bK//88zPcJOmyqxs3g8v9c2uh/JP+wSBRXE03a7ihdu899Hkb6AeALOOIMvgoRnthsU8YjrnR8NUpMbephD4NOvHG8OEq0ataQkLTw+tvwfnJb44TEJkeVgWN7h9f3fHvZ7oz0CStvkq/1tGf49zO1T08LqvXgjMYob7ZLYgV93H8/MPjSW6d6gezkZ/1SvJtN+2Tmz55V7m/nCYhrBtaINAyfa8xRvyt/hunYdL/UWyMFznbL9PamHjOYe2uL+mX9b7ROZP3pXR93yfDtOQhw/mWSoVhF6qf3f9/emEtgVnQywc56Fy9YsxWhRa/Xqf1NL97sq4ijk0tznkd8kySFK3ccYrMFqquv7ZcniC1i9T//ELJeHBi0R9kqjbOONA3ORvJ/SemH2Pn0cCCAHEfXpGc3dDJn8vPf3ju5zs4UNvZAUukPSFB3NHoQZ/D0Wg/RxY/lUjv9okcjuqVgz63N5vfiEAdp/euzj3LIDG3yC8lvlvte638ncU2VP2JPf82Phc2+xc3PoBgYNkfXdx9lUEq3213u81fzvsG59r+1775vvBRfrtXNPfelw+sb9qeGiLi2aPnOB9XPY3aQyu6jkXcW06uT7lPMLffjvxVwDu+pu8N+dxqOn+WdO97NLxdxM4Gf+mySmyTGxNAv5ugnz+wTbJqeLE1gKdKX9yb8qfvHRWl6tfxEqWHPF3C6iJKssbWnfxubHzTarfzFqW6H6XDdQ3ZwHZaXrX31QeVjULujF/mf8VjupkLJt0VH5lFY1ux9/eyEl9c9bfnKYvC2vXlE3j768pf/LLEAurld6Pxges4G9v/oOajVvuguAVelb51SLUnBsZ1/K3LzHp0PfLBhew70Io8iPm3Me4lr99T55rj9/gBPY027AVPszAWv4WTx72XwgntvRDxQ7zWTuh1fxVTx5TZl1E+CCDogPWTkEsUcNpNX+tlQPYfyyGos6ZppMtqnjMm0K4nr+RJXSi/oMcioJ17UmGoJgrm/kZup6/lspZZ7pfORTPylvauF1lAdW5yzCu6G9ZubA9vUL9M1mUhSZvSZn2dbxWVcnnTgRb0d+qRKyh/iSTD0I41mroP87Pev6rU5txctb091n/93lmS1X/l7kzOQQ1ZessUEV/VX9t9dcpPimJSGNvtsTmxXX91X7v/DFE7yuLIG4dxJP6sXZ61D56OH9IIPtTtQMyif15fHL+24Y4PM7P8u32heeawksdnAswHZx/DFvk39oXAPAyx5QMYBDL5+/t9jP7Cg7APPzLp2LWvgoQw+Gx8dOhDi+fG/5c+ypACnkmkUNTAMHP/Xp+HbogcBrX/FX7rzkIGYbhnL+7r3XTM0AU7vmbb2ElgoBBuOfv7iOPIHxbUYeXCNzzVx1c8Lf2VYAIHPQ3+H5EEB/9bwRw0N/d8ffWPAoJwICL/qpSlV9rXwUIwEl/VaEIToKDXtz0N48gfoggoA83/d195hsz1r4KcJ6HJy4O9f97XBi57NCDq4HmIU/kcSgzDpzEVX9VKvB/a18FOI6z/qqKqiTygBV3/SWRB/r5cdZfUoGhn8xdf1UqMDWBwYLL/qoIgprsYMZlf3cfJPKAHaf9VanAphO3ABz3NyCRB6y47S+pwGDHcX/VaaUk8oCBzPU0mZREHjCTuV6vSaUCk8gDWpz3V6UCU9MPtLjvLzX9wEzqvhsHavqBCQH+qiPjSOQBDRL8JRUYTIjwl1RgMCDCX5UK/M0yHLSR4a869puaftBGiL95BOHkRn9YFSH+7kISeUCDFH9VKjA1/aBJKmZmKk/k4XBOaJCKGRdR0w+6yPFXpQKTyAN1LnL8paYfdJDk7+GXmn7QRJK/1PSDNqL8VanAMqZLYBFk+cvx3tBElr+kAkMTYf6qmn6SLhhmRZq/1PSDOtL8Vcd7k8gDCnH+qlRgEnkg5yKuwGN+vLfTNa9gOS7yyouRCgwVf/L8Vcd7S7tomAWJ/lLTD0pE+ktNPygQ6e+jpt93SgcMQv3dJb9Ctu3BvAj1V8y2U5gX/AXJ4C9IBn9BMvgLksFfkMxnmqYCj3jHX5AM/oJk8Bckg78gGfwFyeAvSAZ/QTLf+At3gvCOwERwAcc2w8wcT3k5vLwi00nYfl789Z0ouzWJJe3oxV+/2bftFVaYFH99Jjhr7H2EEWIiYfz1mCCtKZskSc1gKaV18ddfKn2zU6HrIUqECYy//lLq2zgLMExECYy/3nJSnl7a0w1xEVCImIbAX18JlaaampORoFkI/PWVzKRvJbCESQj89RTlqOEU1ovZbcfAX09JbYO0g+qABUTAD3+pf+YfRzV2M72sxnDXJa/oNR7+CkvZgAlQghrvvOqAG+erpR3mv8p+8NdP1Cyv+fW0E0B0V5lnv8gB4K+f2MOH3e7a6Z/xF5wh7Jvh7b5h32H2qxwA/npJZA9/d0V3a5hecwj89RI1fLOdvprhLzhL3Du/2zfAcwT89ZJ+O/EX3AV/QTL4C5LBX5BMjL8gmP75M+Z/wV32fesXQf4G9zOAf/DXR1R+meW8i94FZkfoW0aEbZLracmAPPUGGG6Av36iCu+Yd7hlMoZv+Ospe3t8EAoJf/HXV27WDIikNz/NEYRcJkxNbBvBqd45W/aKXgJ/PUVNkOnvffFapHvNMfDXV4oyUZod9EVdPwndL/76S1G+rzNHFphecBH89RZVAqIzCVHURbMtbjgE/vpLUebsltUC3ap8qmVvskvgr8eUAt9tjfdhGF7P1WkYiYDaUQ/w12fCmwEBKxeKx8V+rH0RsBaHRKuvnB7NMIUCvqA5QEvSAXD46z37S13eNBJkL/7CgzA+JXfO8V6UvDv8BdngL0gGf0Ey+AuSwV+QDP6CZPAXJIO/IBn8BcngL0gGf0Ey+AuCOeIvCAZ/QTL4C5LBX5AM/oJkNuVvEN4xl7SF7bEZf4+naidtepKzfRbeYyP+Ru1NtJK20MLrbMJfzRZwCUePwPtswN/grLH3EUYQCW8f+f6W1T5zZZOkXk9G9PeCIYj3t9I3OxVf4xAlCOwL4v0t9W3Uuq+KgEr+ZjCA3F/BY3V1zN7t0v4KRXH8VPBXgwHk/q59Ea9T1P/UVPuMmIXwAeH+ZiZ9K4GZhNg0sv1Vjib6Fy9mt2EryPY3tQ3S1BHrkoN76EW0v+oAHeNBI2oMd13yimBhRPurBDUm66gOOF3yimBhRPurZnnNr6cEEFtHtL/28GG3u9r7Z5CPZH/Dvhne3jeAdCT7G/V2r7bpNdgCwvw97vf76rQ6NXyznTKd4e/GWdDfh3sN4r8Wl7SFLi/9lpX/wbh3eNY3wAPpDPT3o+3eqe1e0nbvV+feFFT+9tuJv1vn4W/WVi+12LM++AslwVd6y2brKecBf0ERxHd1v9fQ96fd4//Xjkf+2hFL92RI/PWbf2p4pB0kmfntRBsd9f611ZsniTHGX48Jiyj3166ewztw+ufP8jcwf7ZBDuWZ44nDgvawz7+AZf0iyN9ABvDmCP6KoDf96H+zs6j8spP5Dawfb5PPH2Vv9m/tK3kP9RM0v37qDTBAHvvvIvA9Sc8sVIV3zIPDjOHb5jiWpRG+5O9s3Nvjg5Dwd2sEX0Xg+98mnqrqu5geI0nf+A6EERf2ZlH/eyUQ20ZwqnfO9C+CPMoiub+bGZGrCTJ9F1u8tpFfKlTrFWfpw7YaRZkozRx2UdeP7ncbHL7kr1foKH6UnWg+ML0AAnmuV2xtNHMsfpatkKioi2Zb3AAx/CvWK36Er1foKMqcNYakVfnU2t7k47aeOx7xUSXqbCjwfVIKfLc13odheD1XCXXJ8wsH37+M5CRiW684XM/q1eRylds9hTcD9ZWLR7rS32qXCC8SnMvAtzuQiZrbhDLdkVO53voERMtLC3NIbjrqof5nuz8GCcTmRJ3OiWk33aFpIvzVHqDV/C6BUjxjOkIQlvWKQN9lZe0oQoi/d4Mv9e+RRp1folp6/N3gCHajHP8rbuZX96l5vJloDXLE+HsnjE/JnXPc3Sn34OPH1BrgHtb1iqe+53x/UBDGqV5gSf72cVDfkWMN3Sc4FcO2b916RalvI4unmjNtCLwlf3c79Zv+kbznxAuKjcW3H22iTrm02k5fLydS6x32tvzd/VM/683kL22SvvWKkzbS3VX9cj3lZWP+7o7ql81EmrNUk6GJIc4LTfpWAte6p635W02kyV2u2TQDNharG6g/1USlfNc2NGzO3/Lxw0Sai1jWK0pUH2vatNuWe4P+7vbqJ86+ONcYtLFY7dk1pVEeWhHwFv3dHYuJNIJglxi4sbgzRGtyaU5BbNLfXaAm0lhNdoegXK/4zz4yUeGDOa07ao7gtulvtZrMRJojlBuLv/uSXNWRUuaOR+16rLTcqr+7UE2ksZrsAvb1igYqPrC8oVlydLP+lqs4KRNpazNqY3FqD3/L6aXyrm7X33Ik+7u1HYHCGFkI9dZnXTPA0KdZPpHsb7mazB7P9RhdCDV/s23qUy3PlTPAm/aX1eS1Gb2xWE0/2MLkZs3cbfvLavKqvFAItb+is1f+lgV8WE1enpcKoeJvm3JbxtrX4Rm2jcUWXvJ3o/MPBWzLWIFXC6EG+NshYFvGwrxRCDX//10sb1ALyI35s437W06ksZq8DG8VQs36rFMDGh/WL2qETKQtxZuFUFk/1lJMpH0zkTYv9o3FA+g9s1INZsp/+eLvbvennmlMpM3J+4VQ+/In983X/fF3F6megSJ/szFJIdQ80jMn8Jwb4a9P/u6OajnoP4LgWajWKy5vzVSq/DLTtJsX+4dMBGpwwLaMGXhxvaJLYaihk1F38DmR5JW/FPmbjQEbi4eiIgR9CpoP++etUORvDqIyUWeKGXbVAftav6QPVpMnx1YI9RVik8Bl/ajax3jnb1Xkj20Z0zDDwW3FNEZ7+a6s31cPsD30lyJ/E/L2eoWOIoLwr37qQNiWMRUjNhaPoapfnZ069aubAzsv/WVbxjTMd3DbsXn0UA3B5wdMCdsy3qa3EOo7BBetvZ2pe1/9LYv8sS3jRUZvLB5LuKXzs2aAIn/vMOF6hZGoubktu0o9v3AeyiJ/bMsYzQsbi1/iEG3h/NjZoMjfS1Sx6ZiNxTADFPl7heNv+n2npxAqLEBR5I9tGWM43hssHzqwhLk+xbYMbsVw7v4WcwMYvDrBV/r9e/sxnRcCXR6rY8UADoPXJUryIdy3dccrNHn4+5ycxeC1OJ7LMhsZ/o4gz07Y/2DwmgSfzyX2x/9a+3oEkfu7C/67LWPw59/fHzu+muwvv7WFnV/8HYPy91njbGaDH73L52z/dYEcT/Wl9d9TeT9gGFV7HevtOJvB+Fsn+Kw999TaBf6O49le1aFucxqMv08+vn4b9uZ7XvB3HPX2in5nNxh/Cw6nVkpe0dz4O45Gex3+0zXplOBvzr92qfkq9Q9/x9Fqr9PvvAbj773JW3FDI/UPf8fRbq8P/WNtKrz39xB3U/nrKWf4O45Oe3U2+0xqsOf+duKGW7tUAf6OQ9Ne/9qPtwkN9tnf49dP291uqQL8HYeuvQ6dDcOTGeytv0Gs24XdLa2Mv+PQt9dfp6UnMthTf4vUsha6HVv4Ow5De7WHcVMZ7KO/x7MmbrgZdmzh7zhM7RVoRhoTGOydv/XUsgaGCnP4Ow5ze31qHnlvG+yZv43UsjrGCnP4Ow5Le2nrPr1psE/+Hv80VVtyLCfi4O84bO0VnHWN/5bB3vjbTi2rYS20gb/jsLfXXjvyeMNgT/z9MMUNt75CG/g7jp72CvS9yMsG++BvJ7WsTl+hDfwdR297xfqe5EWDt+/vP2PccBtSGBx/x9HfXkdDb/KSwRv3N+ykltX5GfDN8XccA9qruTHjPYO37K8utazGsMLg+DuOQe0VmXqV0QZv119dalmdgfUR8Xccw9rrYAzqRhq8UX+1qWV1BtdHxN9xDG2vkzGwG2XwFv0N4m9T2xSMOM8Jf8cxuL00GT0vGLw9f/WpZXWGDNsq8Hccw9vLcArLOIM35q8ptazGyPOc8HccY9qrszFjvMFb8teYWlZnbFl7/B3HqPbqbswYa/B2/I0sS8QV/42u9Ya/4xjZXt2NGXWD+88v2oi/5tSyOt/dU8v7/8v4O4qx7WUZxj3uWJ/BW/B3UNzw6jG8+DuO0e2l25gx3GD5/tpSy2q8egwv/o7jhfbSbcwYarBwf62pZXVePo0Mf8fxSnuZD+TuNViyv4E1tazO+GFbBf6O46X20m/MGGKwXH/tqWWNL//CsK0Cf8fxYnvpN2b0GyzU357UsjqvDdsq8Hccr7aXYWNGn8Ei/e1LLavx6rCtAn/H8Xp7GTZm2A2W529valmdy9uHSOPvON5oL9PGDJvBwvztTy2rk05wshL+juOd9jJuzDAbLMrfaHjccCd7Z9hWgb/jeK+9jBszTAbL8XdAalmdN4dtz4/F31G82V7mjRl6g4X4q692aubtYVsF/o7j7fYyb8zQGSzC30GpZXXeH7ZV4O843m8ve0ZPy2D3/a0O0h7MFMO258fj7ygmaC/bxoy2wY77OzC1rE7WnzQ6BvwdxyTtZduY0TTYaX8HppbVmWrYVoG/45imvawbM+oGu+vvcWhqWY3f81TDtudl4O8opmov68aMJ476Ozy1rE4y3bCtAn/HMVl7DRvGOelv+yDtYUw6bKvA33FM1149GzPW9DfcF/wVfKUF+Y/ue9RKhWLiYVsF/o5jyvbq2ZiRqzK9vz1yDiId2QFPPmyrwN9xTNpefRsz7iOekf5OIecQfscYPMOw7dmEjw+Y7b++PaZtr96NGQ+BK3+XknMQP4NnfucYtlXg7zimbq++jRnfKoZwke9BF5Z+TNhaXfB3HJO3V8/GjFTFEG7SP5Cba9hWgb/jmKG9rBsz0tsKscFgesLg39mGbRX4O4452su2MSO9jc4wWBSLwXMO255t9/ik+T9mM8zSXpaNGd/Ohr8lpuszHFg8MfjrBMaNGT8Oh785mf75MPOwrQJ/3cC4McP17jfV+Tv7sK0Cf13BsDHjlUSZJdHMoi0wbKsIHvPgy30cmNFm9Py63v/+tn92v18LDNvAQTQbM5zXN3uE6HWWGbaBk7Q3Zvy6PPmbkzYj9KWGbeAmzY0ZP87r+5D3ecnLDdvAVWobM7IX8mznJCvThb7KBKL9I32j9Pc3JvB1m/AaJ3cucTRjSlU1jMsWnfnVyamw7pvIyviBYZvjhI1cx+ykUfj4sFs/gLG81KbYmPE9ob4/r8k5gHL8xrDNbcLubp9zx+Aw/7tWCctLXR4bM4br25UzKuRcYDD1eFj8rjZsO4bxnWs4Z4bxFjCUHGnP00/l7+5YrWqtKucAHv7+t8qwLYhqNyU7606DPDzsjrVyW17aHsYEsaQZ803mrxweLTP8OPLpCOL2vdDUY/Xwfug4Vm2UxlEYhtGpmjJKGwJ72F4r+XvV9SZZu3k9vB8aKn1rj5tDOZhrCOxhe63ir7GCXCug8/B+dAmK4OHSjBXKlYak9jcP22sNf4Pniklyvkex5+e/z403eng/uhS/9W50de785j1srxX8rfRNorJLCaJMJ7CH96PD3qRvJfAzqvCwvVbwt5jJbEW7USHwqfY3D+9Hh8yob9mSz5+8h+21vL/FxENnc10Z0NWuxsP70SbqBLk1Dq0O2MP2Wtzfoy7QzSniiuwptof3o03SChGaxM0I2MP2Wtzf9jOvRjHSfg5IPLwfLQ627vfeYuoXX/7Tw/Za2t+w2eK6F29B899e3Y8WkSX6faAmJ8rcFQ/ba2l/z9Z2vDRvl4f3o8W5+YPuoPy+Fv/ysL0W9rf1wGujHpdp+U8P70eLrNEeXVR7Xop/edheC/u7b/QXXdLGcMXD+9GioaeOrN4feNheC/t7avjZ5doIIDy8H03Ut7SVM1DD4cbb00RDutH2Wtjf1Bo+lAFEOTuBvz2Pq3IG7VB/u4XttdfC/uataJwOKt9QBnze+xv1fsu4/g78nZnjK8/Dc6zBPo+xFeLeb4m/S/rbH8+pADmov92r+9EEf/tY1t8992MUL/l7DTVcN9pey/pLfzKOl+Jfr8YL+OsyqgHMy8faeAt/Z+Mlfz0ev7003sXf2eiPwnx/HrbIv6Vt/S1/Qzkh6WF7rTH/YPs8zXy8V/ejRaN71eD9eo9r82e+Pw9bqPDWXNvL+/X2NdbftMnrBY2EKw/vRwsVAJ+Mr6f14ZuP7eVY/oP3+YBtsoagbcJmfOxhey3s77ke3mrwPh+7TWuHW4ukET742F6O5f9eGn57eD/aqAeSIQJW0e/zceZhey29f6jV4i3Yf9FBdcCZLoIotnI/lzc8bK919r+ZVpTOze7Zw/vRodiUnXYFLvSt7S7ysL2W9rcouaEfkLD/WEPRKFk7hCgKS9VDCw/ba/H6D6qL1aawU/9BS1kpuXG8TlVAtf4o87C9Fve36IDN9Xdu1N9pUR3cciq+b7B//qn+Rg/ba/n6Z0Xp6gv1zwZzulVkSZLUThNozuR42F4r1J8sCtoa6k/WO2YP74ee6Kandec8bK9V6/9WH/ys/9sIjD28HwYOuor1nRKeHraXY/XXL76fR2IkbBvcPf7Nx/Za5/yW801PK1HFw/th4XCtFM7OkW4GMsi3umnnJi0viWal84f2uhPNOH+on4eFHJX6hPPfQDJr+Xunef6mTkXO34QeVvR3x/nH8C7r+gvwHvgLksFfkAz+gmTwFySDvyAZ/AXJfOz3++2tigMAAAAAAAAAAAD4zTGKL4+zneMrO1JAGIdTYwuadv9DfnK5vtae5SWAuTl0dwAnXYPzv+trJ1teApiZzubJnE5JJ/wFBwkSrb7dGp34C+7xLH+TnR5nPe/jp89NgfEXnKPS9/yU9VmNoSEw/oJzFFUX0mZXG5QDunoMjL/gGkX53W796KJGZ70AJP6CY5jLn5cC13Zj4C84xtmob3VU0/MP+AtuYT3+pzis9Lmqhr/gFnHL0CZhKwLGX3AL+3HQxXHmVTU9/AWnOFii3wdqcqI61AZ/wSmi9gxDC+X3pfwn/oJTnO3hQxlAlP/CX3CKpKGnhnMjAMZfcIrOClsbNT8R1t+eJTrwF5anGd5qCBvza7ce8BeW5NBrXdh4B/6CS4S91uEvuAv+gmRe8vcc6sBfWJyX4l/mz8AVVIdqecM+f8e+/nb8BVfIrRs5/4u/4Aq962+XxhvwF5xCda+Wamd5fmW1AwN/wSlUeHs1vn5sBsj4C26Ra5caXz41hm/4C45xbozP2gS3ZnyMv+AW7R1uTeLW/Br+gmMklghYRb/P7W/4C66hOmDtFERRGK22vIG/4BoXk8BlXb9n94u/4BzFGK1TA+JY6FsPLfAXnKOIIG6XWkf7LKDaSI7AX3CPok7f3dXy5PnwVP6pOTWMv+AglcCPqbQkSZ//Oje31uMvuMixcXTWk7aP+AtOEugOIEo6cxL4C47SOQDuollUxl9wliA6V2HE5XrQvSXf6aZ9xfYSwFIcHxqufREAAAAAAAAAAAAAADb+B4a+JPHBMzuPAAAAAElFTkSuQmCC;" vertex="1" parent="1">
          <mxGeometry x="598.17" y="440" width="123.65" height="104.87" as="geometry" />
        </mxCell>
        <mxCell id="7mjdrCKgkBbXvNlTKw9o-31" value="Hexokinase" style="ellipse;whiteSpace=wrap;html=1;fillColor=#dae8fc;strokeColor=#6c8ebf;" vertex="1" parent="1">
          <mxGeometry x="210" y="320" width="110" height="40" as="geometry" />
        </mxCell>
        <mxCell id="7mjdrCKgkBbXvNlTKw9o-32" value="" style="endArrow=none;dashed=1;html=1;dashPattern=1 3;strokeWidth=2;fontSize=16;exitX=0;exitY=0.75;exitDx=0;exitDy=0;strokeColor=#33FF33;" edge="1" parent="1" source="7mjdrCKgkBbXvNlTKw9o-6">
          <mxGeometry width="50" height="50" relative="1" as="geometry">
            <mxPoint x="660" y="360" as="sourcePoint" />
            <mxPoint x="360" y="240" as="targetPoint" />
          </mxGeometry>
        </mxCell>
        <mxCell id="7mjdrCKgkBbXvNlTKw9o-33" value="" style="endArrow=classic;html=1;fontSize=16;dashed=1;dashPattern=1 4;strokeWidth=2;strokeColor=#33FF33;" edge="1" parent="1">
          <mxGeometry width="50" height="50" relative="1" as="geometry">
            <mxPoint x="360" y="240" as="sourcePoint" />
            <mxPoint x="360" y="330" as="targetPoint" />
          </mxGeometry>
        </mxCell>
        <mxCell id="7mjdrCKgkBbXvNlTKw9o-34" value="" style="endArrow=none;dashed=1;html=1;dashPattern=1 3;strokeWidth=2;fontSize=16;exitX=0.658;exitY=1.008;exitDx=0;exitDy=0;exitPerimeter=0;strokeColor=#33FF33;" edge="1" parent="1" source="7mjdrCKgkBbXvNlTKw9o-14">
          <mxGeometry width="50" height="50" relative="1" as="geometry">
            <mxPoint x="660" y="360" as="sourcePoint" />
            <mxPoint x="279" y="300" as="targetPoint" />
          </mxGeometry>
        </mxCell>
        <mxCell id="7mjdrCKgkBbXvNlTKw9o-35" value="" style="endArrow=none;dashed=1;html=1;dashPattern=1 3;strokeWidth=2;fontSize=16;strokeColor=#33FF33;" edge="1" parent="1">
          <mxGeometry width="50" height="50" relative="1" as="geometry">
            <mxPoint x="280" y="300" as="sourcePoint" />
            <mxPoint x="480" y="300" as="targetPoint" />
          </mxGeometry>
        </mxCell>
        <mxCell id="7mjdrCKgkBbXvNlTKw9o-36" value="" style="endArrow=classic;html=1;dashed=1;dashPattern=1 4;strokeColor=#33FF33;strokeWidth=2;fontSize=16;entryX=0.277;entryY=0.125;entryDx=0;entryDy=0;entryPerimeter=0;" edge="1" parent="1" target="KSHk2mPukb79ZtWoa8dP-1">
          <mxGeometry width="50" height="50" relative="1" as="geometry">
            <mxPoint x="480" y="300" as="sourcePoint" />
            <mxPoint x="710" y="310" as="targetPoint" />
          </mxGeometry>
        </mxCell>
        <mxCell id="7mjdrCKgkBbXvNlTKw9o-37" value="" style="endArrow=diamond;html=1;dashed=1;dashPattern=1 4;strokeWidth=2;fontSize=16;startArrow=none;startFill=0;endFill=1;strokeColor=#FF3333;" edge="1" parent="1">
          <mxGeometry width="50" height="50" relative="1" as="geometry">
            <mxPoint x="360" y="480" as="sourcePoint" />
            <mxPoint x="360" y="350" as="targetPoint" />
          </mxGeometry>
        </mxCell>
        <mxCell id="7mjdrCKgkBbXvNlTKw9o-38" value="" style="endArrow=none;dashed=1;html=1;dashPattern=1 3;strokeWidth=2;fontSize=16;entryX=0;entryY=0.5;entryDx=0;entryDy=0;strokeColor=#FF3333;" edge="1" parent="1" target="7mjdrCKgkBbXvNlTKw9o-1">
          <mxGeometry width="50" height="50" relative="1" as="geometry">
            <mxPoint x="360" y="480" as="sourcePoint" />
            <mxPoint x="710" y="310" as="targetPoint" />
          </mxGeometry>
        </mxCell>
        <mxCell id="7mjdrCKgkBbXvNlTKw9o-39" value="&lt;i&gt;(only in muscle)&lt;/i&gt;" style="text;html=1;strokeColor=none;fillColor=none;align=center;verticalAlign=middle;whiteSpace=wrap;rounded=0;fontSize=16;" vertex="1" parent="1">
          <mxGeometry x="380" y="460" width="130" height="20" as="geometry" />
        </mxCell>
        <mxCell id="7mjdrCKgkBbXvNlTKw9o-41" value="Fructose 6-phosphate" style="rounded=1;whiteSpace=wrap;html=1;verticalAlign=top;fontSize=16;" vertex="1" parent="1">
          <mxGeometry x="560" y="640" width="200" height="160" as="geometry" />
        </mxCell>
        <mxCell id="7mjdrCKgkBbXvNlTKw9o-47" value="" style="group" vertex="1" connectable="0" parent="1">
          <mxGeometry x="320" y="333" width="130" height="15" as="geometry" />
        </mxCell>
        <mxCell id="7mjdrCKgkBbXvNlTKw9o-29" value="" style="endArrow=openAsync;html=1;fontSize=16;endFill=0;" edge="1" parent="7mjdrCKgkBbXvNlTKw9o-47">
          <mxGeometry width="50" height="50" relative="1" as="geometry">
            <mxPoint y="1" as="sourcePoint" />
            <mxPoint x="130" as="targetPoint" />
          </mxGeometry>
        </mxCell>
        <mxCell id="7mjdrCKgkBbXvNlTKw9o-43" value="" style="group" vertex="1" connectable="0" parent="7mjdrCKgkBbXvNlTKw9o-47">
          <mxGeometry y="1.5" width="130" height="13.5" as="geometry" />
        </mxCell>
        <mxCell id="7mjdrCKgkBbXvNlTKw9o-30" value="" style="endArrow=openAsync;html=1;fontSize=16;exitX=0.023;exitY=0.688;exitDx=0;exitDy=0;exitPerimeter=0;endFill=0;" edge="1" parent="7mjdrCKgkBbXvNlTKw9o-43" source="KSHk2mPukb79ZtWoa8dP-1">
          <mxGeometry width="50" height="50" relative="1" as="geometry">
            <mxPoint y="12.5" as="sourcePoint" />
            <mxPoint y="13.5" as="targetPoint" />
          </mxGeometry>
        </mxCell>
        <mxCell id="7mjdrCKgkBbXvNlTKw9o-58" value="" style="group" vertex="1" connectable="0" parent="1">
          <mxGeometry x="270" y="600" width="10" height="120" as="geometry" />
        </mxCell>
        <mxCell id="7mjdrCKgkBbXvNlTKw9o-56" value="" style="endArrow=openAsync;html=1;strokeWidth=1;fontSize=16;endFill=0;" edge="1" parent="7mjdrCKgkBbXvNlTKw9o-58">
          <mxGeometry width="50" height="50" relative="1" as="geometry">
            <mxPoint x="10" as="sourcePoint" />
            <mxPoint x="10" y="120" as="targetPoint" />
          </mxGeometry>
        </mxCell>
        <mxCell id="7mjdrCKgkBbXvNlTKw9o-57" value="" style="endArrow=openAsync;html=1;strokeWidth=1;fontSize=16;endFill=0;" edge="1" parent="7mjdrCKgkBbXvNlTKw9o-58">
          <mxGeometry width="50" height="50" relative="1" as="geometry">
            <mxPoint y="120" as="sourcePoint" />
            <mxPoint as="targetPoint" />
          </mxGeometry>
        </mxCell>
        <mxCell id="7mjdrCKgkBbXvNlTKw9o-59" value="" style="group" vertex="1" connectable="0" parent="1">
          <mxGeometry x="655" y="560" width="10" height="80" as="geometry" />
        </mxCell>
        <mxCell id="7mjdrCKgkBbXvNlTKw9o-60" value="" style="endArrow=openAsync;html=1;strokeWidth=1;fontSize=16;endFill=0;" edge="1" parent="7mjdrCKgkBbXvNlTKw9o-59">
          <mxGeometry width="50" height="50" relative="1" as="geometry">
            <mxPoint x="10" as="sourcePoint" />
            <mxPoint x="10" y="80" as="targetPoint" />
          </mxGeometry>
        </mxCell>
        <mxCell id="7mjdrCKgkBbXvNlTKw9o-61" value="" style="endArrow=openAsync;html=1;strokeWidth=1;fontSize=16;endFill=0;" edge="1" parent="7mjdrCKgkBbXvNlTKw9o-59">
          <mxGeometry width="50" height="50" relative="1" as="geometry">
            <mxPoint y="80" as="sourcePoint" />
            <mxPoint as="targetPoint" />
          </mxGeometry>
        </mxCell>
        <mxCell id="7mjdrCKgkBbXvNlTKw9o-62" value="Phosphohexose&lt;br&gt;isomerase" style="ellipse;whiteSpace=wrap;html=1;" vertex="1" parent="1">
          <mxGeometry x="640" y="580" width="145" height="40" as="geometry" />
        </mxCell>
        <mxCell id="7mjdrCKgkBbXvNlTKw9o-65" value="" style="shape=image;imageAspect=0;aspect=fixed;verticalLabelPosition=bottom;verticalAlign=top;fontSize=16;image=data:image/png,iVBORw0KGgoAAAANSUhEUgAABAEAAAKbCAMAAACzcGM1AAADAFBMVEX///+AAAAAgACAgAAAAICAAIAAgIDAwMDA3MCmyvD/8NT/4rH/1I7/xmv/uEj/qiX/qgDckgC5egCWYgBzSgBQMgD/49T/x7H/q47/j2v/c0j/VyX/VQDcSQC5PQCWMQBzJQBQGQD/1NT/sbH/jo7/a2v/SEj/JSX+AADcAAC5AACWAABzAABQAAD/1OP/scf/jqv/a4//SHP/JVf/AFXcAEm5AD2WADFzACVQABn/1PD/seL/jtT/a8b/SLj/Jar/AKrcAJK5AHqWAGJzAEpQADL/1P//sf//jv//a///SP//Jf/+AP7cANy5ALmWAJZzAHNQAFDw1P/isf/Ujv/Ga/+4SP+qJf+qAP+SANx6ALliAJZKAHMyAFDj1P/Hsf+rjv+Pa/9zSP9XJf9VAP9JANw9ALkxAJYlAHMZAFDU1P+xsf+Ojv9ra/9ISP8lJf8AAP4AANwAALkAAJYAAHMAAFDU4/+xx/+Oq/9rj/9Ic/8lV/8AVf8ASdwAPbkAMZYAJXMAGVDU8P+x4v+O1P9rxv9IuP8lqv8Aqv8AktwAerkAYpYASnMAMlDU//+x//+O//9r//9I//8l//8A/v4A3NwAubkAlpYAc3MAUFDU//Cx/+KO/9Rr/8ZI/7gl/6oA/6oA3JIAuXoAlmIAc0oAUDLU/+Ox/8eO/6tr/49I/3Ml/1cA/1UA3EkAuT0AljEAcyUAUBnU/9Sx/7GO/45r/2tI/0gl/yUA/gAA3AAAuQAAlgAAcwAAUADj/9TH/7Gr/46P/2tz/0hX/yVV/wBJ3AA9uQAxlgAlcwAZUADw/9Ti/7HU/47G/2u4/0iq/yWq/wCS3AB6uQBilgBKcwAyUAD//9T//7H//47//2v//0j//yX+/gDc3AC5uQCWlgBzcwBQUADy8vLm5uba2trOzs7CwsK2traqqqqenp6SkpKGhoZ6enpubm5iYmJWVlZKSko+Pj4yMjImJiYaGhoODg7/+/CgoKSAgID/AAAA/wD//wAAAP//AP8A//8AAABYWvgoAAAAAXRSTlMAQObYZgAAAAFiS0dEAIgFHUgAAAAJcEhZcwAADsQAAA7EAZUrDhsAACAASURBVHic7d3bWqs6FIZhz3r/t0hhorSWhehTz1iWsCcJLSRsku89m7bTVi0/kDGSvL0BAAAAAAAAAAAAAAAAAACsLiyG8q3fEoDVkACAz0gAAAAAAAAAAAAA4ODC5JaWtb70Gp+3fjMA1hQkea/in8VbvyMAawmSUdNPkZMBgB/CfBwAj7uBYOs3BsC+WHr8P4RbvzUAtjUBkF+ixwjg+XTJiQDAE3UApFH3izkRAPignvh3H3z9Ul0XMBYAuCxTneura4PrBu8JwEoS9cV+FQGR5CEATgh0d/viRiBd+S0BWM29PMgv8ge18QDg+MSQv2q0L2YkAHBZOHGIi4uAFd8QgBWJm4CT8vErY4GAw24T5/hT+Xiy3hsCsKLJwX6qAYC7gsmRvoyBAMBZ0eRF/tRtAoDjEgmgWwkkoSMAcNZ9cqg/oRgAOGv6+CYBAHeRAIDPSADAZycSAPBYJF0dqOtKNRBw1nmyHyAlAQB30RUM+GzqFB/qFhABcHBTs4MvE48DOLLzxNSgnGEAwGVi7p9qr3BWCQPcJo7xm/zBIKcbAHBbrpkeyGrhgOuqbUHYMQTwU6qKgCoAFHcIAJwgygHKnUOVewkAcMKpOtTZPRzwUnW5XxRZEj3qgufTpT7+tSuIAXBCfRUwxhUA4IEwkx7/qapTCIBb7uPjP+cOAPBGcM/753+Of8Av4f0mmgPSa8z1PwAAAAAAAAAAAAAA7gh+/2z9JgBspNwgYOs3AWAjJADgMxIA8BkJAPiMBAB8RgIAPiMBAJ+RAIDPSADAZyQA4DMSAPAZCQD4jAQAfEYCAD4jAQCfkQCAz0gAwGckAOAzEgDwGQkA+IwEAHxGAgA+IwEAn5EAgM9IAMBnJADgMxIA8BkJAPiMBAB8RgIAPiMBAJ+RAIDPSADAZyQA4DMSAPAZCQD4jAQAfEYCAD4jAQCfkQCAz0gAwGckAOAzEgDwGQkA+IwEAHxGAgA+IwEAn5EAgM9IAMBnJADgMxIA8BkJAPiMBAB8RgIAPiMBAJ+RAIDPSADAZyQA4DMSAPAZCQD4jAQAfEYCAD4jAQCfkQCAz0gAwGckAOCzc/Zn6zcBAAAAAAAAAADcFN2T9M8tic9bvxVgE2FySx8V+SK9+nYURNeiI7949uMDb0GSdw+CIotXedmkGMvSy7oJFKWj93AlA+CTQHIk5mtkgCwBxHVItMKrl4Kb9A0ka70+sLkwlx4EaWD9lZUJUBQ3+6/+oPjZV/npgV2IlUdhaPulNQlQZGscgmH7ckkcRVF8yVZ9fWBzTQDkl+hx+3s+XZrzou0I0CVAkVp+8bdOACTtjf+5HhYkAuCDOgB6d95xnQGWI0AkQP9r4ak+BO92X/ztLah+zMEdxzlbLYKAjYWKo+1SXRfYPQ/KEqDzpmyfhKtBwPGYZ5VBDAfCeZnqXF9dG1ytvroiAeoIsFyOOKlfpYoAioJwXKK+2K8iwGpZTpUAb3dxdW7ztd/eck3MpCvkH7C1QHe3f7F/M6xMgLdC+Ygxse7nO3MRAA+IU+1F/uAoHn4LU+rvqU4AcYtudSAg1R7j4q0xEgCn5drjLB5cCa+ZAOIRm7cg4iyvvMQR+ZdbfAPA1sLBIT5U9A9QtxJA5Jt6sPHWe6eAg8RNwEn5+LV/GK6fADZvw8UPp77PEAlhvScB2M5NeQAKolzW3AuHJ1Pq406dAOnEW1uuvAPSrE0sbgMslyOALZWfcd1g/+QTFlImgDj8rK4dPnmAlxHBQADcJQ4zXc07s3wmViaAeEBRpDAi6l/fSNi/DAE2NX0QTN0mLDXRE9gMw0XZM54agmi+5eRtvv2hCGBT4iDQtd4m/QPROEUCiBHKzu3H6amD+6UEEAN9umKD/XIEsKn75geBJAHCdnJymzwWEmD6RyMB4LjtDwLt+gCdK3QSADBv+4NAlwDdEcrwVy15pvw4/hG2/+GBjW1/EGgSwHYrDuMA8N5p84NAmQD2l+yfHgYVcyNZKgzOmi6IXXu3zubJEiC9JWucd0XBkX4AeOz84kGw5rwA+8qX1vUEijxa7f0Aq5v8jPef4FYCTJ3iRT6yShAcNnUQiCvlpjfXrQS49N7JmOiWWGf3NGATU7ODL/3H3UqAQbyNiCZjBgLhsKkL3bx/gK45O3gF+gWSxDApk4PhNHGeU1XehquEmbdpAuhXAky5CYD7Yt2JrtpRx2ZpbtME0C6ULG6QWB0AjtMtmb/pauFrEK8u3RZpnS1LgK3F6vPgpjuGrKK6yJHsEFoFgNU1ioA9SFURUAWA3aGwbROgGu0r8uFPX09FZKFgOK/aG0e1c6jlatjGCdB0JSfdH7PZPpx7AHigPt/tZvfwVdUHe3Gpfvzg1H6pfRpLhcFdcf2Jz5Lo8Uk/t4v0WD8Lbp4AzbXO42YgTdO8/Wfnqij6oTkY7lIvwGP9Pnj7BGgDcKDTKXn+y4WU5kA4K5Svspvav/bdQQK8nW+Sn/3aOeCD8tfzxZ0A3HUfHwP5GuNge0iAv4v8YQZc+0d71TfAakFwV3DPe8dAus44+D4S4O864N6EQH6NRxf8p5/HIz/vW7w1YCXh/SaaA9Jr7OUVb/RHMfIRinzULaYCwF1iLKC4MR4IeCkQtwmSDmIAPqjGA+kUBvz0LsYD1UsqAXBZ9F1GAOOBgJ/OX+WdwOfW7wM+CaLkkv65JidGobYWVPVS/hJYSdxrV8vuko9e/MgH+Uo+mod26Jz92fpNTBEzB78YD8Qa4n6jXtmUMsoATV/dXlrunhMe4s1+lOOB37QIwzrFhJ3hWDQJsC5ahLEO1bTV4SYXJMDKqhZh9V4jgAFtANySUxRF92tzS9BfroIEWFvVIsx4ICyqAyDvzFSLUlkEkADr+yx/sbQIw5qwHvjrfzmSfJkE2ABLBsCqaiX78TJd1QVodxV/EmALsRgPZDlhWHFRBEATAZ26OQmwiYglA2DNWRkAzW537cmHBNjGWWQxLcIw76o7vYgxwnZPSxJgI1WL8H+MB8KwYHCMD6T9kQASYDO/4g9FizDMivV3mKd+RZAE2E61ZMC/rd8H3CJuAtSrdRa9A5sE2NA/EQEfW78POCUfjPYPXXvjhCTAlsKv/hUZsJioBGjazsVtQL2vHQmwqeC/8pdMizCMiXoHuMS5d9ohATYmWoTZVQymJP2xfglx1uk9PZXJSYA10CIMo5Lebb5M2q0WiqdrrPGeTThsArBkAIy6Th63afcZJMD22FUMBqWTxy0JsDfsKgZzSIADYlcxGDMrASKZ6fuJPTl0AtTzOWkRxmKzxgGkz6MauCZ2FYMZ4rjVlZfLm86s93TNdzL+Bi05egKwqxjMuIvLes0zyif0+wGkzyMB1hWyqxgMmOwJFIsI1qcaEmA/2FUMJojCkvpxMXu4XiWIBNiTqkWY8UAskE0cuLfeQAEJsCvsKobFxECAckxZLCHUzB4mAfaFFmEsde6N9I0k/XECEmBn2FUMSw1WAuyrFgtuqoUkwN6wqxgWEtWAXP4JEqMA7aI0JMDuBOwqhhne2wUnU3U5IB5cApAAe8SSAXhVlBVfzT+qbQMlq89VAdC5ySQB9uidXcXwinN53dj2k1YT/ka3ktXXuzcIJMAusasYXpCUZ4ziuz2w643CeyeRZvvwbsMJCbBPZ1qE8aS42ik47xzu9SbBRX6vDvdzXB///VYBEmCn2FUMTwnFctPDOWVBc7wXRZamnX8NyoQkwG6Jed4sGQCNqnD0d7U4OlVcCqls8IEiAfaLXcUwIfmuDmtZ3SjKJAEwGloiAXaMXcWgc/qq7vVVTeTxIAPyZHxTSQLsGbuKQSms7u1/LpqxojBpRgCyi3Sy0LlcElD6nzUP7ZCTCcCuYlAIrqICWKST200Fj+PY/U2p3EwAdhWD1Hs9AMAoUc3VBKBFGCP/qvv7b2aRt5xNgLeYJQPQda4HAK7cHHa4mwDsKoaO4FIPANAp0uNwArCrGBrvVQvwFztLDLicAHWLJ0sG+K5u8mFbiTGnE4BdxfCmbQGG6wnArmKo5gAX/3EekHE9AdhVzHPNHGCKQnLOJ4BoEf6RzgGB65o5wLoWYL+5nwBvQfqd/ah3goCzgms9AEBvqJIHCSB2hCMBvJPQAvwEEgBuqucA0wKsRwLARc0c4F8GAPRIALgn+KUF+FkkAJxTzwGmBfgJJAAc08wBpgfkGSQAnFLPAaYF+EkkABzSzAGmBfhZJADc8S7ZBgh6JABc0cwBpgX4BSQA3NDOAaYF+BXSBKj2Ue/It3hvxvyQAM6r5wAzBcwE1xIgJwEcV88BpgXYDBIAR9LMAaYFGFIkgMuaOcDT2wDBUySAwxJagDGFBHBWMweYFmCokQCOYhsgPIUEcFIzB5gWYOiRAC6q5wDTAjxbmNzEVVR6jZ0eRiUB3POPbYAWCpK8V/HPHE5SEsA15xstwMsEyajpx+GrqUcCOPvDeaiZA0wL8FxhPg6Ax92AoyOqj5/2Y+s3AVPe2QZoqVh6/D+4OahKAjikmQNMC/BsTQDkl+hxG3U+XXKnI4AEcEYzB5gW4PnqAEi7N1H15ConI4AEcMan6AFkG6AF6ol/98HXL9V1gYPXVj4kgCel3Vvx9U0L8DKZ6lxfXRtcN3hPljmfAP6Udm9F8XNz8CS1okR9sV9FgHsVFscTwKfS7qMP4Lb1mzi0QHe3L24E0pXfkn1uJ4BXpV0SYKl7+em4yB/UxsOBOZ0AfpV2SYClxPlCdXqI3RwJcDkBPCvtkgALhROHuPjkrPiGVuFwAvhW2iUBFhI3AepZMlcnxwK/nE0A70q7JMBCt4lz/Kl83LVya+ZsAnhX2iUBFpoc7J98whE5mwD+lXZJgGWCyRND5uJAgKsJ4GFplwRYJpq8yJ+6TTgkVxPAw9IuCbCMSABdu1ji4sfG1QTwsLRLAixzn7w3TFy8e3Q0AXws7ZIAy0wf3yTAcfhY2iUBliEBXOJjaZcEWIYEcImPpV0SYJkTCeAOL0u7JMAyohYwbCHturr3oXE1Abws7ZIAy5wnPzSpex8atxPAs9IuCbCQj7eOIgHcGhB78LK0SwIsNHWKFyVmRZfZYT0S4HfrN2Gcl8O6JMBCUyXky8Tjx0QCOIMEWOg8MX6cuzgMQAK4gwRYShSIVAvKO9lK7moCeFnaJQGWEse44ncY5O59ZB7cTAAvS7skwGK5pobk5pRyVxPAy9IuCbBYtXaMR8vKuJoAXpZ2SYDlUlUEVAHg4O/X0QTwsbRLAiwnLh6Vy8sqF5w4MKcSIGz+QC+WdoN3y+9sDSSAAafqUPdliXlxsnQjAYKPrD2pv1jafS++r4f/65IAJjTbzGTJaJsZJzecvDmSAP8+f/5+krz592ul3fLZ2cexr/FIACPqq4Cxw58jpJxIgHOzQ3hzXf9SabfeXOTn88h/ZBLAjDCTHv+p6nRycA4kwHva/JW+2/v5V0q7/9q/+YEvBEgAU+7j49/VLeePnwDh9btN6e543mul3fCz+TY/t3+W37MlJIAxwb2/7Xzq7PF/8AR4DP41IX0ZXKW9Wtp9/6/9XskRLwR+SQCDwvtNfILSa+zo9b9w4AT4d/vRnbdfL+12rieOeCFAAmCGoybAua3RqO7d55R2O2MKo4uKvSMBMMMxE6A7+Kcu5M8q7Xaj5Vi3fyQAZjhgAigH/0ZmlnbjY14IkACY4WgJ0Bv8S6YOz7ml3e6FwH9H6RgmATDDsRJgYvBPYnZpt/NSB+kYJgEww4ES4InBP4n5pd0gOdaFAAmAGQ6TAM8N/knNL+12rzl23zFMAmCGYyRAp2Vv5QH67rjDzjuGSQDM8EiAz63fhN5rg3/mhZ/HuBAgATDD7pvJT90L8Y0a9foZtNcLARIAM+w7AXpVuU2vwQ/QMUwCYIY9J0B3rs4OCnJ7nzpEAmCG3SbAdoN/auF1zx3DJABm2GcCBMleb7x33DFMAmCGPSZAvOsq/G6nDpEAmGF3CRD2WvL3dPpvxekeO4ZJAMxw3dfHpjva9rubY2tsjx3DJABm2NPHptt6c9vT9bXU7qYO7elPicPYzccmSL6as+rXrgb/lLpveQcdw7v5U+JIdvKx6dxZ73DwT21PHcM7+VPiWPbwsQl/93dT/bT9TB3aw58Sh7P5xyboDv7trML+pJ1sNrD5nxJHtPHHpjf4p97qd/f20DFMAmCGLT823ZJadozBP7Xtpw6RAJhhu49Np7/2e+tBNDM23myABMAMG31senNsjjb4p7ZpxzAJgBm2+NgEH4cf/FPbbuoQCYAZ1v/YRJ+vrvh9MFttNkACYIaVPzbnZM6K34ezSccwCYAZVv3YxPNX/D6aDaYOkQCYYb2PzfPb/Tli7c0GSADMsNLHprfarmuDf0rrdgyTAJjh8bFJbb/IP9cH/9RWnDpEAmCGx8cms/oKngz+Ka222QAJgBlsJ8CC7f7csU7HMAmAGawmgHeDf2orTB0iATCDvQTYeru/vbG+2cAqQzpwja0E+LeD7f52x27HsP0hHTjIysfG98E/NZtTh0gAzJCY/9h0J8l6O/inZm2zARIAM3wY/tj0Bv92v+L3Nix1DJMAmMFoAqxW+j48G1OHSADMYDABeoN/kZnv6S7zmw2QAJjBVAL0JsUz+PcUwx3DJABmMJMA3cG/PW/3tzdGpw6RAJjBQAJ0l8tn8O9V5jYbIAEww9IEYPBvOUMdwyQAZliWAGsvguEqI1OHSADMsCABtloR003LNxsgATDD7ATobffH6d+ApR3DJABmmJcAveErBv8qYfRn0XdYNHWIBMAMMxIgSDolLAb/SkF8a07gt7v02H3EQyQ/qjsPLbi1IgEww8sJcOr0szL4J5yvRV8quRQoH0ik/7//0NyOYRIAM7yWACGDf2PB8PgvM2B06D6dAHOnDpEAmOGVBHh3eLu/+SLJ8f9wHzzvhQR4m1VnJQEww9MJEPq74rdW3D3xp2k7RFJc+098LQFmdAyTAJjhuQQwP5HNFU0A3OLq1xJd5BHwagK8vTp1iATADI8E+Jp4Tszgn8qpPv67N0VBIouAGQnwWtM1CYAZHgmQ654Q/nb6VBj86ztXv5jT4Othddx2WyVmJcDbCx3DJABm0CdAwOCfVtXAM74uCqoI6Jy15ybA27NTh0gAzKBLAAb/JsSqAGgioHMfsCABnttsgATADMoECFjxe5L4DckbgUPxq2uvmxYlwNsTHcMkAGaI5QlgbUlrl4hhQNVGXaIkcGn+vTQBJqcOkQCY4SRJgN4lJ4N/SjflPcBDIH6Bzb+XJ8CbPplJAMwwSoDgozvsxOCfhrhDUj4smoVPvWcvTQBdxzAJgBkGCRAx+Pc00Q48bP5tnfq3AYYS4E05dYgEwAzdBGDw7yWJ9ibgbXiNYC4BFD2aJABmaBOgM9bM4N8z0v59/tQTTCbAm6xjmATADFUCsN3f63L9MEB9kVAXC8t/XCOZOQkwnjpEAmCGRwJ895rPGfx7kohLzRPicQJovJwAb4PV2j5JALzukQDN8c92f68of2UXzRP653YbCfDW7Rj++SYB8LK/BKgHldju7yXT1+6rJEDnDu6LBMDLTuWp4+/qn8G/F+0mAd6azQb++9LdlAASUfZT5FnG4N/LZiVAnsosToC3t/Nn9vWTcQ2Al/2WH7+MG4BXzUoAc9XAgUQMBJAAeJnobs+5CXjVkwlwn3768gQoO5AzxgEwhxhM/qYM8KLy16a78b6Xz+hVA+0kQJAyEoj5qsUsfhgLeE35a9MdcmJ+cN1fYS8Bqj9gPvF2AIUgXz4a7SEx908zgGK1K7gVVn++lATATPVn6HPrN3Io4iJ/uEhoK+jfJthKgH/V/ICErmDMFlafopSSwPPEQsFX5eNxbyDQVgK8V3+6X+YFYIH6REJV8AWZ/jYg7Q0DWEqAemuCG3MDsUi99w1VwefdtUeuqAW2h6SVBPis/mz/vZEAWOaj+iz9UBV8VrUSoGIypbhCaAssFhIgqGcFlZduJAAW+a0jgLVBn5UMTvPjxzoLsJlPgHM9p+urvBMhAbBMfUVJVfBZ1UWAbDCwuqvq9FgYT4CoXtOtunMjAbBQs0wYVcEnVRuHXkejgVUAdDsGTSfAqV4l7KcauiEBsFDQLBVCVfBJ1+o+vD9+GlRf7g0RGE6AjyYA6oEbEgBLBc0KtFQFn9OE5rU92JvNw/vrCJtNgHrUptPMTQJgsXOzXDhVwee0103Z5R5F0Slpl1zuT7QwmQDBrXmRdtyWBMByYbsENfuFPKW54h8ZZKjBBGhjp/u/SAAYELURQFXwOXfp8X8b3keZS4Cw3S7kt/NlEgAmxE0EUBV8kuQyIB33VRlLgKjd2qG3bzEJACM+2s8xVcEnnTv7rf2RrrparggoX4NB89BYJ6L/6z1AAsCMS+dURkngWec4uT0O5ORudww1af86g4INCQBDPpUfMmyt87f5GvxtSACY0ha0qAruSqD7y5AAMKWZc1ZQFdyTThWw6QVukQAwpm0OpCq4H2FnuFEyiZsEgDlBd2ybquAu/PvpBICkckACwKDwuxMBVAV34L0TAIXsuowEgElR9wNHVXBznRqt4qqMBIBRcTcChpUnyCS/v7+WFln77AbAr/QpJADMeu9+6KgKPuExePJh4xt3izODXuAWCQDDku7HjqrgNFsJcP7q/iX+UzyLBIBpv70IoCo4xVICRL1JB8o2TRIAxt26Hz2qglPsJEBvQEYzIkMCwLze/SdVwQlWEuCjFwCa8RgSAOZ1+1ALqoITbCRAf+2BcS9wiwSABb3mQKqCeuYTIOjfh2k3dCIBYEPYjwCqghrGE2BwCSbrBW6RALCi1xz49yk8bf2G9st0AgzSd+J7kwCw4zSIAKqCKoYTIPruB8BELYYEgCXv/Q9icdn6De2V2QR47yevdHvCLhIAtnwMIoCqoJzRBEgGv3RFL3CLBIA1v4NP43+UBGRMJsDn8Fc++T9IANgz/Dx+naf/j3/MJUB3QcDSE0u2kgCwaPiJpCooYSwBBlXA5/owSABYNPpMUhUcM5UAwyrgc3lLAsCm4GsYAVQFhwwlwKD8qu8FbpEAsGp0YqIqOGQmAYZVQH0vcIsEgF3h8JM5XaDyjJEEuAx/y/pe4BYJAMuiUQRQFewxkQC34e/46e9IAsC2eBQBVAW7lidAf0HA0tPrspAAsG7YHFgUuaW1cQ9pcQKEw+HW6V7gFgkA+0Y3qVQFO5YmQDQabH1lqIUEwAqGzYF/EWBlfexDWpgA45usJ3qBWyQA1jBsDiyoCjaWJcD4FuuZXuAWCYA1SMaqqApWFiXAdfx7fW1NNhIAqxg1BxZUBSsLEmA0Fah4ee4FCYB1nMfjVVQFS/MTYDTtoni2F7hFAmAl4ff440pV8G1BAow7rmds00YCYC3j5sDne1ddNjcBzPw+SQCsRlK3oio4OwFGU4GKWd+HBMB6houHluTb2ntkXgIMFwQszaiwkgBYkfRje/O8JDArAcY9VsUrvcAtEgBrkpSvva8KzkgAWRVwZoMFCYBVjaex/vnyevnA1xNA1lwxN0hJAKxK1hzoeVXw5QSQVQFf7AVukQBYl6yLxe+q4KsJMFoQUITozFspEgArC6RnMI+rgi8mwIc8AObeSJEAWJv8InbWQLYTXkuA8VoLZYDOHkkhAbA6WTNb4W9V8JUECKQjqa/3ArdIAKxPfic7dyzr6F5IAPk46qJRFBIAG5A2B/paFXw+ASQLApaWjKGQANiCtDmwKL59rAo+nQCRZHblw6LVlkgAbGK4s7iB69mjejYBZBOrHpYNoZIA2IZ8SMvUPtpH8mQCKC6bli62RgJgI9LW9sWntAN6LgGkMyqK5ZMqSABsRN4cWPhXFXwmAeRTgQoD9RMSAFuRz28x8ak+licSQJmWc3uBWyQANqNoDvStKjidAMpf1Oxe4BYJgO2MdxaveFUVnEyAf6pf0/xe4BYJgA2pP9seVQWnEkC6IGD5S5rfC9wiAbClWPHhfmH768ObSABVFbAojKQkCYBNSba9q3hTFdQngHRBwJKZzgkSANuSz3Z9SD0pCegSQFkFNLbzKgmAjalPcp5UBTUJcFYVTIvi09CrkwDYmvo0Z6DYdQDqBIhUVUCDGy+TANiaYtL7gxdVQWUCKJZReDC3wDoJgM0pmwP9qAqqEkC+IGDpy9z9EQmA7cl2Fq+5XxVUJIBi/vTD8l7g/suQANiYsjmwMDfktVvSBFAsCCgCwOTwCAmAPVAsHlpyvSooSwDlVKA/P0YHR0gA7IJqAZwHx6uCkgRQLQhYBoCJXuAWCYB9UCweav6yd3fGCaBaELBkeGyUBMBOqPvfTV/47swoAXTXQ8ZXUSMBsBeqdbDKCHjf+t3ZM0wAXRSa6gVukQDYDc3wt8tVwUECqLukCxuFERIAu6FpDrTy4d+JXgJopgIVBnuBW+HpdHL5HgtHomkOLNytCnYTQFcFNNkLDOySfGfxmqNVwU4CKBcELBnsBQb2SX8IuFkVbBNAuWia+OkJALhP1xxovBtmH5oEUC4I6HD8AQOaKbGFm1XBOgG0VUC3WyKAlq45sHCxKlglgLYK6ObVDyCjPxe6VxUsE0BfCTXeCwzsmGZm/INrVcFHAiTaOqitHZXPp+Sa/rkk3GJgT7TNgc5VBR8JoG0DsNAL/Ce49170JrvKiB/5kEr/u+YhYKmJS2K3hsUfCaC/BLBw4xOM77XycQaIJ0m/geYhYCl9a5xj42KPBNBNBy4snGlP0hfKhslKAmAj+v5gt6qC2iaowkovsHKblsFlAAmAreibAwuXqoK5/hLAQi9wOw/7mkR/knbgpR8BJAA2o1s8tORMVTDXDgNY6AWuAyA9tV+L68TtRQAJgO3om+QLd6qCua4UYGHQ815965P8y93CIAmADal3Fq84MldOlwAWeoFD8Z3HJdXqgaLzAAmALal3Frd3gtyAJgF+TtP/seDXGwAABstJREFU/VWZIgCaCOg0H5AA2NREc6AjVUHNOICFXuBYGQBvb5F41XPzBRIA29LPlikme+kO4e/wVxQ+bPQCi5dS3FyIMcJr828SABvTrppX/LgQAI8Ukw96/lr4hYrT/FXxaCBeuLlAIAGwMe2UuZ+JtqGD+FIEgJVypzjLK8cXRatQc/NBAmBrmubA76mmoYP4+ZH+IHZm3ZQvlSsfFoOBzZLEJAA2p9xZPNf20h/Jlyzl7KwLfC6/t2aqofht1/8iAbA9RXPg11TD0HFkkuEMS70OohKgqTGK24C6ykoCYAeki4dm7gRA8TVOAFvrAovjVtNGISIi7j1d853Mv0NgRLKTphNFgNq4pGGt1UnUVjRPELWCetqVOMxTmXzqOwHGjJoDnQqA8Y9jb13gyQR4K59QVwsnlmwkAbCS4Xz2iTWEDqcfATZ6gSvlmVtbZSi6zyABsBODncXdaATo6EWAxXWBy+9PAuB4+ouHyivoR9aJADvrAgvlC5AAOJ5ec+CPawMBRae6aaMXuFG+wqsJEMmIqzKb7xXo6jYH5u7dBjQRYHfpo1njANLnUQ3Eyjo7i6s66Y+tbHK0vAJ/WQtQNwXXc4PqpkESADsSNm3AmXI+7aF955Z6gVtiOEXzBFk/gPSJJABW1zQH/iVAmjnov5vtdc8mewLFaoFR7+ma72T+HQJqdXPgl+XxMneJU/xd/QQxwFevEkQCYF+qncVzEmAmcZt/Uz9B/H7rf5EA2BnxufshAeYSAwHKmw2xm1gze5gEwN48Fg99jAiSAPPEvZG+kbQ/TkACYHduoieYBJhnuBJgX9S/CSABsEP/lQ2BJMBMiWYkoGq5iAdP1nwfK28R0AkyEmCB6iJAWg64Di4BSADsUTlFgASYq9ofUDIBsZqA2ZmbTAJgj24kwBLVHgzD5UKDavpl9waBBMAekQCLVPcBRdZbiajePry3nxgJgD0iAZapNwku0rhq/gvvzTyLc/eZJAD2iARYKOzMq3qs+tn+K+sFAAmAXSIBlgoU+zEOZyaRANgjEmC5WHL856MVSkkA7BEJYECQDJZYyCT1QRIAe0QCmHG6NMstpol0zYBzuSSg9D9rHgLsIgHMKQ9k2+uSAEaRAIDPSADAZyQA4DMSAPAZCQD4jAQAfEYCAD4jAQCfkQCAz0gAwGckAOAzEgDwGQkA+IwEAHxGAgA+IwEAn5EAgM9IAMBnJADgMxIA8BkJAPiMBAB8RgIAPiMBAJ+RAIDPSADAZyQA4DMSAPAZCQD4jAQAfEYCAD4jAQCfkQCAz0gAwGckAOAzEgDwGQkA+IwEAHxGAgA+IwEAn5EAgM9IAMBnJADgMxIA8BkJAPiMBAB8RgIAPiMBAJ+RAIDPSADAZyQA4DMSAPAZCQD4jAQAfEYCAD4jAQCfkQCAz0gAwGckAOAzEgDwGQkA+IwEAHxGAgA+IwEAn5EAgM9IAMBnJADgMxIA8BkJAPiMBAB8dsmy7GPrNwEAAAAAAAAAAAAAAEw6R3+Crd8FgPWdrllRSZNQ9ozwkQ/SR3QPAdi9ICn68nj8pLRMB+n/1zwEYO+Gx3+ZAafhs0gAwEXnTBIAf66DEQESAHBQ2Dno0z/tv7J+BJAAgHuaAMju5+or91waASQA4JxzfbBH3a/GuSQCSADAOdUYQDL4cnCrxgI6XyMBANdUVQBJ7e8qHulcGpAAgGPOygCoIyBvv0ACAI65Sm8BhCAfpAMJALglEKd5xUyAkxgMbP5NAgBuuZfH+F31sGgNCHv/JAEAZ4hDXDkZMC4fvvSeTQIAziiP8Jvy4aB/G0ACAE6J9DcBYgOR9hqBBACckgwr/vonkACAU676YYD6IqEuFqaie1gmIwGAwxEDgZonnMcJoEECAIeS9uv9Er0jmwQAnDJ93JIAgLtIAMBnsxIglSEBgOOZkwBUAwFXTB+3ZQLcpp9OAgDHM1kNFGsI9qqBJADgikt5gGs6gsT84HqFABIAcIqY+zfaGaRFVzDgMHGRf1E/IevdJpAAgFvKdcBy5cPn3kAgCQA45tK7yh9JesMAJADgmFDbESAWCGlHCkkAwDGpbixQXCFc+08mAQB3iAUAivNTj5EAgGvERUAm6QmodhS9Dp5LAgAOqTYNykZXAfWWwp1sIAEA58TVkT4YC7hLvkwCAO6pdggt0k5RsN48vL+OMAkAOKiOgCK/Jo9VP5Nb/YVBuyAJALjoXigMthQmAQAnRbns+M/CwdNIAMBRyej4z+PRk0gAwFVBnHWP/5usTfDyWBFQPpNQ8xCAQwhOybU8kBPNPmIAAAAAAAAAAAAAAAAAgCP5H4qTGBc2OBEAAAAAAElFTkSuQmCC;" vertex="1" parent="1">
          <mxGeometry x="576.92" y="680" width="166.15" height="108" as="geometry" />
        </mxCell>
        <mxCell id="7mjdrCKgkBbXvNlTKw9o-67" value="" style="curved=1;endArrow=classic;html=1;fontSize=16;entryX=0.813;entryY=0.997;entryDx=0;entryDy=0;entryPerimeter=0;exitX=0.75;exitY=0;exitDx=0;exitDy=0;strokeWidth=2;" edge="1" parent="1" source="7mjdrCKgkBbXvNlTKw9o-68">
          <mxGeometry width="50" height="50" relative="1" as="geometry">
            <mxPoint x="721.82" y="920" as="sourcePoint" />
            <mxPoint x="722.2399999999999" y="800" as="targetPoint" />
            <Array as="points">
              <mxPoint x="810" y="890" />
            </Array>
          </mxGeometry>
        </mxCell>
        <mxCell id="7mjdrCKgkBbXvNlTKw9o-71" value="" style="group" vertex="1" connectable="0" parent="1">
          <mxGeometry x="550" y="960" width="220" height="160" as="geometry" />
        </mxCell>
        <mxCell id="7mjdrCKgkBbXvNlTKw9o-68" value="&lt;font style=&quot;font-size: 16px&quot;&gt;Fructose 1,6-bisphosphate&lt;/font&gt;" style="rounded=1;whiteSpace=wrap;html=1;verticalAlign=top;" vertex="1" parent="7mjdrCKgkBbXvNlTKw9o-71">
          <mxGeometry width="220" height="160" as="geometry" />
        </mxCell>
        <mxCell id="7mjdrCKgkBbXvNlTKw9o-69" value="" style="shape=image;imageAspect=0;aspect=fixed;verticalLabelPosition=bottom;verticalAlign=top;fontSize=16;image=data:image/png,iVBORw0KGgoAAAANSUhEUgAABOIAAAKXCAMAAAAYZxU8AAADAFBMVEX///+AAAAAgACAgAAAAICAAIAAgIDAwMDA3MCmyvD/8NT/4rH/1I7/xmv/uEj/qiX/qgDckgC5egCWYgBzSgBQMgD/49T/x7H/q47/j2v/c0j/VyX/VQDcSQC5PQCWMQBzJQBQGQD/1NT/sbH/jo7/a2v/SEj/JSX+AADcAAC5AACWAABzAABQAAD/1OP/scf/jqv/a4//SHP/JVf/AFXcAEm5AD2WADFzACVQABn/1PD/seL/jtT/a8b/SLj/Jar/AKrcAJK5AHqWAGJzAEpQADL/1P//sf//jv//a///SP//Jf/+AP7cANy5ALmWAJZzAHNQAFDw1P/isf/Ujv/Ga/+4SP+qJf+qAP+SANx6ALliAJZKAHMyAFDj1P/Hsf+rjv+Pa/9zSP9XJf9VAP9JANw9ALkxAJYlAHMZAFDU1P+xsf+Ojv9ra/9ISP8lJf8AAP4AANwAALkAAJYAAHMAAFDU4/+xx/+Oq/9rj/9Ic/8lV/8AVf8ASdwAPbkAMZYAJXMAGVDU8P+x4v+O1P9rxv9IuP8lqv8Aqv8AktwAerkAYpYASnMAMlDU//+x//+O//9r//9I//8l//8A/v4A3NwAubkAlpYAc3MAUFDU//Cx/+KO/9Rr/8ZI/7gl/6oA/6oA3JIAuXoAlmIAc0oAUDLU/+Ox/8eO/6tr/49I/3Ml/1cA/1UA3EkAuT0AljEAcyUAUBnU/9Sx/7GO/45r/2tI/0gl/yUA/gAA3AAAuQAAlgAAcwAAUADj/9TH/7Gr/46P/2tz/0hX/yVV/wBJ3AA9uQAxlgAlcwAZUADw/9Ti/7HU/47G/2u4/0iq/yWq/wCS3AB6uQBilgBKcwAyUAD//9T//7H//47//2v//0j//yX+/gDc3AC5uQCWlgBzcwBQUADy8vLm5uba2trOzs7CwsK2traqqqqenp6SkpKGhoZ6enpubm5iYmJWVlZKSko+Pj4yMjImJiYaGhoODg7/+/CgoKSAgID/AAAA/wD//wAAAP//AP8A//8AAABYWvgoAAAAAXRSTlMAQObYZgAAAAFiS0dEAIgFHUgAAAAJcEhZcwAADsQAAA7EAZUrDhsAACAASURBVHic7d3beqq8GoZh9zz/U0SoLVqpZfSye4wS1oskggRI8tw7c/61o1Itr1l8SQ4HAAAAAAAAAAAAAAAAAAAAAAAAPC3M+tKtLwkAlkLEAXAYEQcAALb2ce/72PqSAGApv4Mu1+/WlwQASyHiADgsPPaFW18SAAAA8IowviWi855cz6etLwYAFhTEaWeM8n7e+ooAYCFBPJiHyVJCDoATwnSYcHmHNdj6wgCMCM6XRNy09ySOtr4YC5xHAy7HfDOwO9Gte5teGTpXqxMuvUT5a3U6XlIyDtinKBm2RQg5lSrhknaD95ySccAOXcY7XIycS1XbiDx6Xy9fyZTxOGA3grtsUOm69aXt1l3WWjvzygH70iTc7Sx6XdHjRsapxfL+aJlxTNgA+1AnXNzqXJ2uZJxCoBpxK/qqycqXBGBcGWZJb3KhKvrqDzbhz0O8NJfxB5X5B2BdR1lrrWrdMa86VMS/bErhTPsX2ItA3h8tM44e10CoybDiNV3xggBIFOPmt9HHTgycjyv6qUfp41deN2AnlJ1RVf757KZppRWd/3i9CwIw7qwaN6/GnBiN69F24OnhA/twU2fYg0nVEYF2OuHOYBywC+JWvEsfPtEcGRFp+6G6niyAVYS6m5XmyIgi4lQLeGMq44A9eOim/mLmBoe0rxovG7APF910wpHBuCF9gBFxwC4kun6otifrIyIOsISIuFT1HVTGDRFxgCX0E6ZMqQ4diTjADkTcHJF2gPLKRDSwB0TcHCftAKV2jBPAGoi4WbQvCq8asAt3Im4OXSOtmIeWrvwFsBJth0rfJ/ORbjOli+ZxAOvQDovrR9Z9VAS/fB1+ylAcsAss4JrnrlwVwsbmwE5o98wotszg3OOes6oiOkj5XAB2QtyM8s2UAs3j3ipSbHyzEQ4ZBHbjquxxla0VhuIGyvOgOSoa2LejetiIjc1lElnGlQnHsl5gF1Jpa+RQzUbQ5RpRnk42aOFeyq8zfAnsQtHouI/ekRwyqFAesZ0l7ZfnnGbyHiyADaTSripHRSuVPdK/z4c4yrvyp+OlCjjlpucA1lTUjYxkXJlwNEhkqnbcEC8ZsB/l6NG9N6kQlk0SFm9JhffRgEuYngH2pLpR49aA3OmayVp3aDyGAZfSSQX2JagbI9ezGDuPHrd6nImZQaXgkXYCLiHggN0JbpkEbTi98HEriuSS65kuKrBL8XjCsawBgBNOyUgTjjYJAFdE127AXQg4AC4JjpdEDJ7fk5gVDQAAAAAAAAB2KPj9s/VFAIAZ4uDUrS8CAMwg4gA4jIgD7BAcj8e3rS/CPkQcYId8m8d064uwDxEH2IGIm4WIA+zwTsTNQcQBdvgg4uYg4gA7EHGzEHGAHfKIu299EfYh4gA7EHGzEHGAHWIibg4iDrDDLxE3BxEH2CGPuK+tL8I+RBxghzzibltfhH2IOMAORNwsRBxgh08ibg4iDrDDjYibg4gD7JBH3OfWF2EfIg6wQx5xHEIwGREH2IGIm4WIA+yQEHFzEHGAHe5E3BxEHGCHPOIuW1+EfYg4wA55xH1sfRH2IeIAOxBxsxBxgB2IuFmIOMAOKRE3BxEH2CGPuPetL8I+RBxghzzijltfhH2IOMAORNwsRBxgByJuFiIOsENGxM1BxAF2yG/VaOuLsA8RB9ghv1XDrS/CPkQcYAcibhYiDrADETcLEQdYISTiZiHiACuIWzXY+irsQ8QBVuBWnYfXDbACt+o8vG6AFbhV5+F1A6zwxq06CxEHWOH4d6f+bH0RFiLiACvkEZdufREWIuIAKxBx8xBxgBWIuHmIOMAK70TcLEQcYIWPvzv1e+uLsBARB1ghj7j71hdhISIOsAIRNw8RB1iBiJuHiAOsEBNxsxBxgBV+/+7UZOuLsBARB1ghj7jb1hdhISIOsAIRNw8RB1iBiJuHiAOscCXiZiHiACvc/u7U69YXYSEiDrBCHnG/W1+EhYg4wApE3DxEHGAFIm4eIg6wQkLEzULEAVa4/92p8dYXYSEiDrBCHnEfW1+EhYg4wApE3DxEHGAFIm6e0/3P1hcBQIeIA+Cw9C/izltfBACYkUfcceuLAAAziDgADiPiADiMiLNQ9IiTP7f4fNr6UoDdezsGW1/CdGF8y5eeZVly9e02j65ZS3rx7NcH3BfEafsuz+7rTAnH2dA9uawbsVEyuIYrIQc4JBiJmnSNkBuLuKIlGa3w7EJwG70AFhkDzgjT0bs8Md/blkZclt3W6etLfvdVfnsAazhLYyY0/dSKiMvua2RM2DxdfI6i6Hy5r/r8AEyrEy69RPkQ1Ol4qVs2pjNOFXFrHLddJ1zcDL6dqrkHMg7YlyA6x3+Ok8axqoTrjH6dq5AznHFFxHW/Fh6rjHmYffK/F6z8NXud4tN9tYwFrBAPPSLjvbyu8NIaVUoez04JhpI4uZQtO7MtmbGIa12U6WZUOdMwnFgpQ5Y5B0CQ9bQeq3V1hoUPT9Y93GWttbJ1Z/a0REnEVRlneFL3KH+WMuOoHcHenKJH3oZauQklibjV2gGnYWXXn8sTARvLEq7OOKPVG7KIOzzEA4YP3E4VOZqsEPDARMd2kfrtvN5osTziVhmzPsqeWxv0gTzhqr6q0QEpacSVL6nJ5y4zXPL7nYoLoBmH/TgPKpzitUJOEXErZFxT9JEmeRO21aTTZVzRWLqMPzjIv1/V7zlJ9TPlEVcMkxl97YrXSRZixaUxGoe9iEZLOI3PyRXEcyWd6YZLHTSSAFlMnXCXOozCujmrybhUGSTFT246a2tGXPGIyV5y0U6TNlKLgE8NXgAwgazAap0aefFUgw/8KnvMrkWKymfpjrydqmVJyp5W2MuwvqybQG5FXPH2yGc0bp0rBTbVDMLdb50m1Dr1m+MRV80LGh00D2Q5+ih/f9U/Lr5HvvHTtfuj1484k0NhxS8n//MoInClfgCgVCVc2pSDHauUWyPjJBFXtbBMXsGtmxktZSNSdY/epAlTOHZ/sfC4lOoVkUdcorm016WaT4Diw8PwpC7wjKqX2r2bo7Lka4Vz62QRV2avwf0xI2nC1e04RcCKx1VTptpveJE04gLzb502wUQGMhiH7ZW3+b3fqwnKxp3p8X5FxPWaQR+/i2h1SovGjmRAKZFeV6HIEVXt191wW0oacbHxdy7SvDhrNCSBZ5QLDcc6pFdFG2dJ0rul19mpd7F4TXNIq3pWsBgLlLdD9He5rif7Ks3qhvqNi+7PeOrFq3+k+C9VN978cCDwjOIvcXzI7aaMgMXIo6L7/ItHXFGdK50V1PSTI/W/PlSvrbmPCEnElV3s5n2TFTfPUP3IYqhSNWVrflIXeEI5pTj+YVs+aPrPVDzJFhGn6UgWySDtiT42v8tHIi5s9nJqotVAxOl/NSIOu1B8Gst6Ww/1Tb4Q6SWcuo8sPRanHUwTj0t7qtvf5cr94lqdSCIO/ioaMtIRE3X9/kKkEWe4tqq48xU9zavyxdn+LldFXDu5Q0Xgx89UqQx/he1/eeAZuuolzWjVMqQRV0zKGRvL0t6E6tre7e9yRcSZrrllLA520DVkdGuUFiGLuOLizJVWaSc81XOmx83vcmnEmT/KVD/XUnw6srs5tlX8HSpuiCULOKO64yNG1d6rr0uCpBxBMrdbhbZyq2jjysrL9HUTV90TvGgs4pJbvEbLKdS+N9TFYQ+0f4dP7MrTLEx6r0d4Pp8ot6q7x6N3S73dh7l2gLg0ZUlMpvqO0+h1t3Vf3TXXqJrXfQtl38D5DdiY9u+w29c6Ncn18/KN2o24ZHwvJZPLt/Q3ofo7tP+++w1uRZzuw7H4AGDfX2xMe5ceOzkTjtxvs3UjTsLkIiTtL6/5Dt1dHnZ/A7ci7tK5kqFiqsbwRBWgUQw2qfpa3RH3YOR+m65sB9b3vuJbjS6QFc/wQsTpNlO6dB93K+J6+T1QDFAw24Bt6ZdZ9r5DdeM1ndjPkaorxRi49CemZgfOxXO8EHG6vljaTaA1N1Nagbpksvi7YS8lbGxyxA2S622Bq5Dk29X0zKDoaCp3HNJkmLpuur+x+fI2jTj16QzKPVyAtUyOOCOKtlLn7IZjNNI8WHoBl3Y6WffLn1VNlXILF5M5vWnEKY8fK/rw7BaHremrm1aLuCeeYull+NrtfooIU8zpqo4S3fSQwTUUz56OdVXXOasa0BN/iaoxfX0V+0IXsUHEadeo6mYNq93Pd3dU9CrkOw2WCbfChtGAhralscZKw60iTlu61ZsvGJHIMq5MOLPj7dtGXLVfdNr/7auNTTh+C9sTt6hqyER30NISno24xTc21+wX98QC3fLU98Eyrkv5dbMv3MYRVy8g6xwqfqqWpdBNxQ5o16iaPn4g92zELU5TnvrM6ThViyVpN3TPw10pjdg64prTKS/lrx8cmy9teF1ARXfg72mF7tZ2EVf8drJGbNlC0/yM6kTr7B5H+UfFqdl213g7ZvOIq1ur+cuYJEna/CcnqGIXdPvFrbIMZ7OIK1shkqfWncBVkm+pa3wsavuIaxK+x+DSYmCKYieRne76a1zZUBudTdGfo1oKx6dBEvOHT+0g4g6n28jvfmXhFvZCXYKvrG1dzHYRV3W0RtpbZfPkqct6DG/ydI3B9j1E3OEQ9UPu2gn3N+IOm1LV4G9+ApdxZW3XsF9VptaTpV3BI+3c5Mk6s4n7iLi/ltyjTrn0eu5GWsxCVWyrbK3s8xxV86rtoS6dF6DufT0/nBY+bsXgXXI9e3k+cvRn+HLlo52/G1wNUCtGksbOir6u04jbNOKa8fK4DqZ6w2EOV3lVKHZO/dB/I7CsoNkhpFpt0/8EDsob3Xx906YR15oTTMVWAM2Gw0wLvk68uj+8kFjZW/rTJFo1WN6tZIrKecKx5t3Cto046VbGg4VJmEGMF/7wUmJNon321fx31S9Lm5HiY92WWWE+bOOIq9urXRdmAhchXtzUy+FJbOStmP1rDZA0t/j91j0cZtB9NWHriPtrsiZZz5V7cinitf3mAwMrqZosnfCS1agnq/xhik0wNx7ZP11aBbzJgxtyOYF4Zb/03wgsoGzC/fQmEcJBMybn1zrDIDoXGw5vfSGuKYoPP7e+DPhgtAlXOKf9gItpythEnHG79UWMK0pH2HoExkmacKXo2kq5G7t9WUZMDG99ERJvIuPet74MOE7RhKucoocYF2OO3z57jrjDu/hoXeK4NkDm/E/VhIPtdh1xlMfBtOCmbcLBavuOuMNnfnmjx3UBC6iacJtWn8GknUfc4Ut8wpJxMKFqwn3ZUM8aHY9HG65zb/YeccG3KDnc+jLgoqoJZ8eGD3mhqB1Xui97j7jDifI4GGFVE+5AxM21+4gry+MYK8Gy7GrCHYi4ufYfcYcj5XFYmm1NuAMRN5cFEVeWx7FCDouxrgl3KCKOzsx0NkTc4Te/yH8ULmEZFjbhDsWBEez2P50VEVccB0J5HBZhYxPuQMTNZUfEBZTHYSF2NuEORNxcdkQc5XFYiKVNuAMRN5clEXcIRXmc7HBy4CnWNuEORcRRHzqdLRF3iCiPw6vsbcIdikk3DlCfzpqIK7fRZ0NCzGVzE+5AxM1lT8SVOytRHod53m1uwh2IuLksirjy4EHK4zDD6atowiV2NuEORNxcNkUcBw9irg8xlJv9s3igI484TqSbzqqIKw8eJOMwTdWEu9n8p/ORl4ZufREWsiriyoMHaa1jEgeacAcibi67Iu4QiiFjCiDxPCeacAcibi7LIq48eNDWSTGsz40m3IGIm8u2iCt3VrL+7xXrcKUJdygiLt36IixkXcRx8CCe50wT7s+RiJvFvogrDx60trwJq3GoCXcg4uayMOIoj8NTXGrCHYi4uWyMuLI8buvLwK651YQ7EHFz2RhxZXkcG8tAzrEm3KGIOOtu1R2wMuLKgwcvW18G9sq5JtzB1lt1e5a+bhw8CAX3mnAHa2/Vzdn6uhXlccetLwM75GIT7mDvrbo1a1+3C+VxGOVkE+5g8a26MXtft6I8zq0ParwsLJtwV+f+MsStymf6ZPZG3IGDBzFwKZpw6dvWF7K8gIibxeKI4+BB9IR3V5twOSJuFosjrjx4kPI4lBxuwuWIuFlsjjgOHkSL2024AxE3k9URdzhTHoeS4024QxFxlElNZnfEiT20sh93/6rxJOebcH/+EXFzWB5x4lii7B/Nd8+534T7kxJxc9gecYcb5XHe86EJdyDiZrI+4oqdlSiP81ny7X4T7lBEnGtLNlZgfcSVOytRHuexf9n9x/Um3KGIOA5mmsz+iCsPHrxufRnYSl72/8+DHtydiJvDgYijPM5zUT6rvvVFrICIm8WFiDucxWAzwxSeyjfW8mHHbyJuFicirjx4MNr6MrCJiydjsXf6KnO4EXGHq5hSozzOS5+erFTOI+5364uwjyMRx8GDHvOldZMQcXO4EnHlwYNknIf+eTIQeyPi5nAl4sryuNvWl4HVebNVJBE3izMRJw4e/P724U8dHb7UjIiI82HMcWHuRNzh7fubjZU85EvNiIg4uimTORRxYjiWRQ7eyWtGvra+iDV8EnFzuBRxV1/+1tHmS82I2DiMiJvMpYjLeyz/tr4IrO3Lk5oRIm4elyJO/C6nra8CK/Nmj6FfeilzuBRxhx8OcvCPNzUjIuLuW1+EfZyKuLz897L1RWBdTv0FK8VE3BxO/YF8erIeGy3e1IyIs5iIuMmcirgPb/7aUYu9GaEi4mZxKuLyOveMZap+8aZmhE/weUYjLsz67Hhlg3y+wfVDStDlTc0IEbcgWyPu8O3NnzsqqTfT6P6MOppnbcSxUNk7/tSMHI723IgwJR96/t76IrCm0J/x1/GI+7j3cb6Dw46+7KuDive9t99Bl4s95Rwmei2cUuMTf2pGJIg4v/gz9oyCPzUjEuGxz4+RSV8lvv/Be8efmhHgwEpl/9Buh1wY38TZfFlyPTuyB9E78w2e8admBBMFcdoZo7w7seXWib94v3hUM4JJgngwD5OlLoQcW8b55Zyx0zNGhOkw4fIOq/0fh19MmnvFlz3UgvMlETftPYmpitI7jwacE308tozzix81I9Gte5teHRk6N6ZOuPQS5a/V6XhJXck474vdPZO32l3f6DlKhm0RQk6lSrik3eA9p25kHFvG+cWDmpHLeIfLhZFzQ6ptRB69r5evZGp5PuTzDcetL2IDDlYAPSP/jZ0emwruskElTkWXuctaa2cnXjkvt4xzswLoCc7XjDQJdzuLKI8e9bic5XeqMbG8P1pmnN0fivn4s2fn6TpbAaTnes1InXBxK8dPVzJOIZAnXNVXtXtC0r8t49ytANJzvWakDLOkN/RQveX9wSb8eYiXRjIHpcw/S7y53nXpc7gCSM/xNvtR1lqrWncejbo+rYh/WQSc7W//+rZlnMsVQHqJ/PPaAYG8P1pmnN09LiNCTYYVr+mKF7S8/Ab3Z77B6QogPbdrRoox1vFW6ql4hz36MH9S0U+VF1Vc7X/dvNoyzvEKIK0f2/9alZSdUVX++eymaaUVnX+rG0H53e3yCHSH4xVAOm7XjBTvobQfnjIaN0bbgbe/h5//YfiyZZzrFUA6bteM3NQZ9hhtv/su0H60360fjPNoyzjnK4B03K4ZEW+g/Nc7efAGTxdp+6G6nqwF/jk9BN3mfAWQjtM1I6HuZrW/OWJAEXGqwvfY/vviy/0xqJLzFUA6+dSSs7sDPnQjDbEHQxGTaV81F162qy/Ndw8qgDScrhm56KYTjgzGDekDzIGIe3d6DLrFgwogjbxm5G3rizAl0X1CaXuyPvIi4kLNh58zPKgAUnO7ZkREnHJ7V/H+OjsWOY8XESc+233YaEM7o+b6lFue4e7WB+nfPdff3zmOXkTcXT7N6BIfKoDUPKgZIeImirQDlFcH7gpPjqjxogJIye2JJSJujpP2rtCOcVog1o1huMGLCiAlp2tGiLh5vBi+8eSIGi8qgJTyTeydrRkphhmIuKl0jbRiHtrygSwxSOVsLUHNj7kjFadrRvQdKn2fzEe6UqqL5nE7+HFEjfcRJ25xd6uDtMPi+pF1H500s3CpA0NxxTC7+1vGeR9xbteMsIBrpqKOQPbR58iyRreLCSp+VAApOH4SkXbGvJgwd3/QeaIixCQV0UHqxj3h+Md7yY8KIAW3a0a0mykFmse9VaTYeKmBK1uMiTff3VqJkh8VQAqJCz0Ohauyx1W2VhiKGyh3g3V7o1ind6CoaT+QHPnEkslnlT62vgiDjuphIzY2l0lkGVcmnAvLev04osaLCiAFt2tGDlWISbojD8c/wF5Qnk4mO7TJieHL37/f42vrizAkrN+giRVAgWPtWsdrRg5Vo+M+ekdyyKBCecS2y0dvvrs63xB83Jtm2cQKoPfs39WJd7f05uqb3Eil7zBHRSvVB6jf48EB6m5sQuTolnFvn3nfrFl+O60CSHz3/cOFVrrwkTldM5IrJs1HMi6Qni4JoWrHDbnykuVR4Fq/LK4+h+qu56QKoOpU6Z9PR95k12tGcuXo0b33MRaWfwruL+GZLbyPBlziTMMnP6LGqXH296R+l/412T2lAuitec/daMq5XjMiVG9a3HrHTtdM1rpD4zEMuNSNTqrg1pZx4fVf8zHUbpxOqwAKP+sf83OzfyrSi5XIQf3BdD2L9zJ63OpPKhc+qAwKHvX4W3HrOBRwxXyDI1vG5TMM9afQpdfOnloB9P7V/KzY8jskH4ywfcMIveCWSdCG0wsft+IWSa5nZ7qoBWe2jHu7/ahaXtMrgFotQrubcu7XjJTi8YRjWYPnnCgLPTUz3bLxszkVQK1xvUGz0B4e1IyUTs371TThrH3fsBAHBmraMwzygrZZFUDt7LR1hMKDmpFadM067P1gwmLy+Qabl6JJZxgGZlYAnW1vyvlQM9IIjpdEfCzdk5gVDThYvpdYZ4Yh1uXP3AqgTlPOviJCP9YhAxJipMbO+QbNDMOI2RVAraeybnFXHuyWD0UA84kt4yxs0T8xwzBifgVQEDf/8suqplwezpYOIwILyO9c6zYTe26GYdT8CqB2U86exV1+bHsKSNk3VNNafLDyNGd77M+WxV3+1IwAo/LiV4v2tZ82w7C88LMZALSiKefQ+hVgjrNNn/LH1gzD50YVy52m3P4Xd+W7nvpTMwIMnKwZq2nPMHxt2k20aXGXfQMRwLLyu9WCKcL2wvgd1G1Ys06fmhH4Lr9Xf7e+CI3tZhjkwmvaNOX2u5MHNSPw3e4X+ATxfactJgsWd1EzAu/lU27/tr4IufNtz1OYu1+nn9eMuHsINvAEcVbBntpGLWF7huF9nxd5TuoMTi+7y2BqRoDdjta0h/R/dxcejT0v7nL5pFzgOfucc2vX2N52mcBtu12nf6NmBN7b4RE1Qfxdt4u+dzXDINW+5B31qff5+QWsaXdbxrVGt3Y4wyC3x8Vd//Y6CgGsZl9H1IS/+x3Y0trdOn1qRoA9bRkXtGcYdlppptE+hHX7plxEzQiwmyNqOjMM+10voLWjxV3UjAA7WandrrywYAMPtd2s079QMwKI+YaNt4xrLYWyaEddlfYhrNslNjUjwPZbxrUWtNt4xJXMHhZ3UTMCbDztFnxYP8Mgt/k6fUt2ygLMSje7EaLPqQcFWmbbphw1I0Aub2tc13/aUzznoEDrtBZ3rb2Z575KHoGtbLJW+zz/oEDbbLZOn5oRILf+lnGtqgqXZhjktlmnT80IkBNbxq03Gt45KNC1GQapLRZ3fVIzAuTW3DLuzfUZBrnV1+nnoXpZ4XmAnVvtVvBkhkFq5aYcNSOAsNKWce/+zDDIrbi4a0cbLACb+lhh5s27GQa5tdbpUzMCFIzfC50ZhtiXGQa5ziGsxppyOz9cDVhPPgxurtP01j4o0K8ZBrn24i5DoZ/XjGy8vwKwDwa3jGsvYfJxhkHO+OIuakaAkrGbob2nkLczDHKdQ1gXb8pRMwKUzBxR05lh4JCUUe3FXUvPwlAzApTessW3jOvOMNBBlTO1uIuaEaCy+N3QmWHgNtPoHsK61E+lZgSoLbplXHsc/YsZhqe0Fnct1ZSjZgSoLXhETXuG4ZcZhqctvrhrB2dyAHux1LY77WNEmWGYatlDWPNp8tsSlwXYb5EjaoKYGYZXtRZ3vdqU+6JmBKic8nvqtcKs423lrYIctdg6/e2O5AD258Uaqs4MA/fVixY5hJWaEaAl79X8zv3H7a0zLjTgFtD6yPi5HWf9iJCaEaBxzeZuGdceI78xw7CYVw9hfV9ieBVwxczDmtpFq3dmGJb12jp9akaAllndmnNr6REzDG3ROf4Tvbyyvn0I68Sm3EpbOQOWyG+lSYM+ITMM44KHcnuVPPtGmmQiE8d+2txDWF8aXQWck5e0TdgyrjPDwDa+jSDOupLerGY23roSsTj+I+et06dmBGibUgsf+ntQoE6YZgPd+tvpEddd3PVkU07UjPDeAJWnt4wLPD8oUOlct93+up3XKpfu7VdpTsQdph/CSs0I0JFvvfOjvyVa+9QywzBQJlxSDWoGj3SQcTMjbuo6/UWW5AHueKYYPvw1t0WtC8QObVnafhWDSxFJzVdmR9yhu7hL8wFDzQjQlRe4fSgeD5hh0AiGvdJD1bJrZnJeibhDZ57nW1WISM0I0KXeMi5ihkHrOpZwVcbVnwkvRtyzh7DmSXh96ucBflD0bJhheIbYrWVshP+Wf72erX454g69Q1jH349U0ygHfCMdn27dT4sen+Ia0Yh7jDwQdJpxS0Rcd53+6OKu/BFa20BD3IiDBGv1iphhUCqCbPQhUQ1cVcctE3EHzSGsYadzDGBsy7jgozXDEHPDKB0z6eiX6MJWmxwsFnG9Q1i7TTlqRoC+pHeLvjHDMIXop0pW+d5bbaoFI+7QXaffHkUwc/g3YLPf9r13YoZhortksiEneqplM2vZiJMdONBTbAAAEPxJREFUwkrNCNDXOneTGYbp2p3RPtGJjZvvWzLiDqOHsFIzAvRVqxpbJfQzdmL01UkSXULUerAY2BxIX4i43jr9vNFNzQgwkDcFzh/tgwKZYXhapIq4Qy/iZF65gO4hrPn/zDvzAXDWX7j9NNVWn5zeNEXU6osOrRBxh+7iroyaEaDnM8uqJtwXMwwT7SHiWoMM6Q81I0DPR/YjbpCR3bihMyniFh+LaykPYb3POW0IcFp0/8nS+50ZhjlExF1kj/YibuEZ1Z7T5/37585WSkDfb/H5Tx91hlASXYMHzUdcXoX31x4n4oC+WzGOQz91BvHpIHms3cQzHnHFnk5siAmMKMZx/jGZOt1dkVEmVzf0BEk1o0rEAQNBMaX6w3jcZKLxJPlsELFTto3NRlz5BqaKJiXgs6Bc8DjhSFUIip1GxD5LBnYaGarOOEyIOGBcdZPI9zjHOPGyjU7VmNkvbsRbuVY1/iXiAImwvE0SJlanuchavyZ2/R31Xr51vwciDpCqmgIUj0xTnN0wMht96aSauYiLi/ctPyaCiAPkqiPdKR6Z5jL+wXDuRp+xiPss37avAxEHKH2UN8sPxSNTBOlYxhUJ16x7MBRxQbUEXzw/EQeo/FYZx4E0U4TFq9b+YAguRe40XzETcadq699vkbBEHKBUdXooHpmk7OLfqpALzulgWNNIxEXVJljl4AIRB6jVO5tTPDLFsXrZkjiOr9WL2Om7moi4Y7Wx+U855EfEAWr10A7FI5OEzabJtUvnFTQQcR91wlXNRyIO0Ajqc50oHpnk0Qu4pDdns3zEVSOnrXV3RBygc6r3OKd4ZJrzrc639DJ47fL9L0eWAJ/zr895tqB5tmZyiIgDtMLmpGgOip4oEokVrXB6QtD0jFsJScQBelGTcRSP7FTYnBP92/oyEQc84fwz1kLAfkTNkbe39teJOOAZH/UNRPHIHrU+g746DxBxwFPiJuMoHtmd1rvTm/Ym4oDnXKV3Ebb22bw33733hogDntSUJFA8sitBonhniDjgSc0yB4pH9qRVLFIv22oQccCzmmUOFI/sR5i23pXhnldEHPC0oHU3UTzyrPxF+zD2099+Wgk3slaCiAOeF/5rZRzFI88xGnHvrYTLxlrWRBwwQdS+oygeeYrJiLu03o7xdjURB0xxbGdcv0ABYwxG3Gc74X5Hv4WIAyZ5b99VFI88wVjEtae4e8u2GkQcME3cvq8oHtEzFXGn7/Y78SX5LiIOmOi3k3EUj+gYirioPb0tX3BCxAFT3dr3FsUjOmYi7tweFFWMihJxwGSdMSCKRzSMRNxHJ+EUY6JEHDBZ0D15heIRJRMRd+28AcNlWw0iDpius8yB4hG15SMu6A4VjCzbahBxwAxhN+MoHlFYPOJ6jeixZVsNIg6YI/zp3mbHrS9ov5aOuN7Hi+ZnE3HALG+9jKN4RGbhiIv+dRNOM6NNxAHznLt3WnbZ+oL2atmIe+9+tGRXzfcTccBMH72Mo3hk3KIRF/dedMmyrQYRB8z127vdvphYHbNkxH32X3LtvyDigNn6N9z3Cme+22e5iGsf0iA8cU4QEQfM17/lKB4ZsVjE9YpFnqtHJOKA+QY3HcUjQ0tFXL9Y5LkPFCIOeEHw3c84ikf6Foq440//pX6qyUzEAa849ZsWFI/0LRNx/WIR9bKtBhEHvCTs33r6OgbPLBJxl/6rrF621SDigNdEg4yjeKRjiYi79V/jp38iEQe86DzIOIpH2l6PuO4hDcLTG5ESccCr+sscsix9bpzIDy9HXNif09Ev22oQccDLBgNFFI+0vBpx0WBGZ8pwJxEHvK6/zOEv44yd/26dFyNuOA7wxLKtBhEHLKC/zCGjeKT2WsQNRwGeWbbVIOKABYwMiFM8Unop4q7D13XaNvJEHLCEwTKHjOKR0gsRN1h3n01eB0zEAYsIhoPiFI8I8yNusAQ4e3bZVoOIA5YR/hvejxSPHF6IuMG6+zzh3ib+ECIOWMhwmcPzy4xcNjfilnk9iThgKSPlDRSPzI64wbr7bNbPIeKAxbyP3JTZ79ZXtbV5Edc/pEGYUYhDxAHLGb0vb55PrM6KuGExdTZl2VaDiAMW1D+xRvC8eGRGxI0Vi8wsNCTigCUNd/358+31kQ7TI26syHDuJwURByxqZJmD58UjkyNurFhk4rKtBhEHLGqsXNXv4pGpETc4pKH4lJjZ2yfigGWNLXPwunhkYsR9jCfc3L4+EQcsbLyfNWs60AnTIm649574hJg9mknEAUsbK8vP/C0emRJxweh0zfRlWw0iDljc+GjS3AFz202IuLE9qbLXRjKJOGB5o8scfC0eeT7iRg5pEF4ZxyTiAANG9qrN/fOxeOTpiItG9mrJvbR/MhEHmDC6zMHP4pFnI25sF4Pca/M0RBxgxOgiyxc7XXZ6MuJG1/dmL+8PT8QBZowus3y5UWKh5yJu5JAG4dUFvkQcYMb4MofMv+KRZyJufN19tsAsNBEHGDK+mHyJ29YuT0Sc9ONg7rKtBhEHmCJZ5uBb8Yg+4qQv1OxlWw0iDjAmlMwR+lU8oo24N9nLNH/ZVoOIA8yR37weFY/oIm70kAbxIs1fttUg4gCDZLVeWRZvfWmr0UScrFgkyxb5GCDiAJMkyxwyj4pH1BEnqx9cqoKQiAOMGt8cKJd4MrGqijhpsciLy7YaRBxglryZ4knxiCLiTrK6miz7XOjZiTjAMHlDZYGaCAvIIy6SFYu8vGyrQcQBhkk2Qct5UTwijTjJtnq55c5lJOIA06TLHPwoHpFF3PghDcL3cl14Ig4w7iTvkHlQPCKJOMl2U7nXl211n4aIA8ySLnPIlhtX363RiJMc0lAk3JJDlEQcsALJiTWC68UjYxEnXXf/52fRAUoiDliDfJmD88UjIxEnO6RBJNwSy7YaRBywCsmJNcv3zHZnGHGyQxqEhSdgiDhgHfK1mEv3zXZmEHGqFu3iG78TccBKZFt3i4x73/rqzOlHnCrrl1q21SDigLUoJhFdLh7pRZx8QVtmYnqZiAPWoljmYOTu3olOxCnW3WcLLttqEHHAahTLHDJ3i0faEacqFlly2VaDiAPWEyiWOThbPNKKOOkhDcKCy7YaH/f73dkGMrA36nvczeKRJuKk+7wXv72bCQ94RbXMYfGy132oI056SIPD+Q74RrGDUOZm8UgVccpiEbdLAwGPqJY5ZC4Wj5QRpywWcbP9CnhJ3Zpxr3hERJy6YGbxZVsAtqPYKS3nWvFIHnGxslxm+WVbADakXObgXPFIHnHKcjgDy7ZqQfTHrdcT2D9Nr82tycU84tSNOEN989Oj/iy5PQYxdxoPP5GJJzMXBPhCXeTv2OB7HnGq3ZOyxMjTnnrbHlx7uSWGRIfTuFH+ZffmfIB1qZdyuVU8oqx2zsws2xqd1ImH30DEAWaolzk4dZel6kackWVbzWr/e5LUTebORA4RB5ikOrFGcKZ4JFUOxRlZtlUNBFyPxX9HZae1PZFDxAFGqRds9tscFktVE6pmZlaK57u1Rt/KE79aGUfEAWadNRFnpgu3PlXEmVm2dRE/u1dNXLzcTXkKEQcY9qHLODeKRxQR93M08YTRWMJVGVeHGhEHmKZZ5uBI8YhiLM7Msi0x1fAYfl007urtMYk4wDj10vRMuyrACn/5Jpk+NrNsS4TU2Ea/xYakVaoRcYB5ypMMsh8XEi6P6fGZlV8zr6mYPR3tAYuuanU+BBEHmKfcgONHUx9siW9JwpmqihE/XPFQOYlDxAErUCxz+KerDrbEz8/oL2Jm2dbhcMx/+HX8sXYDj4gD1nCSBVmqXNdpk++xGDezbOtQRpdkHkPE36X1fUQcYJpkmcO3rjLYHveRIUVzNX9ieFNSbXPKHyubj0QcsI7RE2vu7iRc9j2MOIOnbYknkz2YNQ+KiHtEfY/8y0QcsKDzMM6cmEqtDCeGTdY0iyeQPdjKP9X+8kQcsKTBMgenEm746xg9bUs8oexB0Yst/i8RB6zm0rvFNLsCW6ebcWaWbVXyZ5DO1hJxwCZ6O9S6URDX0sk4s6dt5c/wdMTdkz5xpUQcsLDuiTXjlWQ2a2Wc4dO28qd4OuKYUQXW0Vnm8OPaYFzWKoIxtGyrJp5E9mDaPEjEAWtqL3NI3eup1hlnfDPjVkNtKH8sLf4vEQesKmg6p7JVnXYTyzVMLdtqiGFNyZRtmD9WrsMn4oB1hfWKrbt0+yGr/UvNLdtqiNrdkd3i6sfK/CLigJXVyxz+Ii65O+jrtsJW7e1FWn1iUqcsOybigLVVyxy+zQ/KO0xM1YyeZy/SrxyKI+KA9b0XEZcScS8QG1+O7qZ0bccXEQesryi5/yHiXhBk4+FVTDbU7TsiDthAfmJNPu1AxM0nwmu4l0lxfvSl811EHLCyW7F8i4h7gciyey/jioTL6q8SccAmvsTSBiLuBUWPtLtjU3jv9V+JOGATwZ2Ie9WxmLa51POqQbmvSGsHACIO2IZYrkrEveRcVhgm8TGKjnG1yUF7jxMiDtjIjYh7WTi2PKSzTx0RB2yEiFtAMNjy8tqdfyDigI0QcYs4xa2WXHrpr3c45xtgDs+QCPMvm920E/AcEbeU8HHJE+vyMHgcDoCJiDgADiPiADiMiAPgMCIOgMOIOAAOI+IAOIyIA+AwIg6Aw4g4AA4j4gA4jIgD4DAiDoDDiDgADiPiADiMiAPgMCIOgMOIOAAOI+IAOIyIA+AwIg6Aw4g4AA4j4gA4jIgD4DAiDoDDiDgADiPiADiMiAPgMCIOgMOIOAAOI+IAOIyIA+AwIg6Aw4g4AA4j4gA4jIgD4DAiDoDDiDgADiPiADiMiAPgMCIOgMOIOAAOI+IAOIyIA+AwIg6Aw4g4AA4j4gA4jIgD4DAiDoDDiDgADiPiADiMiAPgMCIOgMOIOAAOI+IAOIyIA+AwIg6Aw4g4AA4j4gA4jIgD4DAiDoDDiDgADiPiADiMiAPgMCIOgMOIOAAOI+IAOIyIA+AwIg6Aw4g4AA4j4gA4jIgD4DAiDoDDiDgADiPiADiMiAPgMCIOgMOIOAAOI+IAOOz99/f3uPVFAAAAAAAAAAAAAAAAYE3ROf4Tnba+DgBYWPBIskp6DfsPi/Ab/qso/zKRCGDfgjjrSqLuN4j8G/478c+i4dcBYD/CNBu4dL6DiANgq3Pddvvrdl7v5X/cg9a3EHEALFUmXFItTg0e6SDjiDgAdoqKKYZ2UAWXIuOarxBxAKwUDHulh6pl18yhEnEArHQdS7gq4+p6ECIOgI1OIsoGCVfsjpndqv8i4gDYSDTiHiMPBJ1mHBEHwEJFkI0+FLer44g4ABY65hl1HX1IdGHT8j+IOAAWEv1UyWkN91ZPlYgDYKG7ZLIhJ/LrXPx/Ig6Ahdqd0b5jqzSOiANgHzHelkgejFoPioiLBxIiDsB+RaqIO/QjToKIA7BPUXeZVg8RB8BqRBwAh02LOMbiAFhFRNxF9mg/4obfwYwqgB0LVdMNIREHwG55RN0lj7WbeEQcAAvdx6NLYHUDAMtdFRklYi1s/f/htxBxAPZMsdOI2GeJnUYA2ExUto2uw2e/OADWu8gq49j1F4D9irMbwuEDl049CREHwEoiymQncNXRR8QBsFKQjmVckXDNugciDoCdwuFi+kA07do1wUQcAEsVLbbsVkVVcE6zfsuOiANgq2O5K1KWxHF8rfZN6vRdiTgA1grv2cClMzpHxAGw2KMXcEkvt4g4AFY73+p8Sy+DOrlzvgHm8B9F+ZdPw68DwO5EIsgiIgsAAAAAAAAAAAAAAAAAAAAAsLX/i9kTMzS92oIAAAAASUVORK5CYII=;" vertex="1" parent="7mjdrCKgkBbXvNlTKw9o-71">
          <mxGeometry x="15" y="45.14999999999998" width="190" height="100.85" as="geometry" />
        </mxCell>
        <mxCell id="7mjdrCKgkBbXvNlTKw9o-72" value="" style="curved=1;endArrow=classic;html=1;fontSize=16;entryX=0.22;entryY=-0.003;entryDx=0;entryDy=0;entryPerimeter=0;exitX=0.188;exitY=1.013;exitDx=0;exitDy=0;exitPerimeter=0;strokeWidth=2;" edge="1" parent="1" source="7mjdrCKgkBbXvNlTKw9o-41" target="7mjdrCKgkBbXvNlTKw9o-68">
          <mxGeometry width="50" height="50" relative="1" as="geometry">
            <mxPoint x="420" y="990" as="sourcePoint" />
            <mxPoint x="427.2399999999998" y="830" as="targetPoint" />
            <Array as="points">
              <mxPoint x="510" y="880" />
            </Array>
          </mxGeometry>
        </mxCell>
        <mxCell id="7mjdrCKgkBbXvNlTKw9o-74" value="" style="group" vertex="1" connectable="0" parent="1">
          <mxGeometry x="545" y="840" width="225" height="80" as="geometry" />
        </mxCell>
        <mxCell id="7mjdrCKgkBbXvNlTKw9o-70" value="&amp;nbsp; &amp;nbsp; &amp;nbsp;PFK-1&amp;nbsp; &amp;nbsp; &amp;nbsp; &amp;nbsp; &amp;nbsp; &amp;nbsp;FBPase-1" style="ellipse;whiteSpace=wrap;html=1;fontSize=16;" vertex="1" parent="7mjdrCKgkBbXvNlTKw9o-74">
          <mxGeometry width="225" height="80" as="geometry" />
        </mxCell>
        <mxCell id="7mjdrCKgkBbXvNlTKw9o-73" value="" style="endArrow=none;html=1;strokeColor=#000000;strokeWidth=1;fontSize=16;entryX=0.5;entryY=0;entryDx=0;entryDy=0;exitX=0.5;exitY=1;exitDx=0;exitDy=0;" edge="1" parent="7mjdrCKgkBbXvNlTKw9o-74" source="7mjdrCKgkBbXvNlTKw9o-70" target="7mjdrCKgkBbXvNlTKw9o-70">
          <mxGeometry width="50" height="50" relative="1" as="geometry">
            <mxPoint x="113" y="70" as="sourcePoint" />
            <mxPoint x="165" y="30" as="targetPoint" />
          </mxGeometry>
        </mxCell>
        <mxCell id="7mjdrCKgkBbXvNlTKw9o-81" style="edgeStyle=none;rounded=0;orthogonalLoop=1;jettySize=auto;html=1;exitX=0;exitY=0.5;exitDx=0;exitDy=0;startArrow=none;startFill=0;endArrow=classic;endFill=1;strokeColor=#000000;strokeWidth=1;fontSize=18;" edge="1" parent="1" source="7mjdrCKgkBbXvNlTKw9o-79">
          <mxGeometry relative="1" as="geometry">
            <mxPoint x="390" y="950" as="targetPoint" />
          </mxGeometry>
        </mxCell>
        <mxCell id="7mjdrCKgkBbXvNlTKw9o-89" style="edgeStyle=none;orthogonalLoop=1;jettySize=auto;html=1;exitX=0.5;exitY=1;exitDx=0;exitDy=0;dashed=1;dashPattern=1 2;startArrow=none;startFill=0;endArrow=classic;endFill=1;strokeColor=#33FF33;strokeWidth=2;fontSize=18;curved=1;entryX=0.224;entryY=0.988;entryDx=0;entryDy=0;entryPerimeter=0;" edge="1" parent="1" source="7mjdrCKgkBbXvNlTKw9o-79" target="7mjdrCKgkBbXvNlTKw9o-70">
          <mxGeometry relative="1" as="geometry">
            <mxPoint x="370" y="1050" as="targetPoint" />
            <Array as="points">
              <mxPoint x="440" y="1020" />
              <mxPoint x="510" y="1000" />
            </Array>
          </mxGeometry>
        </mxCell>
        <mxCell id="7mjdrCKgkBbXvNlTKw9o-82" value="&lt;font style=&quot;font-size: 18px&quot;&gt;AMP&lt;/font&gt;" style="text;html=1;strokeColor=none;fillColor=none;align=center;verticalAlign=middle;whiteSpace=wrap;rounded=0;fontSize=16;fontStyle=4" vertex="1" parent="1">
          <mxGeometry x="350" y="940" width="40" height="20" as="geometry" />
        </mxCell>
        <mxCell id="7mjdrCKgkBbXvNlTKw9o-83" value="" style="curved=1;endArrow=diamond;html=1;strokeWidth=2;fontSize=18;exitX=1;exitY=0.5;exitDx=0;exitDy=0;entryX=0.238;entryY=0.038;entryDx=0;entryDy=0;entryPerimeter=0;strokeColor=#FF3333;dashed=1;dashPattern=1 2;endFill=1;" edge="1" parent="1" source="7mjdrCKgkBbXvNlTKw9o-77" target="7mjdrCKgkBbXvNlTKw9o-70">
          <mxGeometry width="50" height="50" relative="1" as="geometry">
            <mxPoint x="660" y="900" as="sourcePoint" />
            <mxPoint x="710" y="850" as="targetPoint" />
            <Array as="points">
              <mxPoint x="599" y="810" />
            </Array>
          </mxGeometry>
        </mxCell>
        <mxCell id="7mjdrCKgkBbXvNlTKw9o-84" value="" style="endArrow=diamond;html=1;dashed=1;dashPattern=1 2;strokeColor=#FF3333;strokeWidth=2;fontSize=18;curved=1;entryX=0.796;entryY=0.913;entryDx=0;entryDy=0;entryPerimeter=0;endFill=1;" edge="1" parent="1" target="7mjdrCKgkBbXvNlTKw9o-70">
          <mxGeometry width="50" height="50" relative="1" as="geometry">
            <mxPoint x="470" y="910" as="sourcePoint" />
            <mxPoint x="380" y="1040" as="targetPoint" />
            <Array as="points">
              <mxPoint x="670" y="970" />
            </Array>
          </mxGeometry>
        </mxCell>
        <mxCell id="7mjdrCKgkBbXvNlTKw9o-90" style="edgeStyle=none;orthogonalLoop=1;jettySize=auto;html=1;exitX=0.5;exitY=0;exitDx=0;exitDy=0;dashed=1;dashPattern=1 2;startArrow=none;startFill=0;endArrow=classic;endFill=1;strokeColor=#33FF33;strokeWidth=2;fontSize=18;curved=1;" edge="1" parent="1" source="7mjdrCKgkBbXvNlTKw9o-82">
          <mxGeometry relative="1" as="geometry">
            <mxPoint x="580" y="910" as="targetPoint" />
            <mxPoint x="470" y="970" as="sourcePoint" />
            <Array as="points">
              <mxPoint x="410" y="890" />
              <mxPoint x="490" y="920" />
            </Array>
          </mxGeometry>
        </mxCell>
        <mxCell id="7mjdrCKgkBbXvNlTKw9o-94" value="P&lt;sub style=&quot;font-size: 18px;&quot;&gt;i&lt;/sub&gt;" style="text;html=1;strokeColor=none;fillColor=none;align=center;verticalAlign=middle;whiteSpace=wrap;rounded=0;fontSize=18;fontStyle=4" vertex="1" parent="1">
          <mxGeometry x="830" y="870" width="40" height="20" as="geometry" />
        </mxCell>
        <mxCell id="7mjdrCKgkBbXvNlTKw9o-97" value="" style="curved=1;endArrow=classic;html=1;fontSize=16;exitX=0.188;exitY=1.013;exitDx=0;exitDy=0;exitPerimeter=0;strokeWidth=2;entryX=0;entryY=0.25;entryDx=0;entryDy=0;" edge="1" parent="1" target="7mjdrCKgkBbXvNlTKw9o-99">
          <mxGeometry width="50" height="50" relative="1" as="geometry">
            <mxPoint x="759.1999999999999" y="672.56" as="sourcePoint" />
            <mxPoint x="1010" y="680" as="targetPoint" />
            <Array as="points">
              <mxPoint x="890" y="600" />
            </Array>
          </mxGeometry>
        </mxCell>
        <mxCell id="7mjdrCKgkBbXvNlTKw9o-98" value="" style="curved=1;endArrow=classic;html=1;fontSize=16;strokeWidth=2;" edge="1" parent="1">
          <mxGeometry width="50" height="50" relative="1" as="geometry">
            <mxPoint x="1000" y="760" as="sourcePoint" />
            <mxPoint x="760" y="760" as="targetPoint" />
            <Array as="points">
              <mxPoint x="900" y="850" />
            </Array>
          </mxGeometry>
        </mxCell>
        <mxCell id="7mjdrCKgkBbXvNlTKw9o-99" value="Fructose 2,6-phosphate" style="rounded=1;whiteSpace=wrap;html=1;verticalAlign=top;fontSize=16;" vertex="1" parent="1">
          <mxGeometry x="1000" y="640" width="200" height="160" as="geometry" />
        </mxCell>
        <mxCell id="7mjdrCKgkBbXvNlTKw9o-100" value="" style="group" vertex="1" connectable="0" parent="1">
          <mxGeometry x="800" y="640" width="175" height="170" as="geometry" />
        </mxCell>
        <mxCell id="7mjdrCKgkBbXvNlTKw9o-101" value="&amp;nbsp;PFK-2&lt;br&gt;&lt;br&gt;&lt;br&gt;&lt;br&gt;FBPase-2" style="ellipse;whiteSpace=wrap;html=1;fontSize=16;" vertex="1" parent="7mjdrCKgkBbXvNlTKw9o-100">
          <mxGeometry y="-10" width="175" height="180" as="geometry" />
        </mxCell>
        <mxCell id="7mjdrCKgkBbXvNlTKw9o-104" style="edgeStyle=none;curved=1;orthogonalLoop=1;jettySize=auto;html=1;exitX=0;exitY=0.5;exitDx=0;exitDy=0;entryX=1;entryY=0.5;entryDx=0;entryDy=0;startArrow=none;startFill=0;endArrow=none;endFill=0;strokeColor=#000000;strokeWidth=1;fontSize=18;" edge="1" parent="7mjdrCKgkBbXvNlTKw9o-100" source="7mjdrCKgkBbXvNlTKw9o-101" target="7mjdrCKgkBbXvNlTKw9o-101">
          <mxGeometry relative="1" as="geometry" />
        </mxCell>
        <mxCell id="7mjdrCKgkBbXvNlTKw9o-108" value="ATP" style="text;html=1;strokeColor=none;fillColor=none;align=center;verticalAlign=middle;whiteSpace=wrap;rounded=0;fontSize=18;fontStyle=4" vertex="1" parent="1">
          <mxGeometry x="770" y="540" width="40" height="20" as="geometry" />
        </mxCell>
        <mxCell id="7mjdrCKgkBbXvNlTKw9o-77" value="ATP" style="text;html=1;strokeColor=none;fillColor=none;align=center;verticalAlign=middle;whiteSpace=wrap;rounded=0;fontSize=18;fontStyle=4" vertex="1" parent="1">
          <mxGeometry x="440" y="780" width="40" height="20" as="geometry" />
        </mxCell>
        <mxCell id="7mjdrCKgkBbXvNlTKw9o-79" value="&lt;font style=&quot;font-size: 18px&quot;&gt;ADP&lt;/font&gt;" style="text;html=1;strokeColor=none;fillColor=none;align=center;verticalAlign=middle;whiteSpace=wrap;rounded=0;fontSize=16;fontStyle=4" vertex="1" parent="1">
          <mxGeometry x="440" y="940" width="40" height="20" as="geometry" />
        </mxCell>
        <mxCell id="7mjdrCKgkBbXvNlTKw9o-116" value="ADP" style="text;html=1;strokeColor=none;fillColor=none;align=center;verticalAlign=middle;whiteSpace=wrap;rounded=0;fontSize=18;fontStyle=4" vertex="1" parent="1">
          <mxGeometry x="980" y="540" width="40" height="20" as="geometry" />
        </mxCell>
        <mxCell id="7mjdrCKgkBbXvNlTKw9o-119" value="" style="shape=image;imageAspect=0;aspect=fixed;verticalLabelPosition=bottom;verticalAlign=top;fontSize=18;image=data:image/png,iVBORw0KGgoAAAANSUhEUgAABHEAAAKbCAMAAABFOeatAAADAFBMVEX///+AAAAAgACAgAAAAICAAIAAgIDAwMDA3MCmyvD/8NT/4rH/1I7/xmv/uEj/qiX/qgDckgC5egCWYgBzSgBQMgD/49T/x7H/q47/j2v/c0j/VyX/VQDcSQC5PQCWMQBzJQBQGQD/1NT/sbH/jo7/a2v/SEj/JSX+AADcAAC5AACWAABzAABQAAD/1OP/scf/jqv/a4//SHP/JVf/AFXcAEm5AD2WADFzACVQABn/1PD/seL/jtT/a8b/SLj/Jar/AKrcAJK5AHqWAGJzAEpQADL/1P//sf//jv//a///SP//Jf/+AP7cANy5ALmWAJZzAHNQAFDw1P/isf/Ujv/Ga/+4SP+qJf+qAP+SANx6ALliAJZKAHMyAFDj1P/Hsf+rjv+Pa/9zSP9XJf9VAP9JANw9ALkxAJYlAHMZAFDU1P+xsf+Ojv9ra/9ISP8lJf8AAP4AANwAALkAAJYAAHMAAFDU4/+xx/+Oq/9rj/9Ic/8lV/8AVf8ASdwAPbkAMZYAJXMAGVDU8P+x4v+O1P9rxv9IuP8lqv8Aqv8AktwAerkAYpYASnMAMlDU//+x//+O//9r//9I//8l//8A/v4A3NwAubkAlpYAc3MAUFDU//Cx/+KO/9Rr/8ZI/7gl/6oA/6oA3JIAuXoAlmIAc0oAUDLU/+Ox/8eO/6tr/49I/3Ml/1cA/1UA3EkAuT0AljEAcyUAUBnU/9Sx/7GO/45r/2tI/0gl/yUA/gAA3AAAuQAAlgAAcwAAUADj/9TH/7Gr/46P/2tz/0hX/yVV/wBJ3AA9uQAxlgAlcwAZUADw/9Ti/7HU/47G/2u4/0iq/yWq/wCS3AB6uQBilgBKcwAyUAD//9T//7H//47//2v//0j//yX+/gDc3AC5uQCWlgBzcwBQUADy8vLm5uba2trOzs7CwsK2traqqqqenp6SkpKGhoZ6enpubm5iYmJWVlZKSko+Pj4yMjImJiYaGhoODg7/+/CgoKSAgID/AAAA/wD//wAAAP//AP8A//8AAABYWvgoAAAAAXRSTlMAQObYZgAAAAFiS0dEAIgFHUgAAAAJcEhZcwAADsQAAA7EAZUrDhsAACAASURBVHic7d1be6I6GIZhz/z/fxFl7KCVRZle9oxVCHuSgOyy4bnPpjotrfKafNmdTgAAAAAAAAAAAAAAAAAAAADgjWvWl5q+JADeInEA7IfEAQAAAAAAAAAAAAB44xo942LsO37cLqYvBoDPgijtzLhJbqavCICvgmgwyS9LyRwAW7imw8DJe1eB6QsD4J+bNG9yV9OXBsA3deCk9zCvGF/O95TIAbCJKnDisP3FlMgBsL5qYfir9/V72e6hlgNgPYmqLVO2fR4GrgmApyJ156mMnFDyEADMEOiqNaJjFe98SQC89SpC5S5/UBtHAPAuMSSlqg7fqOQAWM91JFJEI2fHCwLgMdGpOisff1A7BrCa50gb5lw8Hu13QQA8NjoYxWgVgLUEo5XhhEIOgJWEo52msW4XAEwlEke381bEjBwAK3mNDkVFDFYBWMl4npA4ANZC4gDYD4kDYD9nEgfAbkLp7n9tD0bHAazkMjofJyZxAKyFVQ4A9jPWhLnqNuwCjuZngJMH3jK2W8V95HHgULIB5uO/5TKylDOljAM0SJylxNrwi+JRdh0F2uhVLSUy5Sl/MEiZjQNgTalm+TinxwBY103dG+WEPABri1WRUwaOoscFADNcypp7f63Dvfw6lTEAKzqX0RK3u0+3lME/AFu4VVMLkijMx8kv53uVN9odSQFghqqVw/QmADu4JtK8iVUzAwFgidcwb1J6VAA2ErzSbvuGvAGwpevrKSbnxI8b/SkAAADg2ILwFx0DAJu73uN6Rtud3esAbOjWHXHJsoh1QQC2ce7nTZE5pq8KgI+Ch3yqfkJFB8DagtZU/SSO41bmsDxoqiDfutX0RQAOqAMnvZcBc7nFRM6bigOqTF8E4IAqcDqz88OYyHkLiQNMUm5Z9+wPTUVlN4shq0lIHGCKUASL5GilGyNWbyBxgClSVeDUkcOA1RQkDjCBSBXFyUpPdRqhh8QBJkh05eHytAIqOROQOMC4q6gaqx4W1eP+8SiQIHGAcSJSlMs2RSMn2fOKXEXiAOPErBv14wndqolIHGCcvlNV7RvO1hXjSBxgVDg242b0CSiROMCo22gTRjd4jhYSBxglCseh5hkpiTMNiQOMikYLw2OlZZRIHGDUeJ6QOBOROMAoEmc1JA4wisRZDYkDjCJxVkPiAKMiEmctJA4wanx0nPk4E5E4wKjz2AzAgB1yJiJxgFFibfhd/QRWOUxF4gDjxnajuI92uyCQOMA4cRineifjlMLxRCQOMO6s7zWFlHGmInGACTLtyqqY7XGmInGACSJd7Vi0gNJ9r8hRJA4wgRj+ljdjysdussfQQ+IAU5SH/UrOjwkSmjjTkTjAJCJXhiPggeoByJA4wCTiyKrBgFV5HrlueiBaSBxgmvJ48SxtFWzCuPyi5pwHtJE4wERV5PzmS3QOw/D1SKsvxBxVNRGJA0wVZgrM/ZuMxAEmu8TSwGHq33QkDvCGczrIm4ge1RtIHOAt52c7bpIbefMWEgd4Vxjd41+P6EzcvIvEAbAfEgfAfkgcAPshcQDsh8QBsB8SB8B+SBwA+yFxgBnC5Jfpi3ARiQPMcObGmYfEAWYgcWYicYAZSJyZSBxgBhJnJhIHmIHEmYnEAWYgcWYicYAZSJyZSBxgBhJnJhIHmIHEmYnEAWYgcWYicYAZSJyZSBxgBhJnJhIHmIHEmYnEAWYgcWYicYAZSJyZSBxgBhJnJhIHmIHEmYnEAWYgcWYicYAZSJyZSBxgBhJnpgsbRAPvI3EA7IfEAbAfEgfAfkgcAPshcQDsh8RxUfiK4l/P6HYxfSnAW1xNnGv0jPNLz+LH0e668JG1pPeD/fpwm5OJE0Rp+6bLktsuPzbKhpL4vm/ihfHgGh5kDpzhYOIEkjs/3SNzZIkj2lnhDj+9EDylFxDt9fOBhdxLnGsqveniYPOfrEycLHtu/9Nzit99l98eWINziXNT3vXXrX+0JnGyZI9b/tr8uOgWhuHtnuz684HFXEucOnDSe5iXLy7ne/25v3Xk6BInizf+4adW4ERN4eZSlZGJHDjBscSpAqdTOblVmbNx5IjE6X7teq5u+de2P/x0Cspfs9eDuyS7RR6wmFuJc1Xc3fey3bPt57wscVoXtXUjoywaD2vkZeZRPoYD3EqcRNWWKds+j01/uiJxqsjZeLjsrP4pZeQwSA77OZU4kbrzVEbOpsPUqsQ5vURvZ8uffTqlmliLd8hbYA0uJU6gq9bcty9mKBPnlCkfWc1N9/tdaOTAES4ljmhK3OUPDuLoJ1tL9T3ViSNKLJsWcmJtpohLo5ID67mUOKn2vr71ehZ7Jo54ZMsunWjFKJtwIm/TDS8AWIVDiXPtRUpf1g0EvxJH5Km6OP3sXClgK4cSR3SqzsrHH93bfv/E2bKMIn45db9NJNLmc4KAhRxKnKfyhhfE8HFdy7ie11Ld5+rEiUcubbmiR6k5O0J0qzYeLgMWcyhxintKNxg1+oSFlIkjbvdNz5IZDZQikijkwHbuJI64rXVzTpKNWxrKxBEPKAbRVhF2228S2zezgBW4kzjjN91Yt2upkTnHddk2TKaYVEKqv+VomWb7UhKwAtcSR7eUIOre+KtTJI6oaLe6c+dJYfJW4ojCsG4wbPvhMmAF7iTOy/hNJ0mca7NZRpN0GyTO+K9G4sAJ7iSO+ZtOuz9Oq8dD4gAqJM67VyDXrmhff9SiKcPxw1/B/C8PrILEefcKpLaeekcdB55wJ3HOxm86ZeJsf2TUeNlcrJ1n61FYzp3EGR8gfmTb/jKyxImf0R7tCjEAz3wcOM+dxLm8edPtua5qe8WP1s05Fvm32/UA87iTOO+ucvArccaaMCKP2QUQtnMoccZuOtHzqNca+JU4986VDInZSvuchgzM51DijO1Wce8+7lfi9OJ0QCyaoHAM2zmUOGMdh7QbCHvuVrED/QaIoqzOZhWwnkOJU36Oq0ai+7uOrs9o4uh3Mo7pVMENLiXOTfdBXp5YueVQtdHE0R5kITqc7I4D+7mUONojm4yeHrMH8dOlx47uc0QfsAKnEuem/pw3ekLeLspGXDKMnDJwNt2DEFiHU4lTlivUpwBvWzo1mzhldThL+799tVSdgxzgALcSpzx7crDW4V5+fdvRYcOJU6+yiNq/5qU8dJw+FZzgVuLUn+dxu/t0G26KtQnTiXOqwiW7l79+cG6+ZPC6gMkcS5yq+5RlSRTm4+SXZhO+zT/ljSdO3ZbLO1dxHKfNPzmpCm5wLXE0G+xtXscwnzhN4Pa0ZmIHTDyGxYJ8Uq3pi3jLVX4KQrz9MQYWJM7p8pT87o9WyARf/xE5wJpew3su3aNuakPinE5hP3Me7awNvrKMyAFWFbzSzj0X7zNOY0fi/LZzXnXopI9bN16KBiCRA6zs+nqKyTnx43bIY+HCX5LKVfhN5ADYDZEDYEdEDiAX5D2DQ3aJNkXkwC7XcGj/i7jHVfUzubs1PG89IgdWqW/17njPnvf9Le399IjbY0VEDmwiT5y9JrX8OvfzpsicfX72MRA5qAXhLfolOVt6L8rE+W3o7PAeDR7yn51Q0VkPkYPC9d76eI9fZu4xTeLI9ntaWdBapJDEcftinNrg5ZL8Mn0RakQOft8Fg3v9YSJzyplzHfUVbX0cQB046b0MmMut/ukuRU6x8Z7pi9Agcg7vIm1b3Pd/SxTX0d8Q+FJt97Rx/bgKnE7JqI5ihyLH9sQhco5OtctCsvtdJk2cerfcbQ8EKDd4efbvgzLvtu/Urcb6xCFyjq3Z2CSN88pxq8Gzd+QoEqeKnC0vp9yqV3KoVPn3cWfEyv7EIXKOrA6ce31DXx+GIkeVOCOHsK0hVQVO/RdyZsDKgcQhco4rlFZt6t2V9r3NlIkj9i2vHwnWOUP3T/MDbpnqR/96qtPIRi4kDpFzVOV5isPTlMq9pfYdZVUmjmiC1IUc9f6eb2kVhhJdk648p8GVu8OJxCFyDqpsy0hutbIvseu+2OrEEcWl6l+rJ44oFCnH36P9/xQLuJE4RM4hhcrAqVs5e74jjCWOiBTl8Lto5Fg8q67DkcQhco5I3MiKRUviwT3HaNSJk3Ru+dUTpxtoih/vSrfKlcQhco6nV5DtufZuy+0pEyfQXuhyxbfXTGp+6dtAdnEmcYicw7nrmjjVQYs73mfKxLlt29wKx7796BNs4k7iEDlHk+g7E6LzsuOosCpxAjFbZrPZQbfRaN24jbUqhxKHyDmWYCxRdulWBedz9YZTJE65i8R2FyIKx7pdOlISZxtEzpGc9Z2qqls1fxZgWM21+/ipJJV/rRJu1XiRJ05YrrHcbleuaLQwPFZatolTiUPkHMnoR7u6YNrM+r1XWfKswyR7Vydxks42x9Gj2rdnwxbGeJ6QOJshco7jOXYb9QqmcadhsqJO4qhs+JYkcUwicg5j9DYShZ579U/ZJsC7Jc6Wi0pJHKOInKMouj/azkrWecbcxEmr7lZcl3NuVaesEyTqxBlsW7MqEscsIucgunky/oxh4nzXtZvPKkuiusLz/gWpEuex8a4ZEYljFpFzDO8mzh9pw2RFkn2OH9Ft+NPW3q1ifHR8/E9lDwcTh8g5hncTZ3PqdVVda6+rEt9P0ygbnblkExcTh8g5BBKnJNaX3dU/kFUOmyNyDkBMf9E9Y+ePdlOJI35PzV9CLEAzd3TgW9xMHCLnAEbLoXt/tBtLnLHJ1enYX8omjiYOkeO/aOQ+m7DCcV1TE2d1Z320iuR1pIzjbOIQOd4bXVclOhP7HehgLHFEt0o5rTneOXmXcTZxiBzfXcY+uvfuTJhLHNHcU9SOz70+mOXcTRwix3cj++Nc9+5MmEuc8kwLaTOmfGy7pesrczhxiBzPvfS3kj17AG6vPOxX0oMMEreaOE4nDpHjt4v2XiqPadrxegwmTtneG46AB6oHrOV04hA5fnvoxmhsOsthe+XZ5v3ftz6z1MxVzeF24hA5XrtoPr+tOq9qB9UB7GmrlxlWa0s15zxYx/HEIXK8dleWL27Sj/xtGU2cOnJ+8yU6h2H4qrcfzGKX3v6uJw6R47PylIRhediyc8d3EWYKrsz9E5xPHCLHZ1X54t55eS/leeQ7zv7LGU6c00W+QY8rU/9K7icOkeOzui8R1csdro/qazsP0JhOnNPpPNx1LHLtfe9B4hA5PmvKF2kc/Wp9zu/94X7P9+AyPCp0frbjJrm596b3IXGIHJ9dM7l03y6VPcLoLrYfPDv5hvcicYgcnwUPWeDcebHd5EfiEDleCwcl08f8kzhhlieJQ+T47XJvHaUZv3iZ3eVL4hA5vgvCW145Pruzgggy3iQOkQM4wJ/EIXIA+3mUOEQOYD2fEofIwW7OPt04e/IqcYgc7IXEmcmvxCFysBMSZybPEofIwT5InJl8Sxwix2f5S2vJ5gwkzkzeJQ6R4zESx33+JQ6R4y8Sx30eJg6R461vEsd5PiYOkeOrlMRxnpeJQ+R4isRxn5+JQ+T4KU8cSw7YJnFm8jRxiBwv5Ynz1/RFCCTOTL4mDpHjIxLHfd4mDpHjIRLHff4mDpHjny8Sx3keJw6R452ExHGez4lD5PiGxHGf14lD5HgmT5zI9EUIJM5MfidOGTlGz4rGevLE+TF9EQKJM5M0cYYHr6Ymrm0Nv5HzL/k2fRVYB4njKY8S5/QnH9+gW+UHEsdTPiVO8btcTV8FVhGTOLBdQOL440niwHokjj9IHNiPxPFHnjifpi9CIHGgkL8zLNlTBQvlifM0fRECiQMFi3aqxEIkDuxn0b5xWIjEcds1esbF2Hf8uF1MX8xmLNo3Dgs9SBx3BVHamXGT+HpXWrSnChb6IXFcFUSDSX5Z6mfmkDj+IHFcdU2HgZP3rnxcDWDRDgdYKE8cS5blkjjvuEnzxtOJKySOP/LESUxfhEDivKEOnPQe5hXjy/me+hs5Fq3+w0IkjpOqwInD9hdTXyPnPxLHGySOi6qF4a/e1+9lu8e3Wo5Fa3G2dIipDn9JHAclqrZM2fZ5GLimLR0hcY4y1YHEcVCk7jyVkRNKHnKYRfNUN3KcqQ4kjnsCXbVGdKwsGX5cy6fviXOgqQ554liyORyJM9GreDfe5Q9q48hVFs0a28SRpjqQOO4Rn4eqj7+bh5UczxPnUFMdSBznXEciRbxTd7yg7Vk0orqBY011IHGcIzpV6s0bHsXjXtWO7z4nzsGmOpxJHNc8R9owxd/RlmMP12HR+Mb6DjbVgcRxjmiBL3mCc3xOnKNNdSBxXBOMfvAl3hVyLOr7r+1wUx3y29ySA1ZJnEnC0U7TWLfLPR/+Js7hpjpYdJtbdCk2E4mjm44aefc2taglvrbDTXWw6Da36FJs9hrt20fe9f79TZzjTXX4Y88vROJMMp4nfiaOn2+N4011uNrzWvr7tlrVERPHos/FlR1vqgOJ45ojJo5F79KVjQ5GeTdaZdFrSeJMciZx/HHAqQ5Xe4Y1SJxJxFhVf0p828O3N6lN79J1HXCqg0WvJYkzyWX0TRr79iYVv7Md79J1HXCqA4njnON1/cWvZMe7dF0HnOpg0acHiTPNWBNGTPFQzGJ1lD3v0nUdcRhg79cy+OmrOggkzjRjUzjuI4+7yL/fSCBxtlftBtKoJpOSONNcRsY3Uu/KOCQOiTMfibOYGDBVHWjk4VIckaI+Js4Rpzrs/elBr2oxkSmKfX+D1Lu36MnfxDniVAd72qskzlQiVORjqj5uqSJ+4w/TF7GBI051IHHcU+4Nd5ht40Ti/DV9EVsY/Xzw7wPkm8RxT6yKnDJwvDtpJfE1cQ441cGeHjKJM9mlLLortv9XbvDkLM8S51q/QG9OdQg86FqSOC46l9FyjCOOROL48kEf/E2a3+XNqQ4f2b+H669uqqxB7u2aD1yZvghX1Mc4JtHgGEc7Xs5V5Ynjx3vjz2dex2g2NHxvqkPx7OSv021Yb2tynqtaOUOufwbKPP1InEtUfSzU3Yq3pjpUk9m+Px1+kUkcR10Tad7Eqo9Lp3mROB9x/Sr9a+ox70x1+NO85u42dEgcZ72GeZN62KPK5YnzafoiFrk+/jWfCu3673tTHa6f9bf5fv7Z+Jq38UXiOCt4pVlb7GneiMRxeMg/LxbXHwr3Xiv03akOH/813ytysKHj2bjj0VxfT/GOjR83L/tTwo/LifPn+a1rl7w/1aHVXnKwoUPiwH7uJs6lGUNU1V7mTHVo1YQGjSbL5Ynj0+EU8FGeOP+ZvogZ2sVi9USaWVMd2lHmVHfampkOQfjLrbTGXvLESUxfxLuUxeKBmVMdbk42dKxInOu9/tsldztmQMMmf51LnE6xOBqLg7lTHToNHUdWQFiQOLe094d2sQKPLbmWOCPFYonZUx1aP8qNFRCx6cQ59/OmyByTVwTr5ImTjj/NDhOKxRLzpzoEUfM//7O/oWN4NmfwkDYns8SZbil24FDiTCsWS82f6tBu6Ni+AsJs4gSt/msSx82L5efyIMx0diRxWlOCdx5AateN7F4BYXT+eB046b0MmEtTfydyUHEicYLonWLx+q6fTfHI4oaO0fnj1SvU+TQIYyIHXXnifJu+CL1zq1j8aWgicLuh82Xr+IvJxCnncT/7f5qobBxa+ifD7mzfra1dLP7PaJ/G/hUQBhNHHJ0h2wCtnITJiBWEq9WJ015bacEAteVLPR/mEidVBU4dOQxYoWBx4rSqJ9asNrg+6ibX99OSa6qZWyMnUkVxMMZTnUY4nqulnz9B9GVpe8LeFRDmEifRlYfLJfw2vYYw52rlSMLtafPgkK1LPX/U7YxtiT1blWEnqse681FxHIF9iXP9ac/0tfOj8RbXkZj+2PLnM7YqV0SKctmmaOS4tJYGG7IscYJ2ddaae1nCwhUQxhJn7DTChG4Vavl7wZqjjdtT7awrzA7YttTTWOLoO1XjpxXiSOx5L7RbDdbOsutq17fNzhbKRYYSR0zG0cy4GX0CDuSfJYnTqoxYWCxWs2gFhKmdR26jTRhRZN/tgmAzKw6rbk1zsaUoMp01Sz1NJY4oHOu65imJg0r+ZjB7jwd/W8Viu2a4TNU+7MrU0i9zO49Eo4XhsdIyDsT0QY5hu1hsvLE1nwUrIEwlzniekDioGT3kqF0sTtwoFqsZX+pJ4sABBhOntV7A+v31pmkfdrX/Pj4kDhxg6li16SfAOMXkCghTu6uROHiDkSNHtMeFu87YUk9TiROROJjOwJEjfz7fPQHGMYYOuzKbOLrRcfGX2O2CYLO9DwC4RHNOgHGOiRUQpnaQFQefasYZi+XC7JCDwr4HACw4AcY1+y/1NLWDrFgbflc/gVUOaOy4Oa6nxWK1nRs6xvasFg1W9eP30W4XjmOvzXG9LhYr7boCwljiiMM41a9pSuEYtX22qnz/uHBv7LfU09ie1Wd9rymkjIPGDltVzjsu3B97NXTM7ZIvfjfVbxaPVZZxJJtv43SgYrHaLisgzCVOpKsdixaQ9Qe/YifbbuN0uGKx2vZLPc3tki+Gv+XNmPIx63d0xE423FSlUyw2cFy4bTqHXW3Q0DF4Lkd52K/khwcJTRy05YnztcU3/mPBceHW2XQFhMmTgMrPlsEIeKB6AEe1zYLjoxeL1TZc6nkxmDjX8lfqDViV55HrpgfiYD42SJz2pg2HLRartQ+7WrWhYzBxquPFs7SVomH1PjB0GjpstPryv9YOnFadWGmTjVZAmEycOnJ+8yU6h2H4aqpWMY1c1NZd/hdE7WIxbzS1LVZAGE2cugc1wNw/tKw5Nf7cLhZTKxzROexqlYZO/p0MTrS7xIOwMXxFsFC4VuK0S6LmT4tzw8orIIzf3+d0kDc0dNG10kRVV44Lt82qKyCMJ07ezG3HTXIjb9BTJM7C90X7o5pi8bs6h10tCutv84nzK4zu8a9HdCZuMLR42li7HEGxeJ6VVkBYcb4qoBUsS5zb05pjt522ylJPEgcOWJA417vDx4Vbp3PY1ayGTv5q0KmF5eYmTtDuCtxp3qygNdw3qx5m+kRnYIJ5AxztYvGTz9XSNfy16DssWupJ4sABMwY4vDoufCXB7Vn/UZ4vaVbkcRTKU6T10IKlniQOHPB2ubG1ENGT48KXuzyyrljS1CkekO8G3H2otQLirZWwXyQO7PdeubG1qxTF4krQz5sicwZRMTlx5i71TEgc2O+Npnjwt10sZlO/kmoJ46v3vDcS5zRrqSeJAwdMboqHvh8XPtOtFTJxHDerFvqLpt9LnBkrIBLl9wesMe2DMTjGceEz1IHzrBYRhXd55LybOKd3l3rmL+WeZ8gDM0z5YGyN2VIs7jpXedPuZAaRLHJmJM57DR0SBw4YfZtyAozGpfzD9Ef7rmVOtGvysxLn9MYKCBIHDoi1b9NjHhc+Xdn4G7b7qkMMWq2SuYlzmrrUU/9SAlZ4at6mfygW691UgVNHTqtftSBxph12pXspAUs8++WGyoVi8SjxF5IvbCgPVGnahYsS59RdASE9cJDEgQPyt6nkdA+OC59AlI1VZ6OIIavmqKaliTO6AiJ/KT8nXThgzKfknqFYPM1T2afKlSdu1/9enjgn/WFXig8PwCY//bcpx4VPJnqcyofF4odz59lLE6c7Nar7cUDiwAF54sTNP9vHhVMs1hPLG/qLGRrnbrdqpcQ5KVdAkDhwwE/rY5rjwt8SaTtVp34baL3EURx29SBxYL97fVNQLH5T3K3TjD1hzcQ5dVZAlBPBBx1kwD5/ReJ0isVs6jdJqi/jVI2gavC8+McjlJmTOMMVECQOHFAkDsXiOUQ8a55wGyaOxpxl353Drj5HLgewQJE4zbuW48KnK/5kd80Tum2XLRLn1F4B8e+fvskFWOAjy6oiJMeFv2W8L7RL4rR6xF8kDqx3zr6L9+tbO+riZFHinOqq/39f9KpguTD5ztIkoVj8tlmJk8YyixPndLp8Jl/fCW0cWO+neLsndKjeNStx1hsd78nHxX5bqyQOrCdWB6V0qt41MXFe409fnjjFioqEOg5cIAY7/jFM9abiz6YrnLyKZ3RGx7dJnCCmcgx3lJtHfVPLeU/xZ9Pd4mK/imp+03aJU76A6cjlAJYI0uWjJQck1oZrCmCbrnJoXMuXLyZx4IjqPct+Tu8QnSb1EcpBt9u1VeL8KddXRT8kDlxxLd+1MUNW04mDHKRbthZuncLxVonzUb50PycSB+6oPigZJX9Dou9WxZ0yzkaJUx2N9TyROHBJdbYko+TTvbRJIcbGmwjYJHE+y5ftvxOJA7f8Ld+734yST1XuZKxYbC9aQM0A4AaJE1SrOIumKYkDp/xUkcNe6lNFvWbM8LG0+cL6iXOp1uB+FT07EgduqVrojJJPVTZyZMXjspfamuO0euKE1R6xZU+YxIFj6m1HGSWf6FxGzqB6XAZOe0by2olzrnYd/S5LbyQOHBPUW3MxSj7Ro6yjdOvtQfnlToln5cT5WwdOVXgjceCaoD4hgFHyaeqQfjThElQj1t1zHtZNnKrq1lqcQuLAOZf6+BhGyadp2oXJ/RWG4TlqjsToLlRbM3GCZ/1Dmjo/iQP3XJsD8jgfb5K6BzXQy+wVE6eJufb/InHgoLCJHEbJp3lJ8+bZ75eulzjX5ni8n9aXSRy46FZHDqPkE0maOfFwHuVqiRM2R4t1jqciceCkv819wyj5RJcobeeNdJf6Ykdj+R5EmoeGWh8J/3UeIHHgpnvro5ohq6kut+iZB0f02rbmHjWvTm9AkcSBoz6Vb2qY1nptvnqvDYkDVzUDvIySWyXQvTIkDlxVr0nOGCW3SWtUvF7b0CBx4Kxm8jGj5Pa4tsrTkk1FSBy4K2iPvTBKboU/363AkYxskThw2PVfK3IYJbfARytwMlm7k8SBy8L2G5xRcuNacxYUrU4SB067tSOnPxILmejn52ejTVs/24HzI30KiQO3fbTf5IyST5AXv/5u4WZ9rQAADxlJREFU8Y3bg4e9tQ0NEgeOi9pvc0bJx22VOJev9ivxn+JZJA5c99OJHEbJx2yUOGFn0ZZyGjiJA+c92291RsnHbJM4nYKapqJG4sB9nfoBo+QjNkmcv53A0dTTSBy4rz2vPmOUfMQWidPde2e4tqFB4sADncnHjJLrrZ84Qbdfqz0wlcSBD67dyGGUXGP1xOk1MWVrGxokDrzQmXz8+64/m74ge62dOL20H/neJA78cO5FDqPkKisnTvivGzgjY4UkDjzx0X3jZ3fTF2SrdRPno5v00uPN20gc+OJvL3IYJZdbNXGi3h9dsbahQeLAGz+9d/9/DFnJrJk4n/0/+ej/+JkSS4AT+u//r8v4/zme9RKnvaFxYcIW9yQOPNK/Axgll1gtcXqj4tPmQZE48MjgHmCUfGitxOmPik/LdxIHPgm++pHDKHnfSonTm46gX9vQIHHglcEHL6PkfeskTn9UXL+2oUHiwC/X/p3A+7tnlcS59//K+rUNDRIHngkHkcMoeccaifPs/40nf0cSB765DSKHUfK25YnT3dC4MHkfNBIH3ulPPs6ydKOzC5y0OHGu/fL8+NqGBokD/wyKDIyStyxNnHBQnH8nQkgceKg/+fg3cjY5L8VJCxNn2GmdsLahQeLAR/3Jxxmj5LVliTPssk5Z29AgceAjSW2T93lpUeI8hn/X9/Z4JXHgpcHk44xR8tKCxBks3czeXrtG4sBPl2F9k1HywvzEGSxby6aubWiQOPDU9d/w9mCU/LQgcYYrSGYcu0ziwFfDycfT5+L7bG7irPP3JHHgLck4LqPksxNnsHQzm/V9SBz4q7/ZeuHH9FWZNi9x+hsaF2bMOCBx4DHpbfI8+JDVrMQZzqnM3lnb0CBx4DPJ9JHDj5LPSBzZqPjM4CBx4LXhtgq/vg69/fH7iSOb3DQ3uEkceE02+fjgo+RvJ45sVPzNtQ0NEgd+k81aO/Yo+buJM9jQWIT2zK4piQPPBdJP6AOPkr+ZOH/lgTO3Y0riwHfyTsGsgRYvvJc4w72GisCeXQkjceA92WTZ7Lij5O8kTiCtvL+/tqFB4sB/8krE3Nqn695IHHndfVEVjMTBAUgnHx91lHx64kg2NC4sqYGRODgC6eTjLPt3xFHyyYkTSlbf5xbtpkji4BB+5DfPEUfJpyaObCFsblnJncTBMchLoKucwO2YiYmjaBYujQsSBwchXRq0+CPbQdMSR7oiLVu+KI3EwUHIJx9nxxsln5I48qWb2QrjeyQOjkK+HnGNu8gtExJHmc5z1zY0SBwchmLy8dFGyccTR/mHmr22oUHi4DiuitGXY42SjybOH9Wfaf7ahgaJgwNR30sHGiUfSxzphsbFH2n+2oYGiYMjuSlupiyLTF/abkYSRzUqnmWrpDKJg0ORHJtdOswouT5xpBsaF9aZuUTi4Fjkuy/k4oMMWekSRzkqvnBtQ4PEwcGoP8QPMkquSZyLagJBln2u9NNJHByN+mN8hcFfB6gTJ1SNiq8YEiQOjkax6UvuEKPkysRRbCOUW+/AHRIHh6OcfHyMUXJV4sg3NC58rdfffJA4OJyLuvdwgFFyReIo9vPILV/b0HiSODge5eTjbL0SqbWkiaPY0FgEzprlLRIHR6TYbL3g+yi5LHGUSzd/fa9a3CJxcEiqDe5yno+SSxJHtaFxEThrrG1okDg4JsVm6+t3I6wzTBzVhsaFlWvpJA4OSr1+aO2OhGUGiaNr762+KyuJg6NS7atZRM6H6avbTj9xdNG71tqGBomDw9IMz/g8St5LHPWqj2yLgTsSB4elmXy8yc1miU7iaJZubhMNJA6OSzP5OPN3lLydOLpR8TXXNjRIHBxYoJl87O0oeStxlBsaF1Zc29AgcXBk+lvOz1HyJnGUm7CK336TwCVxcGi6ycerz36zQ504yg2Nt4xbEgfHptmiIfNzlLxKHO2o+GZTkkgcHJxu8nHm4yh5mTjaUfHtWnckDo5O/1nv3yh5kTj6mQGrr21okDg4PM3OMDnfRsnzxIm08wLWX9vQIHEA7eRj70bJ88TRTsPZYG1Dg8QBTiNdDL9GyfPE0TdxtuxIkjjAyNRbz0bJ88TRbU+RxVv+dBIHGFvv4NcouXbSY7bN2oYGiQOcxiYfZz6Nkqf6Js4maxsaJA6Q0222XvBmlDzVlnG2WdvQIHGAgn6RUebPKHmqG6ravEhO4gDCbSRxtu5v7EWXONtvt0riAKW/Y5Hjxyi5JnG+z5v/dBIHqIxMPvZklFxTx9nhDGQSB6jpVzdmo3N1nfAbN4qBue3WNjRIHKCh3fU3+/YhcPLUlBfJf/b4C5M4QEO7pPp7ZJqgI74UgbPP8D+JA7RoJh//G5sk6Ijvb+kvsunahgaJA7RdVLmSatciueRLlqrbrm1okDhAh2Ly8dfYBEF3JJJy1G5zjUgcoEu62XriT+BkX8PE2XptQ4PEAXpuw3TxYpCqMhxy23FqI4kD9A0mH3sVOMNfZ/u1DQ0SBxi4927JkT0CndONnB3WNjRIHGDo0b1D/ZiI09KJnB3WNjRIHECiu9m6fAaLy1qRs8fahu4f9unHInxgPZ3Jx9++FXKy1mj/LmsbGs/sK81SjzZxBVbRnnyc+tetqiNn760NP0V4JzsWqwEXBE1PSrUSyW3FJOqd1jY0LtVi2U+6VkDbtV7WkCj3d3Dav3S3tQ1tf8ou6rc/m9UDa6gnH//eInHiof8MlXCjMsvTXUfJANtVk4+/dq+vei54lH/Z/7zYxxVYyUf5WUzirO1alnO+H5RzgFokbgsSZ323sjT2j3IOUMs3W8+rDiTO+qKq0+rDfvXAOp5ijQOJs4Gg2sk+vpi+FMAW/xUTjkmcTVzLqd3fP5RzgEKQkDgb+qjKOSx8AArFEisSZyvBvSznsPABKDxJnE1dqnLOJ+UcgMTZXlgtfLhTzgFInO19sPABKJE4Owh+WPgAFEicXbCPBVAgcXZy/mIfC4DE2U+1j8XXnsdLAHYhcfZT72MRU87BUZE4e6oXPrCPBQ6KxNnXjYUPODQSZ2/VPhYJ+1jggEic3bGPBQ6MxDHgysIHHBWJY0S1jwUHeOJgSBwz2McCx0TimHJ5svABx0PimMMBnjgeEsck9rHA0ZA4RrGPBQ6GxDHswgGeOBISx7hqHwsO8MQBkDgWYB8LHAaJY4NmHwsWPsBvJI4dOMATx0Di2IJ9LHAEJI49IhY+wHskjkUCDvCE70gcq3CAJzxH4lim3seChQ/wEYljm3ofC+3ChyD8Rd8LziFx7DN2gOf1Xj0hS+7SSYOXPI/k9WfNQ8D2SBwb6faxqEbRa9Ewl6LiAem31jwEbI/EsdOHYuHDuZ83Reb0/zeJA1uROJaq97GIW02Y4CHJm7xz1avokDiwFYljrauo1nw1XwmSVsjEcdzKnG6VmcSBrUgcixX7WDTdqjpw0nsZMJdbLI0cEge2InGsFv2Lm39UgdOZqRPGksghcWArEsduQVOhuYtkefaHpqKymxX0vyT9hiQOjCJxXBGKYHkMH7kNRqxIHNiKxHFFqgqcOnKa5hCJA1uROI4QqRLLH3z20ojEga1IHEckkkHw2kU0cupKDokDW5E4briKqrHqYZEjr+4/Nc/c4AqBKUgcN4igUJ71IBo5SffZmm+0wRUCU5A4bohHgiLpdKtIHNiKxHGDvlN1Or06bSASB7YicZwQ9mfc6J9A4sBWJI4TbvoyzqlsBFWD5yJWQpkHiQOTSBwnlBGieUY6TByNPa4ZkCBxnBB159tIdErLJA5sReI4YWyoisSBI0gcJ5A48ASJ44RZiRPLpCQOTCJxnDArcaTPY3QcRpE4ThjPCRIHTiBxnDA+Oi76UZ2na77T6hcITEPiOOFc5IRmBmBQPKHaIYfEga1IHCeIteF39RNY5QA3kDhuKHIiUT9+73S7SBzYisRxg1gOdVE+3h30JnFgKxLHDedOr2kg7JRxSBxYi8RxhJgrrFpZFXcryyQObEXiOCLS1Y5FCyjtPVnzfba4QmACEscRYvhbPkBePtacDkziwFYkjivK1ZmS82OCpNfEIXFgLRLHGSJXhhOPg+EDJA5sReI4QxxZNRiwKs8j75R4SBzYisRxR3m8eJY2BZtTGJdf7JzzQOLAViSOQ6rI+c2X6ByG4euRVl+IO+PmJA5sReK4JMwUHt3nkTiwFYnjlEssDZz+mDmJA1uROI45p4O8iQYzkUkc2IrEcc752Y6b5CZZ+XArtjSW/m/NQ8D2SBwXhdE9z41HdNYdYQXYh8QBsB8SB8B+SBwA+yFxAOyHxAGwn3uSJH9NXwQAAAAAAAAAAAAAAADgh0v4i/XHADZ3fiT1LrmR5Bik0+ma55H0Ed1DANATRL2N5NoHBFSKLS7luzdpHgKArn7eFJkzOGGWxAGw3CWRBM6vR6+iQ+IAWOzaCpl888rWprndyCFxACxVB07yupRfeaXSyCFxACx0qcIlbH/1lkoih8QBsFBZw4l6Xw7KM0napzuSOACWKUepJGPhD/FIq+lD4gBY5KIMnCpy0uYLJA6ARR7SLpUQpL00InEALBGIZoxiJdVZFI/rf5M4AJZ4FZnyUj0spuZcO/8kcQDMJCJFuVj8Vjx87zybxAEwU5EoT+XDQbdbReIAWCDUd6rEgXlNG4jEAbBA1J9xo38CiQNggYe+jFM1gqrB81ishpBJSBwAI0ThWPOEyzBxNEgcABpxd76NRCdJSBwAC4znBIkDYC0kDoD9zEqcWIbEATBmTuIwOg5gnvGcKBLnOf50EgfAmNHRcbEHcmd0nMQBMM+9CBTNDECxX0W1Qw6JA2ABsTZ8cBJeg1UOAFYjOk139ROSTreLxAGwRLGvaKp8+NIpHJM4ABa5d3pNA1GnjEPiAFjkqp2RIzbkairLJA6ARWJd7Vi0gB7dJ5M4AOYSG+Bkl0mPkTgAlhGNnEQyJ0f0uNrHAJM4AJYpD+VMBq2cMnDa8wNJHAAL3cpk6dVyXpIvkzgAlnqU2RK3BslvafnFzjkPJA6AxarIydJHlO+SHj2rL/SmI5M4AJZ7ZQq37vNIHAArCFNZ3iTX3tNIHACriAZ5k94GTyJxAKwjuCXtvHnKpiHf8x2N5SvNNQ8BgERwjh5FcESac4EBAAAAAAAAAAAAAAAAAACA0+l/u2rEwNcvHp8AAAAASUVORK5CYII=;" vertex="1" parent="1">
          <mxGeometry x="1010.63" y="683.16" width="178.75" height="104.84" as="geometry" />
        </mxCell>
        <mxCell id="7mjdrCKgkBbXvNlTKw9o-20" value="&lt;font style=&quot;font-size: 14px&quot;&gt;Glucose&lt;br&gt;6-phosphatase&lt;/font&gt;" style="ellipse;whiteSpace=wrap;html=1;" vertex="1" parent="1">
          <mxGeometry x="760" y="310" width="170" height="60" as="geometry" />
        </mxCell>
        <mxCell id="KSHk2mPukb79ZtWoa8dP-1" value="Hexokinase" style="ellipse;whiteSpace=wrap;html=1;" parent="1" vertex="1">
          <mxGeometry x="450" y="320" width="110" height="40" as="geometry" />
        </mxCell>
        <mxCell id="7mjdrCKgkBbXvNlTKw9o-120" value="" style="curved=1;endArrow=classic;html=1;strokeColor=#000000;strokeWidth=1;fontSize=18;exitX=0.5;exitY=1;exitDx=0;exitDy=0;entryX=0.5;entryY=0;entryDx=0;entryDy=0;" edge="1" parent="1" source="7mjdrCKgkBbXvNlTKw9o-101" target="7mjdrCKgkBbXvNlTKw9o-94">
          <mxGeometry width="50" height="50" relative="1" as="geometry">
            <mxPoint x="920" y="720" as="sourcePoint" />
            <mxPoint x="970" y="670" as="targetPoint" />
            <Array as="points">
              <mxPoint x="860" y="820" />
            </Array>
          </mxGeometry>
        </mxCell>
        <mxCell id="7mjdrCKgkBbXvNlTKw9o-128" style="edgeStyle=none;curved=1;orthogonalLoop=1;jettySize=auto;html=1;exitX=0;exitY=0.5;exitDx=0;exitDy=0;entryX=0.5;entryY=0;entryDx=0;entryDy=0;startArrow=none;startFill=0;endArrow=classic;endFill=1;strokeWidth=2;fontSize=18;dashed=1;dashPattern=1 2;strokeColor=#33FF33;" edge="1" parent="1" source="7mjdrCKgkBbXvNlTKw9o-121" target="7mjdrCKgkBbXvNlTKw9o-101">
          <mxGeometry relative="1" as="geometry">
            <Array as="points">
              <mxPoint x="910" y="490" />
            </Array>
          </mxGeometry>
        </mxCell>
        <mxCell id="7mjdrCKgkBbXvNlTKw9o-121" value="&lt;font style=&quot;font-size: 14px&quot;&gt;Phosphoprotein phosphatase&lt;/font&gt;" style="ellipse;whiteSpace=wrap;html=1;fontSize=18;" vertex="1" parent="1">
          <mxGeometry x="1050" y="480" width="120" height="80" as="geometry" />
        </mxCell>
        <mxCell id="7mjdrCKgkBbXvNlTKw9o-122" value="&lt;font style=&quot;font-size: 14px&quot;&gt;cAMP-dependent&lt;br&gt;protein kinase&lt;br&gt;&lt;/font&gt;" style="ellipse;whiteSpace=wrap;html=1;fontSize=18;" vertex="1" parent="1">
          <mxGeometry x="1040.01" y="880" width="120" height="80" as="geometry" />
        </mxCell>
        <mxCell id="7mjdrCKgkBbXvNlTKw9o-123" value="" style="curved=1;endArrow=classic;html=1;strokeWidth=2;fontSize=18;exitX=-0.029;exitY=0.619;exitDx=0;exitDy=0;exitPerimeter=0;entryX=0.5;entryY=1;entryDx=0;entryDy=0;strokeColor=#33FF33;dashed=1;dashPattern=1 2;" edge="1" parent="1" source="7mjdrCKgkBbXvNlTKw9o-122" target="7mjdrCKgkBbXvNlTKw9o-101">
          <mxGeometry width="50" height="50" relative="1" as="geometry">
            <mxPoint x="920" y="710" as="sourcePoint" />
            <mxPoint x="970" y="660" as="targetPoint" />
            <Array as="points">
              <mxPoint x="910" y="1010" />
            </Array>
          </mxGeometry>
        </mxCell>
        <mxCell id="7mjdrCKgkBbXvNlTKw9o-124" value="" style="endArrow=classic;html=1;strokeWidth=1;fontSize=18;curved=1;exitX=0.5;exitY=0;exitDx=0;exitDy=0;entryX=0.5;entryY=0;entryDx=0;entryDy=0;" edge="1" parent="1" source="7mjdrCKgkBbXvNlTKw9o-125" target="7mjdrCKgkBbXvNlTKw9o-126">
          <mxGeometry width="50" height="50" relative="1" as="geometry">
            <mxPoint x="990" y="1000" as="sourcePoint" />
            <mxPoint x="850" y="960" as="targetPoint" />
            <Array as="points">
              <mxPoint x="950" y="910" />
            </Array>
          </mxGeometry>
        </mxCell>
        <mxCell id="7mjdrCKgkBbXvNlTKw9o-125" value="ATP" style="text;html=1;strokeColor=none;fillColor=none;align=center;verticalAlign=middle;whiteSpace=wrap;rounded=0;fontSize=18;fontStyle=4" vertex="1" parent="1">
          <mxGeometry x="970.63" y="1000" width="40" height="20" as="geometry" />
        </mxCell>
        <mxCell id="7mjdrCKgkBbXvNlTKw9o-126" value="&lt;font style=&quot;font-size: 18px&quot;&gt;ADP&lt;/font&gt;" style="text;html=1;strokeColor=none;fillColor=none;align=center;verticalAlign=middle;whiteSpace=wrap;rounded=0;fontSize=16;fontStyle=4" vertex="1" parent="1">
          <mxGeometry x="830" y="960" width="40" height="20" as="geometry" />
        </mxCell>
        <mxCell id="7mjdrCKgkBbXvNlTKw9o-127" value="" style="curved=1;endArrow=classic;html=1;strokeColor=#000000;strokeWidth=1;fontSize=18;" edge="1" parent="1">
          <mxGeometry width="50" height="50" relative="1" as="geometry">
            <mxPoint x="920" y="710" as="sourcePoint" />
            <mxPoint x="970" y="660" as="targetPoint" />
            <Array as="points">
              <mxPoint x="970" y="710" />
              <mxPoint x="920" y="660" />
            </Array>
          </mxGeometry>
        </mxCell>
        <mxCell id="7mjdrCKgkBbXvNlTKw9o-129" value="" style="endArrow=classic;html=1;strokeWidth=1;fontSize=18;curved=1;" edge="1" parent="1">
          <mxGeometry width="50" height="50" relative="1" as="geometry">
            <mxPoint x="950" y="440" as="sourcePoint" />
            <mxPoint x="860" y="510" as="targetPoint" />
            <Array as="points">
              <mxPoint x="960" y="590" />
            </Array>
          </mxGeometry>
        </mxCell>
        <mxCell id="7mjdrCKgkBbXvNlTKw9o-134" style="edgeStyle=none;curved=1;orthogonalLoop=1;jettySize=auto;html=1;exitX=0.5;exitY=1;exitDx=0;exitDy=0;dashed=1;dashPattern=1 2;startArrow=none;startFill=0;endArrow=classic;endFill=1;strokeColor=#33FF33;strokeWidth=2;fontSize=18;" edge="1" parent="1" source="7mjdrCKgkBbXvNlTKw9o-24" target="7mjdrCKgkBbXvNlTKw9o-24">
          <mxGeometry relative="1" as="geometry" />
        </mxCell>
        <mxCell id="7mjdrCKgkBbXvNlTKw9o-135" value="P&lt;sub style=&quot;font-size: 18px;&quot;&gt;i&lt;/sub&gt;" style="text;html=1;strokeColor=none;fillColor=none;align=center;verticalAlign=middle;whiteSpace=wrap;rounded=0;fontSize=18;fontStyle=4" vertex="1" parent="1">
          <mxGeometry x="840" y="490" width="40" height="20" as="geometry" />
        </mxCell>
        <mxCell id="7mjdrCKgkBbXvNlTKw9o-136" value="H&lt;sub style=&quot;font-size: 18px;&quot;&gt;2&lt;/sub&gt;O" style="text;html=1;strokeColor=none;fillColor=none;align=center;verticalAlign=middle;whiteSpace=wrap;rounded=0;fontSize=18;fontStyle=4" vertex="1" parent="1">
          <mxGeometry x="930.63" y="420" width="40" height="20" as="geometry" />
        </mxCell>
        <mxCell id="7mjdrCKgkBbXvNlTKw9o-138" value="" style="endArrow=classic;html=1;dashed=1;dashPattern=1 2;strokeColor=#33FF33;strokeWidth=2;fontSize=18;entryX=1;entryY=0.5;entryDx=0;entryDy=0;" edge="1" parent="1" target="7mjdrCKgkBbXvNlTKw9o-121">
          <mxGeometry width="50" height="50" relative="1" as="geometry">
            <mxPoint x="1320" y="520" as="sourcePoint" />
            <mxPoint x="970" y="530" as="targetPoint" />
          </mxGeometry>
        </mxCell>
        <mxCell id="7mjdrCKgkBbXvNlTKw9o-139" value="Glucagon" style="shape=hexagon;perimeter=hexagonPerimeter2;whiteSpace=wrap;html=1;fixedSize=1;fontSize=18;" vertex="1" parent="1">
          <mxGeometry x="1320" y="880" width="120" height="80" as="geometry" />
        </mxCell>
        <mxCell id="7mjdrCKgkBbXvNlTKw9o-141" value="Insulin" style="shape=hexagon;perimeter=hexagonPerimeter2;whiteSpace=wrap;html=1;fixedSize=1;fontSize=18;" vertex="1" parent="1">
          <mxGeometry x="1330" y="490" width="120" height="80" as="geometry" />
        </mxCell>
        <mxCell id="7mjdrCKgkBbXvNlTKw9o-140" value="" style="endArrow=classic;html=1;dashed=1;dashPattern=1 2;strokeColor=#33FF33;strokeWidth=2;fontSize=18;entryX=1;entryY=0.5;entryDx=0;entryDy=0;" edge="1" parent="1">
          <mxGeometry width="50" height="50" relative="1" as="geometry">
            <mxPoint x="1310.01" y="920" as="sourcePoint" />
            <mxPoint x="1160.01" y="920" as="targetPoint" />
          </mxGeometry>
        </mxCell>
        <mxCell id="7mjdrCKgkBbXvNlTKw9o-143" value="cAMP" style="text;html=1;strokeColor=none;fillColor=none;align=center;verticalAlign=middle;whiteSpace=wrap;rounded=0;fontSize=18;" vertex="1" parent="1">
          <mxGeometry x="1230" y="900" width="40" height="20" as="geometry" />
        </mxCell>
      </root>
    </mxGraphModel>
  </diagram>
</mxfile>
